<svg width="28" height="38" viewBox="0 0 28 38" fill="none" xmlns="http://www.w3.org/2000/svg">
<path d="M13.7434 15.4301C14.143 15.4301 14.4669 15.1061 14.4669 14.7065C14.4669 14.3069 14.143 13.9829 13.7434 13.9829C13.3437 13.9829 13.0198 14.3069 13.0198 14.7065C13.0198 15.1061 13.3437 15.4301 13.7434 15.4301Z" fill="#2E4914"/>
<path d="M8.31814 21.9392H19.1681C19.5675 21.9392 19.8914 21.6154 19.8914 21.2159V14.4186L20.8674 15.2552C21.1719 15.5163 21.6284 15.4787 21.8873 15.1767C22.1473 14.8734 22.1121 14.4167 21.8087 14.1567L14.2139 7.6468C13.943 7.41461 13.5433 7.41461 13.2724 7.6468L5.67748 14.1567C5.37411 14.4167 5.33896 14.8733 5.59892 15.1767C5.85882 15.48 6.31553 15.5151 6.61882 15.2552L7.59481 14.4186V21.2159C7.59481 21.6154 7.91871 21.9392 8.31814 21.9392ZM9.04147 13.1786L13.7431 9.14865L18.4447 13.1786V20.4925H14.4664V17.5992C14.4664 17.1997 14.1425 16.8759 13.7431 16.8759C13.3437 16.8759 13.0198 17.1997 13.0198 17.5992V20.4925H9.04147V13.1786Z" fill="#2E4914"/>
<path d="M13.2235 37.3429C13.3597 37.4838 13.5473 37.5633 13.7433 37.5633C13.9392 37.5633 14.1268 37.4838 14.263 37.3429C18.8796 32.5777 27.4865 21.8577 27.4865 14.7061C27.4865 12.1819 26.8003 9.67965 25.5018 7.46973C25.2994 7.12528 24.8562 7.01013 24.5117 7.21244C24.1673 7.41483 24.0521 7.85809 24.2545 8.20254C25.4225 10.1905 26.0399 12.4394 26.0399 14.7061C26.0399 22.0239 16.1457 33.1819 13.7433 35.7827C11.3409 33.1819 1.44666 22.0239 1.44666 14.7061C1.44666 7.80536 7.07785 1.97547 13.7433 1.97547C15.9405 1.97547 18.1071 2.60773 20.0087 3.80397C20.3467 4.0167 20.7935 3.915 21.0061 3.57685C21.2188 3.23869 21.1171 2.79211 20.7789 2.57945C18.6463 1.23789 16.2134 0.528809 13.7433 0.528809C6.03604 0.528809 0 7.23841 0 14.7061C0 21.8502 8.59257 32.5629 13.2235 37.3429Z" fill="#2E4914"/>
<path d="M22.9294 5.95399C23.329 5.95399 23.653 5.63003 23.653 5.23041C23.653 4.83079 23.329 4.50684 22.9294 4.50684C22.5298 4.50684 22.2058 4.83079 22.2058 5.23041C22.2058 5.63003 22.5298 5.95399 22.9294 5.95399Z" fill="#2E4914"/>
</svg>
