<svg width="28" height="27" viewBox="0 0 28 27" fill="none" xmlns="http://www.w3.org/2000/svg">
<path d="M14.0531 12.0163C14.2898 12.0163 14.4818 11.8244 14.4818 11.5876C14.4818 11.3509 14.2898 11.159 14.0531 11.159C11.449 11.1346 9.35771 9.00377 9.38209 6.39966C9.40647 3.79555 11.5373 1.70427 14.1414 1.72865C16.752 1.83699 18.8025 4.0027 18.7683 6.61527V9.44437C18.7683 9.6811 18.5763 9.87302 18.3396 9.87302H17.911C17.6742 9.87302 17.4823 9.6811 17.4823 9.44437V4.72921C17.4823 4.49248 17.2904 4.30055 17.0537 4.30055C16.8563 4.30221 16.6863 4.44029 16.6443 4.63319C15.4078 3.19865 13.2425 3.03812 11.8079 4.27462C10.3734 5.51112 10.2129 7.67645 11.4494 9.11099C12.6859 10.5455 14.8512 10.7061 16.2857 9.46956C16.4065 9.36545 16.5199 9.25303 16.625 9.13317V9.44437C16.625 10.1546 17.2007 10.7303 17.911 10.7303H18.3396C19.0498 10.7303 19.6256 10.1546 19.6256 9.44437V6.61527C19.6578 3.53622 17.2342 0.990454 14.1573 0.871342C11.0797 0.842569 8.56149 3.31412 8.53272 6.39173C8.50395 9.46934 10.9755 11.9876 14.0531 12.0163ZM14.0531 9.44437C12.6327 9.44437 11.4812 8.29291 11.4812 6.87246C11.4812 5.45202 12.6327 4.30055 14.0531 4.30055C15.4736 4.30055 16.625 5.45202 16.625 6.87246C16.6236 8.29232 15.473 9.44298 14.0531 9.44437Z" fill="#2E4914"/>
<path d="M27.336 11.5592C27.3351 11.5417 27.333 11.5243 27.33 11.507C27.3262 11.4885 27.3209 11.4705 27.3141 11.4529C27.3076 11.433 27.2995 11.4135 27.2901 11.3946C27.2873 11.3853 27.284 11.3762 27.2802 11.3672C27.2772 11.3616 27.2712 11.3591 27.2678 11.3535C27.2441 11.3222 27.2173 11.2935 27.1877 11.2678C27.175 11.256 27.1616 11.245 27.1474 11.2352C27.1418 11.2318 27.1392 11.2258 27.1336 11.2228L21.1162 7.61008C20.9132 7.48819 20.6498 7.55388 20.5279 7.7569C20.406 7.95992 20.4717 8.22332 20.6747 8.34522L26.0796 11.588L19.4115 15.589L14.2741 12.5066C14.1383 12.425 13.9684 12.425 13.8326 12.5066L8.6952 15.589L2.02709 11.588L7.43196 8.34522C7.63498 8.22332 7.70067 7.95992 7.57877 7.7569C7.45687 7.55388 7.19347 7.48819 6.99045 7.61008L0.973038 11.2206C0.967895 11.2236 0.964894 11.2292 0.95975 11.233C0.944694 11.243 0.930334 11.254 0.916885 11.2661C0.900007 11.2806 0.884254 11.2963 0.869733 11.3132C0.858053 11.326 0.847176 11.3394 0.837156 11.3535C0.833727 11.3591 0.827725 11.3616 0.824725 11.3672C0.820921 11.3762 0.817652 11.3853 0.814866 11.3946C0.805436 11.4135 0.797398 11.433 0.790861 11.4529C0.78411 11.4705 0.778806 11.4885 0.775001 11.507C0.771947 11.5243 0.769911 11.5417 0.769 11.5592C0.769 11.5691 0.763428 11.5777 0.763428 11.588V25.3048C0.763428 26.015 1.33916 26.5908 2.04938 26.5908H26.0556C26.7658 26.5908 27.3415 26.015 27.3415 25.3048V11.588C27.3415 11.5777 27.3364 11.5691 27.336 11.5592ZM1.62245 12.345L7.8619 16.0888L1.62245 19.8327V12.345ZM26.4842 25.3048C26.4842 25.5415 26.2923 25.7335 26.0556 25.7335H2.0511C1.81437 25.7335 1.62245 25.5415 1.62245 25.3048V20.8323L14.0533 13.3737L26.4842 20.8323V25.3048ZM26.4842 19.8327L20.2448 16.0888L26.4842 12.345V19.8327Z" fill="#2E4914"/>
<path d="M3.76593 24.0188H3.33728V22.7329C3.33728 22.4961 3.14535 22.3042 2.90863 22.3042C2.67191 22.3042 2.47998 22.4961 2.47998 22.7329V24.4475C2.47998 24.6842 2.67191 24.8761 2.90863 24.8761H3.76593C4.00266 24.8761 4.19459 24.6842 4.19459 24.4475C4.19459 24.2107 4.00266 24.0188 3.76593 24.0188Z" fill="#2E4914"/>
<path d="M6.33747 24.0186H5.48017C5.24344 24.0186 5.05151 24.2105 5.05151 24.4472C5.05151 24.6839 5.24344 24.8759 5.48017 24.8759H6.33747C6.57419 24.8759 6.76612 24.6839 6.76612 24.4472C6.76612 24.2105 6.57419 24.0186 6.33747 24.0186Z" fill="#2E4914"/>
</svg>
