<svg width="28" height="28" viewBox="0 0 28 28" fill="none" xmlns="http://www.w3.org/2000/svg">
<path d="M20.6287 0.990723H12.9269C12.6355 0.990723 12.3993 1.22687 12.3993 1.51825C12.3993 1.80962 12.6355 2.04577 12.9269 2.04577H20.6287C23.8283 2.04577 26.4315 4.64877 26.4315 7.84854V21.1421C26.4315 24.3419 23.8283 26.9449 20.6287 26.9449H7.33511C4.13555 26.9449 1.53234 24.3419 1.53234 21.1421V7.84854C1.53234 4.64877 4.13555 2.04577 7.33511 2.04577H8.70667C8.99804 2.04577 9.23419 1.80962 9.23419 1.51825C9.23419 1.22687 8.99804 0.990723 8.70667 0.990723H7.33511C3.55363 0.990723 0.477295 4.06705 0.477295 7.84854V21.1421C0.477295 24.9236 3.55363 28 7.33511 28H20.6287C24.4102 28 27.4865 24.9236 27.4865 21.1421V7.84854C27.4865 4.06705 24.4102 0.990723 20.6287 0.990723Z" fill="#2E4914"/>
<path d="M19.2572 25.8901H20.6287C23.2466 25.8901 25.3764 23.7602 25.3764 21.1424V7.84879C25.3764 5.23095 23.2466 3.10107 20.6287 3.10107H7.33512C4.71728 3.10107 2.5874 5.23095 2.5874 7.84879V21.1424C2.5874 23.7602 4.71728 25.8901 7.33512 25.8901H15.037C15.3283 25.8901 15.5645 25.654 15.5645 25.3626C15.5645 25.0712 15.3283 24.8351 15.037 24.8351H7.33512C5.299 24.8351 3.64245 23.1785 3.64245 21.1424V7.84879C3.64245 5.81267 5.299 4.15612 7.33512 4.15612H20.6287C22.6648 4.15612 24.3214 5.81267 24.3214 7.84879V21.1424C24.3214 23.1785 22.6648 24.8351 20.6287 24.8351H19.2572C18.9658 24.8351 18.7296 25.0712 18.7296 25.3626C18.7296 25.654 18.9658 25.8901 19.2572 25.8901Z" fill="#2E4914"/>
<path d="M19.7847 14.4951C19.7847 11.2956 17.1815 8.69238 13.982 8.69238C10.7824 8.69238 8.1792 11.2956 8.1792 14.4951C8.1792 17.6947 10.7824 20.2979 13.982 20.2979C17.1815 20.2979 19.7847 17.6947 19.7847 14.4951ZM13.982 19.2429C11.3641 19.2429 9.23425 17.113 9.23425 14.4951C9.23425 11.8773 11.3641 9.74743 13.982 9.74743C16.5998 9.74743 18.7297 11.8773 18.7297 14.4951C18.7297 17.113 16.5998 19.2429 13.982 19.2429Z" fill="#2E4914"/>
<path d="M13.982 10.8027C11.9459 10.8027 10.2893 12.4593 10.2893 14.4954C10.2893 16.5315 11.9459 18.1881 13.982 18.1881C16.0181 18.1881 17.6746 16.5315 17.6746 14.4954C17.6746 12.4593 16.0181 10.8027 13.982 10.8027ZM13.982 17.133C12.5276 17.133 11.3444 15.9498 11.3444 14.4954C11.3444 13.041 12.5276 11.8578 13.982 11.8578C15.4364 11.8578 16.6196 13.041 16.6196 14.4954C16.6196 15.9498 15.4364 17.133 13.982 17.133Z" fill="#2E4914"/>
<path d="M22.7387 7.84887C22.7387 6.68522 21.7921 5.73877 20.6287 5.73877C19.465 5.73877 18.5186 6.68522 18.5186 7.84887C18.5186 9.0123 19.465 9.95896 20.6287 9.95896C21.7921 9.95896 22.7387 9.0123 22.7387 7.84887ZM19.5736 7.84887C19.5736 7.26694 20.0469 6.79382 20.6287 6.79382C21.2104 6.79382 21.6837 7.26694 21.6837 7.84887C21.6837 8.43058 21.2104 8.90391 20.6287 8.90391C20.0469 8.90391 19.5736 8.43058 19.5736 7.84887Z" fill="#2E4914"/>
<path d="M10.817 2.04577C11.1084 2.04577 11.3446 1.80962 11.3446 1.51825C11.3446 1.22687 11.1084 0.990723 10.817 0.990723H10.8166C10.5255 0.990723 10.2893 1.22687 10.2893 1.51825C10.2893 1.80962 10.5257 2.04577 10.817 2.04577Z" fill="#2E4914"/>
<path d="M17.1469 24.835C16.8556 24.835 16.6196 25.0711 16.6196 25.3625C16.6196 25.6539 16.856 25.89 17.1474 25.89C17.4387 25.89 17.6749 25.6539 17.6749 25.3625C17.6749 25.0711 17.4387 24.835 17.1474 24.835H17.1469Z" fill="#2E4914"/>
</svg>
