<svg width="28" height="28" viewBox="0 0 28 28" fill="none" xmlns="http://www.w3.org/2000/svg">
<path d="M23.4133 18.2016L23.1457 17.7643C22.6226 16.9099 21.9895 16.1264 21.264 15.4356L20.3691 14.5834C20.284 14.5024 20.2713 14.3738 20.3387 14.2776L21.5607 12.5363C21.7369 12.2852 21.8995 12.0208 22.0441 11.7504L23.0882 9.7966C23.2702 9.45613 23.2605 9.05505 23.0622 8.72377C22.8639 8.39254 22.515 8.19445 22.1289 8.19403L19.8688 8.19145C19.8683 8.19145 19.8679 8.19145 19.8674 8.19145C19.3939 8.19145 18.9651 8.47151 18.7748 8.90513L18.5354 9.45059C17.9246 10.8423 17.0909 12.1112 16.0567 13.2237V9.24159C16.0567 8.66226 15.5853 8.19092 15.006 8.19092H11.805C11.2793 8.19092 10.8518 8.61853 10.8518 9.14415C10.8518 9.34488 10.9137 9.53716 11.0307 9.70006L11.2547 10.0121C11.4743 10.3179 11.5903 10.6786 11.5903 11.0551V13.9649C11.1956 13.5064 10.7149 12.8838 10.3081 12.168C9.68501 11.0718 9.23841 9.79359 9.02766 9.12917C8.84962 8.56799 8.33455 8.19092 7.74588 8.19092H5.45675C5.13369 8.19092 4.83659 8.33863 4.6414 8.59616C4.44638 8.85375 4.38471 9.17987 4.47233 9.49095L4.89936 11.0065C5.16107 11.9355 5.52084 12.8399 5.96865 13.6946C6.10381 13.9526 6.42254 14.0523 6.68071 13.9171C6.93882 13.7819 7.03837 13.463 6.90316 13.205C6.48932 12.415 6.15682 11.5791 5.9149 10.7204L5.49947 9.24597H7.74594C7.8727 9.24597 7.98364 9.3272 8.02199 9.44817C8.24529 10.152 8.72006 11.5092 9.39091 12.6893C9.94133 13.6576 10.6091 14.4643 11.0725 14.9706C11.3263 15.2479 11.7169 15.3392 12.0675 15.2029C12.4185 15.0665 12.6454 14.7351 12.6454 14.3586V11.0551C12.6454 10.4564 12.4608 9.88295 12.1117 9.39673L12.0034 9.24597H15.0016V13.4764C15.0016 13.7859 15.157 14.0705 15.4173 14.2379C15.6776 14.4053 16.0011 14.4284 16.2826 14.2999L16.5001 14.2006C16.6004 14.1549 16.6894 14.0911 16.7649 14.011C17.9097 12.7953 18.8304 11.4035 19.5015 9.87451L19.7409 9.32905C19.7629 9.27883 19.8126 9.24644 19.8674 9.24644H19.8675L22.1277 9.24903C22.1354 9.24903 22.1471 9.24908 22.157 9.26564C22.167 9.28226 22.1614 9.29249 22.1578 9.2993L21.1137 11.253C20.9891 11.486 20.8489 11.7139 20.6971 11.9303L19.4752 13.6715C19.1053 14.1986 19.1753 14.9034 19.6416 15.3475L20.5364 16.1996C21.1955 16.8272 21.7707 17.5391 22.2459 18.3152L22.5136 18.7525C22.52 18.763 22.5396 18.795 22.5152 18.8385C22.4909 18.882 22.4533 18.882 22.441 18.882H20.4898C20.239 18.882 19.995 18.779 19.8202 18.5992L17.8691 16.5931C17.4093 16.1203 16.8258 15.7956 16.1817 15.6542C15.893 15.5908 15.5949 15.6607 15.3644 15.8461C15.1339 16.0315 15.0017 16.3075 15.0017 16.6032V18.5744C15.0017 18.744 14.8637 18.8821 14.694 18.8821C13.182 18.8821 11.6879 18.3762 10.4868 17.4576C10.003 17.0876 9.54152 16.6794 9.11523 16.2446C8.91129 16.0367 8.57731 16.0332 8.36921 16.2372C8.16115 16.4412 8.15788 16.7753 8.36182 16.9833C8.82303 17.4537 9.32234 17.8952 9.84585 18.2956C11.2298 19.3542 12.9515 19.9371 14.6939 19.9371C15.4453 19.9371 16.0567 19.3258 16.0567 18.5744V16.7094C16.4584 16.8166 16.8217 17.0294 17.1128 17.3287L19.0639 19.3349C19.4361 19.7176 19.9558 19.9371 20.4898 19.9371H22.441C22.8532 19.9371 23.2343 19.7138 23.4357 19.3542C23.6371 18.9947 23.6285 18.553 23.4133 18.2016Z" fill="#2E4914"/>
<path d="M7.86545 14.7616L7.8596 14.7534C7.68979 14.5166 7.3603 14.4623 7.12349 14.6321C6.88674 14.8019 6.8324 15.1314 7.00216 15.3682C7.00237 15.3685 7.00554 15.3729 7.00575 15.3732L7.43674 15.069L7.00802 15.3763C7.11104 15.52 7.27294 15.5965 7.43721 15.5965C7.54356 15.5965 7.65102 15.5644 7.74412 15.4977C7.98088 15.3279 8.03521 14.9983 7.86545 14.7616Z" fill="#2E4914"/>
<path d="M11.2844 23.542H6.98504C6.69374 23.542 6.45752 23.7782 6.45752 24.0695C6.45752 24.3609 6.69374 24.597 6.98504 24.597H11.2844C11.5757 24.597 11.8119 24.3609 11.8119 24.0695C11.8119 23.7782 11.5757 23.542 11.2844 23.542Z" fill="#2E4914"/>
<path d="M13.6844 23.542H13.6782C13.3869 23.542 13.1506 23.7782 13.1506 24.0695C13.1506 24.3609 13.3869 24.597 13.6782 24.597H13.6844C13.9758 24.597 14.212 24.3609 14.212 24.0695C14.212 23.7782 13.9757 23.542 13.6844 23.542Z" fill="#2E4914"/>
<path d="M24.0049 0.120117H3.95895C2.03914 0.120117 0.477295 1.68196 0.477295 3.60178V23.6477C0.477295 25.5675 2.03914 27.1293 3.95895 27.1293H24.0049C25.9247 27.1293 27.4865 25.5675 27.4865 23.6477V3.60178C27.4865 1.68196 25.9247 0.120117 24.0049 0.120117ZM26.4315 23.6477C26.4315 24.9857 25.3429 26.0743 24.0049 26.0743H3.95895C2.62094 26.0743 1.53234 24.9857 1.53234 23.6477V3.60178C1.53234 2.26376 2.62094 1.17517 3.95895 1.17517H24.0049C25.3429 1.17517 26.4315 2.26376 26.4315 3.60178V23.6477Z" fill="#2E4914"/>
</svg>
