<svg width="27" height="26" viewBox="0 0 27 26" fill="none" xmlns="http://www.w3.org/2000/svg">
<path d="M19.6221 16.5337C19.1319 16.0221 18.5457 15.7557 17.9223 15.7557C17.3042 15.7557 16.7074 16.0221 16.2011 16.5283L14.5493 18.1802C14.4054 18.1003 14.2615 18.0257 14.1177 17.9564C13.9312 17.8658 13.7553 17.7752 13.6061 17.6793C12.0768 16.7095 10.6914 15.4466 9.36457 13.8108C8.70915 12.9795 8.26688 12.2815 7.95782 11.5728C8.38944 11.1784 8.78908 10.7735 9.17807 10.3738C9.32194 10.2299 9.46581 10.0807 9.60968 9.93688C10.1319 9.41468 10.409 8.81255 10.409 8.19976C10.409 7.58697 10.1319 6.98484 9.60968 6.46264L8.20827 5.06123C8.04841 4.90137 7.88322 4.73618 7.72869 4.57632C7.41964 4.26194 7.09992 3.93157 6.76422 3.62251C6.27399 3.13761 5.69318 2.88184 5.07506 2.88184C4.46227 2.88184 3.8708 3.13761 3.36459 3.62251C3.35926 3.62784 3.35926 3.62784 3.35393 3.63317L1.5955 5.3916C0.94541 6.04168 0.577738 6.83031 0.497809 7.74683C0.407223 8.88182 0.615038 10.0861 1.15322 11.5408C1.97915 13.7788 3.22604 15.8569 5.07506 18.0843C7.32372 20.7699 10.0253 22.8853 13.1106 24.3773C14.2882 24.9368 15.8601 25.5922 17.6185 25.7095C17.7251 25.7148 17.837 25.7201 17.9383 25.7201C19.1105 25.7201 20.0963 25.2992 20.8636 24.4626C20.869 24.4573 20.8796 24.4466 20.885 24.4413C21.1567 24.1162 21.4604 23.8178 21.7855 23.5088C22.004 23.2956 22.2331 23.0772 22.4516 22.8427C23.48 21.7717 23.4746 20.4075 22.4409 19.3738L19.6221 16.5337ZM21.5404 21.9475C21.535 21.9475 21.535 21.9475 21.5404 21.9475C21.3379 22.1606 21.1301 22.3631 20.9116 22.5763C20.5812 22.896 20.2349 23.2264 19.9258 23.5994C19.3983 24.1695 18.7695 24.4359 17.9542 24.4359C17.8743 24.4359 17.7944 24.4359 17.7145 24.4306C16.1798 24.3294 14.7518 23.7326 13.6807 23.221C10.7607 21.809 8.20294 19.8001 6.0715 17.2637C4.31307 15.1482 3.13546 13.1873 2.35748 11.0878C1.87791 9.79833 1.69674 8.79656 1.77667 7.84807C1.82995 7.23529 2.06974 6.72374 2.50668 6.2868L4.25979 4.5337C4.52089 4.28325 4.8033 4.15537 5.08039 4.15537C5.35215 4.15537 5.6239 4.28325 5.86902 4.52837C5.87435 4.5337 5.87968 4.53902 5.885 4.54435C6.19939 4.83742 6.49779 5.14115 6.81218 5.4662C6.97203 5.62605 7.13722 5.79657 7.30241 5.96176L8.70382 7.36317C9.26332 7.92267 9.26332 8.47152 8.70382 9.03102C8.55462 9.18022 8.41075 9.32942 8.26155 9.47329C7.82461 9.91556 7.41431 10.3312 6.96671 10.7308C6.95605 10.7362 6.95072 10.7468 6.94006 10.7575C6.52443 11.1731 6.58838 11.5674 6.68962 11.8658C6.69495 11.8818 6.70028 11.8925 6.70561 11.9085C7.06795 12.7877 7.57949 13.6189 8.35747 14.6047L8.36279 14.61C9.7802 16.3525 11.2669 17.7113 12.9134 18.7557C13.1212 18.8889 13.3344 18.9955 13.5422 19.0967C13.7287 19.1873 13.9045 19.2779 14.0537 19.3738C14.0697 19.3844 14.091 19.3951 14.1123 19.4058C14.2775 19.4857 14.4374 19.5283 14.5972 19.5283C15.0022 19.5283 15.258 19.2725 15.3432 19.1873L17.1017 17.4289C17.3628 17.1678 17.6452 17.0292 17.9169 17.0292C18.2526 17.0292 18.5297 17.2424 18.7002 17.4182C18.7056 17.4235 18.7056 17.4235 18.7109 17.4289L21.5457 20.2637C22.2224 20.9457 21.9134 21.5532 21.5404 21.9475Z" fill="#2E4914"/>
<path d="M15.146 5.70025C15.3165 5.70025 15.4817 5.63097 15.599 5.51375C15.7162 5.39652 15.7855 5.23133 15.7855 5.06082C15.7855 4.8903 15.7162 4.72512 15.599 4.60789C15.4817 4.49066 15.3165 4.42139 15.146 4.42139C14.9755 4.42139 14.8103 4.49066 14.6931 4.60789C14.5759 4.72512 14.5066 4.8903 14.5066 5.06082C14.5066 5.23133 14.5759 5.39652 14.6931 5.51375C14.8103 5.63097 14.9755 5.70025 15.146 5.70025Z" fill="#2E4914"/>
<path d="M17.2617 6.40865C17.4908 6.40865 17.7146 6.28076 17.8318 6.06229C17.9917 5.7479 17.8745 5.36424 17.5601 5.19906C17.2457 5.03387 16.862 5.15643 16.6969 5.47082C16.5317 5.7852 16.6542 6.16886 16.9686 6.33405C17.0645 6.38733 17.1604 6.40865 17.2617 6.40865Z" fill="#2E4914"/>
<path d="M19.5153 7.5434C19.7658 7.29295 19.7658 6.88798 19.5153 6.63754C19.2649 6.3871 18.8599 6.3871 18.6095 6.63754C18.359 6.88798 18.359 7.29295 18.6095 7.5434C18.732 7.66596 18.8972 7.7299 19.0624 7.7299C19.2276 7.7299 19.3928 7.66596 19.5153 7.5434Z" fill="#2E4914"/>
<path d="M20.0909 8.32733C19.7765 8.49252 19.654 8.87617 19.8192 9.19056C19.9311 9.40903 20.1549 9.53692 20.3893 9.53692C20.4906 9.53692 20.5918 9.5156 20.6824 9.46765C20.9968 9.30246 21.1193 8.9188 20.9542 8.60442C20.7943 8.2847 20.4053 8.16214 20.0909 8.32733Z" fill="#2E4914"/>
<path d="M20.4587 11.0125C20.4587 11.183 20.528 11.3482 20.6452 11.4654C20.7625 11.5826 20.9277 11.6519 21.0982 11.6519C21.2687 11.6519 21.4339 11.5826 21.5511 11.4654C21.6683 11.3482 21.7376 11.183 21.7376 11.0125C21.7376 10.842 21.6683 10.6768 21.5511 10.5595C21.4339 10.4423 21.2687 10.373 21.0982 10.373C20.9277 10.373 20.7625 10.4423 20.6452 10.5595C20.528 10.6768 20.4587 10.842 20.4587 11.0125Z" fill="#2E4914"/>
<path d="M14.4641 9.88274C14.917 9.95734 15.3273 10.1758 15.6577 10.5009C15.9881 10.8312 16.2012 11.2415 16.2758 11.6945C16.3291 12.0088 16.6009 12.2273 16.9046 12.2273C16.9419 12.2273 16.9739 12.222 17.0112 12.2167C17.3575 12.158 17.592 11.8277 17.5334 11.4813C17.4108 10.7673 17.0751 10.1172 16.5582 9.60032C16.0414 9.08345 15.3913 8.74775 14.6773 8.62519C14.3309 8.56658 14.0005 8.80104 13.9419 9.14739C13.878 9.49375 14.1124 9.82412 14.4641 9.88274Z" fill="#2E4914"/>
<path d="M26.1444 10.6981C25.6915 8.0285 24.4286 5.59333 22.4943 3.65906C20.56 1.72479 18.1249 0.461912 15.4553 0.00898229C15.1089 -0.0496321 14.7785 0.184825 14.7199 0.531183C14.6613 0.877541 14.8958 1.20791 15.2421 1.26653C17.6506 1.67683 19.846 2.81182 21.5938 4.55959C23.3362 6.30204 24.4766 8.49741 24.8869 10.9113C24.9401 11.2256 25.2119 11.4441 25.5156 11.4441C25.5529 11.4441 25.5849 11.4388 25.6222 11.4335C25.9686 11.3802 26.203 11.0498 26.1444 10.6981Z" fill="#2E4914"/>
</svg>
