<svg xmlns="http://www.w3.org/2000/svg" xmlns:xlink="http://www.w3.org/1999/xlink" xmlns:xodm="http://www.corel.com/coreldraw/odm/2003" xml:space="preserve" width="45.4116mm" height="31.7715mm" version="1.1" style="shape-rendering:geometricPrecision; text-rendering:geometricPrecision; image-rendering:optimizeQuality; fill-rule:evenodd; clip-rule:evenodd" viewBox="0 0 1575.13 1102.01">
 <defs>
  <style type="text/css">
   <![CDATA[
    .fil10 {fill:none;fill-rule:nonzero}
    .fil5 {fill:#2B2A29;fill-rule:nonzero}
    .fil2 {fill:#FDD114;fill-rule:nonzero}
    .fil6 {fill:#F8D212;fill-rule:nonzero}
    .fil0 {fill:#D62229;fill-rule:nonzero}
    .fil7 {fill:#CC3646;fill-rule:nonzero}
    .fil1 {fill:#C9364B;fill-rule:nonzero}
    .fil4 {fill:#BF9977;fill-rule:nonzero}
    .fil9 {fill:#008B6D;fill-rule:nonzero}
    .fil8 {fill:#0D64AD;fill-rule:nonzero}
    .fil3 {fill:#0965AC;fill-rule:nonzero}
   ]]>
  </style>
   <clipPath id="id0" style="clip-rule:nonzero">
    <path d="M1575.13 1028.69c0,40.52 -32.81,73.32 -73.29,73.32l-1428.54 0c-40.49,0 -73.29,-32.81 -73.29,-73.32l0 -955.4c0,-40.46 32.81,-73.29 73.29,-73.29l1428.54 0c40.49,0 73.29,32.83 73.29,73.29l0 955.4z"/>
   </clipPath>
 </defs>
 <g id="Слой_x0020_1">
  <metadata id="CorelCorpID_0Corel-Layer"/>
  <path class="fil0" d="M1575.13 1028.69c0,40.52 -32.81,73.32 -73.29,73.32l-1428.54 0c-40.49,0 -73.29,-32.81 -73.29,-73.32l0 -955.4c0,-40.46 32.81,-73.29 73.29,-73.29l1428.54 0c40.49,0 73.29,32.83 73.29,73.29l0 955.4z"/>
  <g style="clip-path:url(#id0)">
   <g id="_2529906099936">
    <g>
     <polygon id="1" class="fil1" points="-326.85,1106.91 1901.97,1106.91 1901.97,-7.5 -326.85,-7.5 "/>
     <polygon class="fil2" points="-326.85,1106.91 1159.03,1106.91 1159.03,-7.5 -326.85,-7.5 "/>
     <polygon class="fil3" points="-326.85,1106.91 416.09,1106.91 416.09,-7.5 -326.85,-7.5 "/>
     <polygon class="fil4" points="684.17,651.19 694.52,650.42 695.42,659.25 704.94,655.23 707.52,667.38 728.51,646.11 757.69,660.5 702.3,759.2 682.57,773.78 718.14,787.13 754.64,744.61 749.36,772.54 738.51,799.64 782.93,825.22 831.17,796.73 807.46,746.97 815.17,743.42 846.45,788.73 880.52,771.84 836.23,720.07 807.11,657.79 837.83,647.64 858.76,667.73 861.87,654.67 872.93,660.02 871.54,649.11 882.65,651.53 869.11,630.06 903.51,601.22 925.25,669.19 957.32,705.81 964.13,704.98 987.41,733.75 987.16,335.03 944.2,289.78 902.39,323.83 904.14,360.54 885.37,361.23 857.43,375.54 841.8,380.68 834.43,382.14 824.83,371.72 811.98,346 811.14,320.64 819.06,304.1 817.6,288.46 824.7,288.59 820.18,278.04 826.44,275.53 817.05,267.26 820.32,263.43 784.87,248.21 757.83,246.41 750.54,249.6 747,256.22 754.15,276.43 746.5,284.07 754.08,298.88 754.36,331.34 748.31,358.73 736.15,379.44 729.76,381.87 714.53,378.4 682.63,361.58 662.47,360.46 661.09,321.4 622.44,290.34 583.04,332.87 577.41,345.38 579.21,732.37 604.72,701.51 610.07,702.84 636.41,674.33 658.8,617.91 665.4,594.48 695.56,630.12 "/>
     <path class="fil5" d="M722.78 219.39c-3.99,0 -7.47,1.03 -9.5,2.6 3.23,0.94 5.58,3.92 5.58,7.54l0 9.2 -9.19 0c-3.6,0 -6.59,-2.32 -7.55,-5.52 -1.58,2.04 -2.6,5.52 -2.6,9.51 0,3.99 1.02,7.47 2.6,9.51 0.94,-3.23 3.92,-5.58 7.55,-5.58l9.19 0 0 44.18c0,3.47 -2.17,6.35 -5.2,7.42 4.39,0.59 8.16,6.48 9.19,9.7 1.04,-3.22 4.81,-9.11 9.2,-9.7 -3.06,-1.04 -5.27,-3.92 -5.27,-7.42l0 -44.18 9.19 0c3.6,0 6.58,2.31 7.54,5.52 1.58,-2.03 2.59,-5.52 2.59,-9.51 0,-3.99 -1.01,-7.48 -2.59,-9.51 -0.94,3.23 -3.92,5.58 -7.54,5.58l-9.19 0 0 -9.2c0,-3.59 2.31,-6.58 5.52,-7.54 -2.03,-1.58 -5.52,-2.6 -9.51,-2.6z"/>
     <path class="fil6" d="M722.78 221.3c-2.08,0 -3.9,0.39 -5.45,0.89 2.06,1.79 3.43,4.39 3.43,7.35l0 9.2 -0.07 0.38 0 1.46 -1.46 0 -0.38 0.07 -9.2 0c-2.93,0 -5.5,-1.35 -7.29,-3.36 -0.51,1.55 -0.95,3.33 -0.95,5.45 0,2.08 0.39,3.91 0.89,5.45 1.79,-2.06 4.38,-3.42 7.35,-3.42l11.09 0 -0.06 0.57 0 0.95 0.06 0.38 0 44.18c0,2.87 -1.48,5.12 -3.42,6.91 1.39,0.86 2.59,1.94 3.61,3.17 0.91,1.1 1.28,2.17 1.9,3.3 0.63,-1.13 0.99,-2.21 1.9,-3.3 1.02,-1.2 2.2,-2.25 3.56,-3.1 -1.96,-1.78 -3.43,-4.1 -3.43,-6.98l0 -46.02 1.53 0 0.38 -0.07 9.19 0c2.93,0 5.49,1.35 7.29,3.36 0.51,-1.55 0.95,-3.34 0.95,-5.45 0,-2.07 -0.39,-3.91 -0.89,-5.46 -1.79,2.06 -4.38,3.42 -7.35,3.42l-9.19 0 -0.38 -0.06 -1.46 0 0 -1.46 -0.06 -0.38 0 -9.2c0,-2.93 1.35,-5.49 3.36,-7.29 -1.56,-0.51 -3.34,-0.95 -5.45,-0.95l0 0z"/>
     <polygon class="fil7" points="662.05,692.73 649.07,692.33 635.72,698.63 631.38,713.17 633.35,719.86 647.9,735.58 659.7,728.9 669.14,718.68 671.48,709.63 705.3,665.61 703.73,654.59 696.25,659.3 693.5,650.27 688.78,651.84 "/>
     <polygon class="fil7" points="899.14,721.82 914.85,735.98 919.56,734.79 936.89,714.74 932.92,700.99 916.83,691.16 904.63,692.33 877.5,651.84 872.78,649.88 870.83,657.74 862.96,655.38 859.81,664.02 895.58,712.39 "/>
     <polygon class="fil5" points="665.44,725.47 685.5,736.41 680.63,758.74 660.57,747.8 "/>
     <path class="fil5" d="M668.27 721.88l-5.9 6.09 3.68 8.11 7.16 -3.3 -4.94 -10.91zm-96.29 -210.9l-7.23 3.3 81.64 178.82 8.69 0 -83.1 -182.12 0 -0.01z"/>
     <polygon class="fil6" points="668.33,731.8 680.77,738.59 677.76,752.43 665.31,745.64 "/>
     <polygon class="fil8" points="781.97,675.04 831.52,647.91 889.69,620.39 900.71,603.47 900.71,508.73 664.8,508.34 665.2,604.67 672.28,616.07 717.09,640.83 774.49,667.17 "/>
     <path class="fil7" d="M662.06 392.39l2.98 8.68 -0.69 110.61 4.12 4.56 34.04 4.06 36.83 -5.39c0,0 21.38,3.3 36.13,5.58l0.45 2.22c0,0 5.35,-0.82 7.03,-1.08 1.65,0.26 6.97,1.08 6.97,1.08l0.44 -2.22c14.75,-2.28 36.14,-5.58 36.14,-5.58l36.83 5.39 34.04 -4.06 4.12 -4.56 -0.7 -110.61 2.98 -8.68 -40.76 0.32c0,0 -46.58,0.46 -80.06,0.83 -33.48,-0.36 -80.12,-0.83 -80.12,-0.83l-40.76 -0.32 -0 0z"/>
     <path class="fil5" d="M739.33 514.92c0,0 -25.24,-6.17 -34.67,-18.64 -16.48,14.82 -36.19,19.97 -36.19,19.97 0,0 20.56,9.28 36.19,21.11 7.2,-10.32 34.67,-22.44 34.67,-22.44z"/>
     <path class="fil5" d="M826.49 514.92c0,0 27.47,12.12 34.68,22.44 15.63,-11.83 36.19,-21.11 36.19,-21.11 0,0 -19.72,-5.14 -36.19,-19.97 -9.43,12.46 -34.68,18.64 -34.68,18.64z"/>
     <polygon class="fil5" points="782.88,401.63 775.78,421.79 756.45,412.6 765.64,431.94 745.48,439.1 765.64,446.27 756.45,465.54 775.78,456.34 782.88,476.5 790.04,456.34 809.37,465.54 800.19,446.27 820.35,439.1 800.19,431.94 809.37,412.6 790.04,421.79 "/>
     <polygon class="fil6" points="742.53,551.81 749.5,544.29 757.27,552.08 750.05,559.31 "/>
     <polygon class="fil6" points="824,551.81 816.49,543.46 808.71,551.52 815.67,559.03 "/>
     <polygon class="fil6" points="808.15,567.37 804.55,575.43 804.26,597.67 810.11,610.17 817.89,613.51 816.78,584.32 822.06,564.03 "/>
     <polygon class="fil6" points="748.94,589.05 748.94,612.96 755.89,607.97 760.62,597.11 761.45,578.21 757.83,566.81 743.94,564.31 "/>
     <polygon class="fil6" points="845.12,618.52 844.85,604.06 857.08,587.4 871.54,584.05 855.41,576.26 839.85,579.61 831.79,589.05 830.95,604.34 842.35,617.69 "/>
     <polygon class="fil6" points="711.96,619.37 716.14,611.58 722.8,616.02 730.86,614.35 736.15,606.29 732.53,598.78 728.65,595.72 734.2,592.66 736.43,583.49 728.91,574.88 721.7,575.99 718.08,578.77 716.41,572.11 707.79,567.08 700.57,569.88 696.94,577.38 698.9,584.05 691.39,583.22 685.27,589.05 684.44,596.83 688.61,601.84 694.44,603.79 697.79,603.52 695,610.46 697.23,617.41 704.18,621.3 "/>
     <polygon class="fil2" points="782.95,415.2 787.51,428.08 799.81,422.18 793.98,434.54 806.79,439.11 793.98,443.67 799.81,455.97 787.51,450.14 782.89,462.94 778.32,450.14 766.03,455.97 771.86,443.67 759.06,439.11 771.86,434.54 766.03,422.18 778.32,428.08 "/>
     <path class="fil5" d="M742.32 398.6c-1.16,8.14 -42.15,25.08 -42.15,59.21 0,43.7 40.88,54 40.88,54l-1.71 3.11 -9.95 18.13c0,0 16.89,0.84 25.86,8.49 10.81,9.22 9.76,28.76 9.76,42.98 0,11.2 -1.42,23.02 -7.16,27.89 -7.72,6.55 -12.93,7.03 -12.93,14.71 0,6.41 4.93,7.69 12.93,11.92 10.26,5.42 9.78,12.68 25.04,12.68 15.25,0 14.84,-7.26 25.1,-12.68 8.01,-4.23 12.93,-5.51 12.93,-11.92 0,-7.68 -5.21,-8.16 -12.93,-14.71 -5.74,-4.88 -7.16,-16.69 -7.16,-27.89 0,-14.22 -1.05,-33.76 9.76,-42.98 8.97,-7.65 25.86,-8.49 25.86,-8.49l-9.95 -18.13 -1.71 -3.11c0,0 40.89,-10.3 40.89,-54 0,-34.13 -40.99,-51.06 -42.15,-59.21 -4.01,14.1 13.69,33.56 13.69,56.61 0,29.82 -22,31.25 -22,31.25 -5.14,0 -7.23,3.68 -9.25,3.68 -4.33,-0.45 -6.36,-5.96 -10.65,-5.96 -4.02,0 -7.11,6.21 -12.42,6.21 -5.32,0 -8.35,-6.21 -12.37,-6.21 -4.28,0 -6.32,5.5 -10.65,5.96 -2.02,0 -4.11,-3.68 -9.25,-3.68 0,0 -22,-1.43 -22,-31.25 0,-23.05 17.7,-42.51 13.69,-56.61l0 0z"/>
     <path class="fil2" d="M704.27 502.5c8.33,9.54 21.56,13.18 21.56,13.18l-21.18 15.72 -0.25 0.32 -0.44 -0.38 -23.45 -14.71c0,0 14.97,-5.16 23.77,-14.14l0 0.01 -0 0z"/>
     <path class="fil2" d="M736.36 410.96c1.68,3.62 -13.7,25.94 -13.7,44.24 0,22.45 11.97,35.69 27.96,35.69 3.05,0 6.38,4.12 9.26,4.12 4.68,0 7.8,-5.2 10.65,-5.2 3.63,0 6.07,5.71 12.37,5.71 6.3,0 8.8,-5.71 12.42,-5.71 2.85,0 5.96,5.2 10.65,5.2 2.87,0 6.21,-4.12 9.25,-4.12 15.98,0 27.96,-13.24 27.96,-35.69 0,-18.3 -15.38,-40.63 -13.7,-44.24 0,0 29.99,21.51 29.99,46.84 0,40.82 -41.39,50.91 -41.39,50.91l9.32 20.97c0,0 -12.83,1.93 -20.67,8.25 -10.45,8.42 -10.58,31.19 -10.58,46.59 0,18.14 0.67,25.82 7.23,30.74 6.91,5.19 12.1,6.31 12.1,11.6 0,4.61 -5.38,6.5 -12.36,9.57 -7.94,3.5 -8.73,9.57 -20.22,9.57 -11.49,0 -12.22,-6.07 -20.16,-9.57 -6.98,-3.07 -12.36,-4.96 -12.36,-9.57 0,-5.29 5.2,-6.41 12.11,-11.6 6.55,-4.92 7.23,-12.6 7.23,-30.74 0,-15.4 -0.14,-38.17 -10.58,-46.59 -7.84,-6.33 -20.66,-8.25 -20.66,-8.25l9.31 -20.97c0,0 -41.39,-10.09 -41.39,-50.91 0,-25.33 29.98,-46.84 29.98,-46.84l0 0z"/>
     <path class="fil2" d="M861.54 502.5c8.81,8.97 23.77,14.13 23.77,14.13 0,0 -15.61,7.77 -23.45,14.71 0.29,1.43 -0.39,0.33 -0.44,0.38 -0.36,0.47 -0.14,-0.17 -0.25,-0.32 -7.41,-8.51 -21.18,-15.72 -21.18,-15.72 0,0 13.23,-3.65 21.55,-13.18l0 0z"/>
     <polygon class="fil5" points="749.67,541.79 739.84,551.62 749.67,561.44 759.5,551.62 "/>
     <polygon class="fil5" points="816.17,541.79 806.34,551.62 816.17,561.44 825.99,551.62 "/>
     <polygon class="fil2" points="749.67,546.49 754.81,551.62 749.67,556.82 744.47,551.62 "/>
     <polygon class="fil2" points="816.17,546.49 821.36,551.62 816.17,556.82 811.03,551.62 "/>
     <path class="fil5" d="M740.6 561.44c1.95,4.82 6.59,19.78 6.59,37.71 0,12.41 -1.2,18.95 -1.2,18.95 0,0 13.85,-4.07 16.61,-18.13 1.29,-6.58 2.73,-30.85 -3.93,-34.99l-18.07 -3.55 -0 0z"/>
     <path class="fil5" d="M825.23 561.44l-18.07 3.55c-6.66,4.14 -5.22,28.4 -3.93,34.99 2.75,14.05 16.61,18.12 16.61,18.12 0,0 -1.21,-6.54 -1.21,-18.95 0,-17.94 4.64,-32.9 6.59,-37.72z"/>
     <path class="fil5" d="M706.95 565.38c-0.77,0.03 -1.57,0.12 -2.35,0.32 -6.23,1.56 -9.99,7.9 -8.43,14.13 0.24,0.96 0.63,1.84 1.08,2.66 -0.91,-0.31 -1.86,-0.5 -2.85,-0.57 -0.4,-0.03 -0.81,-0.01 -1.2,0 -5.89,0.2 -10.81,4.83 -11.22,10.84 -0.44,6.4 4.44,11.92 10.84,12.36 0.95,0.07 1.88,0.03 2.79,-0.12 -0.55,0.76 -1.03,1.56 -1.39,2.47 -2.4,5.96 0.51,12.82 6.47,15.22 5.96,2.4 12.75,-0.57 15.15,-6.53 0.37,-0.91 0.57,-1.79 0.7,-2.73 0.55,0.77 1.21,1.46 1.96,2.1 4.93,4.12 12.3,3.46 16.42,-1.46 4.12,-4.93 3.47,-12.24 -1.46,-16.35 -0.74,-0.63 -1.57,-1.12 -2.4,-1.52 0.89,-0.28 1.77,-0.69 2.6,-1.2 5.44,-3.41 7.09,-10.66 3.68,-16.1 -2.35,-3.75 -6.47,-5.67 -10.59,-5.39 -1.88,0.12 -3.76,0.71 -5.45,1.77 -0.83,0.52 -1.57,1.1 -2.22,1.77 0,-0.94 -0.08,-1.9 -0.32,-2.85 -1.37,-5.46 -6.38,-9.04 -11.79,-8.81z"/>
     <path class="fil2" d="M746.95 566.89l9.69 2.03c3.59,4.95 2.98,12.96 2.98,24.09 0,11.22 -8.43,15.52 -8.43,15.52 0,-26.98 -2.78,-33.47 -4.25,-41.65z"/>
     <path class="fil2" d="M818.89 566.89c-1.47,8.18 -4.25,14.67 -4.25,41.65 0,0 -8.43,-4.3 -8.43,-15.53 0,-11.13 -0.61,-19.14 2.98,-24.09l9.7 -2.03z"/>
     <path class="fil2" d="M707.64 570.26c4.2,-0.18 8.06,2.61 9.13,6.84 0.25,1.01 0.28,2 0.19,2.98 -0.08,0.81 -0.29,1.54 -0.57,2.28 -1.4,-0.51 -2.92,-0.76 -4.5,-0.76 -3.91,0 -7.41,1.72 -9.83,4.44 -0.63,-0.56 -1.18,-1.18 -1.64,-1.9 -0.52,-0.8 -0.96,-1.68 -1.21,-2.66 -1.21,-4.84 1.75,-9.75 6.59,-10.96 0.61,-0.15 1.24,-0.23 1.84,-0.25l0 0 -0 0z"/>
     <path class="fil5" d="M852.48 573.99c-14.88,0 -25.77,11.48 -24.28,25.55 1.26,11.87 10.91,21.81 22.82,24.66 -2.04,-3.33 -3.39,-7.04 -3.81,-10.97 -1.49,-14.08 9.4,-25.48 24.28,-25.48 2.34,0 4.61,0.29 6.85,0.83 -5.25,-8.61 -15.13,-14.59 -25.87,-14.59z"/>
     <path class="fil2" d="M725.77 577.23c2.91,0.09 5.69,1.6 7.35,4.24 2.66,4.24 1.38,9.84 -2.85,12.49 -0.89,0.55 -1.83,0.91 -2.79,1.14 -0.8,0.18 -1.61,0.17 -2.41,0.12l0 -0.38c0,-5.38 -3.23,-10.04 -7.86,-12.11 0.33,-0.79 0.71,-1.54 1.27,-2.21 0.59,-0.72 1.31,-1.38 2.15,-1.9 1.59,-1 3.39,-1.45 5.14,-1.39l0 0z"/>
     <path class="fil2" d="M852.48 579.26c4.65,0 9.13,1.43 13,3.81 -14.53,2.81 -24.98,15.64 -23.46,30.62 -4.63,-3.84 -8.01,-9 -8.62,-14.71 -1.18,-11.11 6.9,-19.72 19.08,-19.72z"/>
     <path class="fil2" d="M696.55 584.71c1.05,0.07 2,0.37 2.91,0.76 0.73,0.32 1.41,0.73 2.03,1.2 -1.76,2.26 -2.79,5.11 -2.79,8.18 0,2.41 0.65,4.65 1.78,6.59 -0.76,0.47 -1.57,0.86 -2.47,1.08 -0.87,0.21 -1.78,0.32 -2.72,0.25 -4.98,-0.35 -8.77,-4.65 -8.43,-9.64 0.34,-4.98 4.72,-8.77 9.7,-8.43z"/>
     <path class="fil2" d="M711.89 586.04c4.84,0 8.75,3.97 8.75,8.82 0,4.84 -3.91,8.75 -8.75,8.75 -4.84,0 -8.75,-3.91 -8.75,-8.75 0,-4.84 3.91,-8.82 8.75,-8.82z"/>
     <path class="fil2" d="M725 596.11c0.86,0.09 1.7,0.3 2.54,0.63 0.86,0.34 1.72,0.77 2.47,1.39 3.83,3.21 4.28,8.91 1.08,12.74 -3.2,3.83 -8.91,4.35 -12.74,1.14 -0.81,-0.67 -1.4,-1.48 -1.9,-2.35 -0.41,-0.68 -0.66,-1.4 -0.89,-2.15 5.1,-1.47 8.92,-5.97 9.44,-11.41z"/>
     <path class="fil2" d="M700.92 602.2c2.37,3.51 6.41,5.83 10.97,5.83 0.95,0 1.88,-0.11 2.79,-0.31 0.19,0.83 0.31,1.67 0.25,2.53 -0.06,0.94 -0.2,1.87 -0.57,2.79 -1.86,4.63 -7.16,6.87 -11.79,5.01 -4.63,-1.86 -6.94,-7.16 -5.07,-11.79 0.38,-0.94 0.9,-1.75 1.52,-2.47 0.55,-0.64 1.21,-1.14 1.9,-1.59l0 0 -0 0z"/>
     <path class="fil5" d="M767.23 623.76c-8.14,0 -13.31,1.71 -13.31,4.19 0,2.47 5.18,4.12 13.31,4.12 2.17,0 4.63,-1.27 4.63,-4.12 0,-2.87 -2.46,-4.19 -4.63,-4.19z"/>
     <path class="fil5" d="M798.6 623.76c-2.16,0 -4.62,1.32 -4.62,4.19 0,2.85 2.46,4.12 4.62,4.12 8.14,0 13.31,-1.65 13.31,-4.12 0,-2.48 -5.18,-4.19 -13.31,-4.19z"/>
     <path class="fil5" d="M903.04 731.02c-1.8,0.19 -2.93,1.25 -3.3,1.97 -0.55,1.08 -0.66,2.56 0,3.86 0,0 -4.43,-1.38 -5.96,-0.63 -1.43,0.71 0,21.61 0,21.61 0,0 17.7,-11.16 17.43,-12.73 -0.28,-1.68 -3.99,-4.5 -3.99,-4.5 1.43,-0.23 2.55,-1.13 3.1,-2.22 0.58,-1.14 0.66,-4.42 -3.36,-6.47 -1.5,-0.77 -2.84,-0.99 -3.93,-0.88zm132.29 -251.09l-14.07 10.27 1.58 3.36c0,0 -2.57,0.88 -3.74,3.17 -1.16,2.29 0.77,5.52 0.77,5.52 0,0 -13.39,-1.16 -15.47,0.19 -1.89,1.23 0.8,10.5 -0.44,18.32 -1.73,10.91 -6.04,10 -6.21,12.11 -0.17,2.06 1.64,5.27 1.64,5.27 0,0 -2.51,0.79 -3.05,1.84 -0.85,1.69 0.61,4.79 -0.44,6.84 -5.82,11.42 -14.42,28.28 -20.1,39.43 -0.79,1.56 -2.92,2.15 -3.99,4.25 -0.99,1.93 -0.19,4.75 -0.19,4.75 0,0 -3.77,0.23 -5.07,2.79 -1.38,2.72 -0.57,6.4 -0.57,6.4 0,0 -2.38,0.31 -3.55,2.6 -1.25,2.46 0.86,3.74 0.32,4.82 -7.63,14.98 -16.63,32.65 -22.12,43.42 -2.02,3.96 -9.09,4.76 -13.19,12.8 -3.98,7.81 1.72,13.57 1.72,13.57 0,0 -5.91,0.54 -7.49,3.61 -1.6,3.14 -0.33,7.9 3.94,10.08 4.26,2.17 8.92,0.41 10.52,-2.73 1.57,-3.08 -1.59,-8.18 -1.59,-8.18 0,0 8.01,1.16 11.98,-6.65 4.1,-8.05 0.65,-14.17 2.66,-18.13 5.49,-10.77 14.49,-28.44 22.12,-43.42 0.55,-1.08 2.81,-0.15 4.07,-2.6 1.17,-2.29 0,-4.38 0,-4.38 0,0 3.49,-1.52 4.88,-4.24 1.31,-2.57 -0.7,-5.77 -0.7,-5.77 0,0 2.75,-0.98 3.75,-2.92 1.06,-2.1 0.28,-4.15 1.07,-5.71 5.68,-11.15 14.28,-28.01 20.1,-39.42 1.04,-2.05 4.4,-2.75 5.25,-4.44 0.54,-1.04 -0.32,-3.54 -0.32,-3.54 0,0 3.7,-0.37 5.26,-1.71 1.61,-1.39 -1.65,-4.36 6.15,-12.17 5.59,-5.61 14.63,-8.91 14.51,-11.16 -0.13,-2.48 -8.94,-12.61 -8.94,-12.61 0,0 3.72,-0.32 4.88,-2.6 1.17,-2.29 0.38,-4.95 0.38,-4.95l3.68 -0.63 0 -17.44z"/>
     <path class="fil5" d="M908.54 720.48l0.7 0c0.53,0.03 1.03,0.2 1.46,0.57l8.69 7.54c1.12,0.98 1.12,2.71 0.06,3.94 -1.06,1.22 -2.8,1.41 -3.92,0.44l-8.63 -7.48c-1.12,-0.97 -1.19,-2.77 -0.12,-4 0.5,-0.57 1.11,-0.92 1.77,-1.01zm-251.65 0c0.88,-0.07 1.81,0.25 2.47,1.01 1.06,1.23 1,3.03 -0.12,4l-8.62 7.48c-1.13,0.97 -2.87,0.78 -3.93,-0.44 -1.06,-1.23 -1.05,-2.96 0.06,-3.94l8.69 -7.54c0.42,-0.36 0.93,-0.53 1.46,-0.57l0 0.01zm257.17 -5.71l0.7 0c0.53,0.04 1.04,0.27 1.46,0.63l8.63 7.48c1.12,0.97 1.19,2.77 0.12,4 -1.06,1.22 -2.81,1.41 -3.93,0.44l-8.68 -7.54c-1.12,-0.97 -1.19,-2.7 -0.13,-3.93 0.5,-0.58 1.16,-0.97 1.85,-1.08l-0.01 0zm-262.68 0c0.88,-0.08 1.87,0.31 2.53,1.08 1.06,1.22 1,2.96 -0.12,3.93l-8.68 7.54c-1.12,0.97 -2.87,0.78 -3.93,-0.44 -1.06,-1.23 -1,-3.02 0.12,-4l8.62 -7.48c0.42,-0.36 0.93,-0.59 1.46,-0.63zm267.57 -5.83l0.69 0c0.53,0.04 1.1,0.26 1.52,0.63l8.62 7.47c1.13,0.97 1.19,2.79 0.13,4 -1.06,1.22 -2.87,1.42 -3.99,0.44l-8.63 -7.54c-1.12,-0.97 -1.19,-2.7 -0.12,-3.94 0.49,-0.57 1.1,-0.95 1.77,-1.07l0 0.01 -0 0zm-272.45 0c0.88,-0.08 1.8,0.31 2.47,1.07 1.06,1.22 0.99,2.96 -0.12,3.93l-8.62 7.54c-1.12,0.98 -2.94,0.78 -4,-0.44 -1.06,-1.21 -1,-3.02 0.13,-3.99l8.62 -7.48c0.42,-0.37 0.99,-0.59 1.52,-0.63zm276.88 -3.11l0.82 0.26 3.55 3.11c0.46,0.4 0.51,1.14 0.06,1.65 -0.44,0.51 -1.18,0.59 -1.64,0.19l-3.55 -3.1c-0.46,-0.41 -0.51,-1.15 -0.07,-1.65l0.83 -0.44zm-280.63 0l0.83 0.44c0.43,0.51 0.4,1.25 -0.07,1.65l-3.55 3.1c-0.46,0.4 -1.21,0.32 -1.64,-0.19 -0.44,-0.51 -0.4,-1.25 0.06,-1.65l3.55 -3.1 0.83 -0.26 -0.01 0zm112.03 -47.41c0,0 -42.95,98.73 -81.08,113.92 0,0 16.59,7.04 36.95,17.62 2.98,1.54 6.04,3.2 9.13,4.88 2.56,-3.08 5.27,-6.52 7.93,-10.08 12.18,-16.3 24.09,-35.18 24.09,-35.18 0.83,4.9 -5.6,20.04 -16.48,38.73 -2.14,3.67 -4.37,7.51 -6.84,11.41 2.76,1.57 5.5,3.17 8.24,4.81 20.18,12.14 39.13,26.1 46.15,38.92 7.02,-12.82 25.97,-26.78 46.15,-38.92 2.74,-1.64 5.47,-3.24 8.24,-4.81 -2.48,-3.9 -4.71,-7.74 -6.85,-11.41 -10.87,-18.68 -17.32,-33.83 -16.48,-38.73 0,0 11.91,18.88 24.09,35.18 2.66,3.56 5.36,7 7.92,10.08 3.1,-1.69 6.16,-3.34 9.13,-4.88 20.37,-10.58 36.95,-17.62 36.95,-17.62 -38.12,-15.19 -81.07,-113.92 -81.07,-113.92l-6.34 1.83c0,0 34.26,85.32 67.76,111.13 -7.62,2.29 -16.54,5.58 -25.74,9.51 -11.18,-13.1 -22.74,-30.77 -32.14,-46.47 -10.14,-16.95 -18.44,-46.71 -18.44,-46.71 -4.71,11.42 5.32,68.8 25.55,105.1 -16.73,8.7 -31.62,18.13 -38.74,25.85 -7.12,-7.72 -22,-17.16 -38.73,-25.85 20.23,-36.31 30.25,-93.69 25.54,-105.1 0,0 -8.3,29.76 -18.45,46.71 -9.39,15.71 -20.95,33.37 -32.14,46.47 -9.2,-3.93 -18.12,-7.21 -25.73,-9.51 33.51,-25.81 67.76,-111.13 67.76,-111.13l-6.34 -1.83zm119.04 -5.2c0.69,0.43 1.54,0.67 2.47,0.88 1.42,2.19 16.08,24.8 25.11,38.73 2.19,3.39 13.06,0.75 14.45,1.02 5.78,1.11 14.04,7.23 14.83,9.44 0.46,1.28 -0.63,3.36 -1.83,3.42 -2.05,0.11 -3.91,-2.69 -10.59,-4.76 -6.13,-1.89 -10.73,0.13 -16.03,-3.8 0.27,5.12 7.22,9.01 7.22,12.6 -4.5,0 -7.1,-2.97 -7.1,-2.97 0,0 0.38,3.47 0.38,6.4 0,2.98 -3.49,4.62 -3.49,4.62 0,0 -1.99,-8.14 -4.37,-11.34 -9.57,-12.89 -28.9,-39.27 -32.26,-43.86 0.68,-3.56 1.2,-6.15 1.2,-6.15l7.86 5.39c2.24,-2.51 2.16,-9.64 2.16,-9.64l0 0zm-181.86 0c0,0 -0.08,7.12 2.16,9.64l7.87 -5.39c0,0 0.52,2.6 1.2,6.16 -3.37,4.6 -22.69,30.98 -32.26,43.86 -2.38,3.2 -4.37,11.35 -4.37,11.35 0,0 -3.49,-1.65 -3.49,-4.63 0,-2.93 0.38,-6.41 0.38,-6.41 0,0 -2.6,2.98 -7.1,2.98 0,-3.59 6.95,-7.49 7.22,-12.61 -5.3,3.93 -9.9,1.91 -16.04,3.8 -6.68,2.06 -8.54,4.87 -10.59,4.76 -1.2,-0.07 -2.3,-2.15 -1.83,-3.43 0.8,-2.21 9.06,-8.34 14.83,-9.45 1.39,-0.26 12.26,2.38 14.45,-1.01 9.03,-13.93 23.69,-36.55 25.1,-38.73 0.93,-0.22 1.79,-0.46 2.47,-0.89zm180.41 -23.71l-4.31 2.15c0,0 6.05,14.83 11.16,17.25 0,0 -5.83,0.49 -9.32,-1.84 -0.62,3.41 -1.45,8.63 -1.45,8.63 -2.78,-0.09 -7.86,-3.93 -7.86,-3.93 -1.08,2.71 -2.92,10.4 -2.92,10.4 -4.3,-2.87 -17.56,-18.32 -17.56,-18.32l-6.08 3.99c0,0 21.99,17.65 26.56,26.88 0.25,-1.52 0.49,-2.76 0.76,-4.24 4.03,5.35 21.68,28.77 30.55,41.01 2.65,3.66 2.82,7.56 5.14,10.96 4.47,6.61 9.35,9.81 14.38,14.39 2.02,1.82 7.72,0.9 9,-0.51 1.64,-1.81 12.81,-15.72 12.81,-15.72 0,0 0.81,0.68 1.27,2.6 0,0 4.25,-5.5 4.25,-9.51 0,-3.65 -1.57,-8.08 -3.67,-11.73 -2.01,-3.47 -14.2,-12.05 -19.59,-12.05 -6.49,0 -9.47,3.26 -13.69,-4.05 -4.51,-7.83 -18.91,-28.54 -20.79,-31.26 3.07,0.03 5.77,-0.31 5.77,-0.31 -4.04,-3.77 -14.39,-24.79 -14.39,-24.79zm-178.95 0c0,0 -10.35,21.02 -14.38,24.78 0,0 2.71,0.34 5.77,0.32 -1.88,2.71 -16.28,23.43 -20.79,31.26 -4.22,7.32 -7.2,4.05 -13.69,4.05 -5.38,0 -17.59,8.58 -19.58,12.05 -2.11,3.65 -3.68,8.07 -3.68,11.73 0,4.02 4.25,9.51 4.25,9.51 0.46,-1.92 1.27,-2.6 1.27,-2.6 0,0 11.17,13.9 12.81,15.72 1.28,1.42 6.99,2.33 9,0.51 5.04,-4.59 9.91,-7.78 14.39,-14.39 2.3,-3.4 2.48,-7.31 5.13,-10.96 8.87,-12.24 26.52,-35.67 30.56,-41.01 0.27,1.48 0.5,2.73 0.76,4.25 4.58,-9.23 26.56,-26.88 26.56,-26.88l-6.08 -3.99c0,0 -13.26,15.45 -17.56,18.32 0,0 -1.84,-7.69 -2.91,-10.4 0,0 -5.08,3.84 -7.86,3.93 0,0 -0.83,-5.22 -1.46,-8.63 -3.5,2.33 -9.32,1.84 -9.32,1.84 5.11,-2.42 11.15,-17.25 11.15,-17.25l-4.31 -2.15 -0.01 0zm267.76 -219.96l10.77 10.01 10.66 -9.95 0 310.47c-6.99,-4.21 -21.43,-22.65 -21.43,-30.55l0 -279.99 0 0.01zm-356.56 0l0 279.99c0,7.9 -14.44,26.34 -21.43,30.55l0 -310.47 10.65 9.95 10.77 -10.01 0 -0zm350.42 -0.06l0 289.23c0,0 -18.03,-18.22 -22.82,-23.07 0.51,-7.96 1.27,-20.16 1.27,-20.16l0 -245.95 10.78 10.01 10.77 -10.08 0 0 0 0.01zm-344.27 0l10.77 10.08 10.78 -10.01 0 245.95c0,0 0.75,12.2 1.27,20.15 -4.79,4.85 -22.82,23.07 -22.82,23.07l0 -289.25 0 0.01zm359.35 -32.9l0 29.73 -5.83 -5.45 -4.38 -4.05 0 -10.71 4.38 -4.06 5.83 -5.45zm-24.02 0l5.83 5.45 4.37 4.12 0 10.58 -4.37 4.13 -5.83 5.45 0 -29.73zm-3.68 0l0 29.73 -5.77 -5.39 -4.43 -4.19 0 -10.58 10.2 -9.57 -0 0zm-24.03 0c3.15,4.17 6.69,8.12 10.21,10.27l0 9.95 -4.37 4.12 -5.83 5.45 0 -29.79zm-270.98 0l0 29.79 -5.83 -5.45 -4.38 -4.12 0 -9.95c3.52,-2.15 7.06,-6.1 10.21,-10.27zm-24.02 0l10.2 9.57 0 10.58 -4.44 4.19 -5.76 5.39 0 -29.73zm-3.68 0l0 29.73 -5.83 -5.45 -4.37 -4.13 0 -10.58 4.37 -4.12 5.83 -5.45zm-24.03 0l5.84 5.45 4.37 4.05 0 10.71 -4.37 4.05 -5.84 5.46 0 -29.74 0 0.01zm378.06 -0.07l8.87 8.3 0 13.25 -8.87 8.3 0 -29.86zm-381.66 0l0 29.86 -8.87 -8.3 0 -13.25 8.87 -8.3zm340.14 -31.89l10.2 9.83 0 10.59 -10.2 9.51 0 -29.93zm-298.63 0l0 29.93 -10.2 -9.51 0 -10.59 10.2 -9.83zm295 -1.64l0 32.39c-6.69,-3.6 -12.9,-11.8 -15.27,-15.15 6.69,-3.27 13.74,-14.68 15.27,-17.24zm-291.39 0c1.54,2.56 8.58,13.96 15.28,17.25 -2.37,3.34 -8.58,11.54 -15.28,15.14l0 -32.39zm322.71 -2.47l10.2 10.71 0 13.82 -10.2 9.51 0 -34.04zm-354.02 0l0 34.04 -10.21 -9.51 0 -13.81 10.21 -10.71 0 -0.01zm350.42 -2.79l0 36.9 -10.21 -9.57 0 -11.79 10.21 -15.53 0 -0.01zm-346.8 0l10.2 15.54 0 11.79 -10.2 9.57 0 -36.9zm370.05 -2.4c1.91,3.59 3.05,6.86 3.05,9.57l0 28.33 -8.87 -8.24 0 -19.08 5.83 -10.58zm-393.32 0l5.83 10.58 0 19.08 -8.87 8.24 0 -28.33c0,-2.72 1.13,-5.98 3.04,-9.57l-0 0zm357 -38.23c11.72,8.55 24.19,20.51 31.89,31.13 -1.37,2.93 -6.4,13.75 -6.4,13.75 0,0 -10.03,-10.32 -12.61,-12.99l0 -3.29c0,-3.03 -1.95,-6.29 -3.8,-8.69l-3.68 1.33c1.76,2.08 3.86,5.12 3.86,7.86l0 4.05 -10.96 16.61 -9.32 -10.01 -0.63 -0.7 -1.21 -1.27 0 -1.84c0,-3.12 -1.55,-5.53 -2.98,-7.16l-3.74 1.33c1.29,1.18 3.05,3.36 3.05,6.35l0 3.17c-3.79,5.4 -11.6,15.61 -17.81,17.75l0 -23.14 0.32 -7.86c8.57,-2.98 34.04,-26.31 34.04,-26.31l0 -0.07 -0.01 0zm-320.67 0l0 0.07c0,0 25.46,23.33 34.04,26.3l0.31 7.87 0 23.14c-6.22,-2.14 -14.02,-12.35 -17.81,-17.75l0 -3.17c0,-2.99 1.76,-5.16 3.05,-6.35l-3.74 -1.33c-1.43,1.63 -2.98,4.04 -2.98,7.16l0 1.84 -1.2 1.27 -0.63 0.7 -9.32 10.01 -10.97 -16.6 0 -4.05c0,-2.74 2.1,-5.79 3.87,-7.86l-3.68 -1.33c-1.86,2.4 -3.8,5.65 -3.8,8.69l0 3.29c-2.58,2.67 -12.62,12.99 -12.62,12.99 0,0 -5.03,-10.82 -6.4,-13.75 7.68,-10.64 20.15,-22.55 31.89,-31.13l0 0.01 0 -0.01zm143.89 -48.8c1.35,0.01 2.59,0.06 3.68,0.06 14.19,0 24.17,6.47 37.59,12.42 3.52,1.56 6.75,2.83 9.63,3.81 -1.8,1.6 -3.21,3.21 -3.61,4.56 0,0 6.01,1.11 8.75,6.15 0,0 -5.73,0.65 -6.65,4 3.2,0.24 6.38,4.27 6.4,8.17l-8.11 -2.54c0,0 1.96,9.11 1.96,19.01 0,5.06 -7.29,11.02 -7.29,19.59 0,26.92 6.78,37.26 11.61,45.58 1.89,3.25 3.42,7 6.59,9.83 -13.89,-7.39 -24.21,-16.64 -24.21,-25.23l0 -32.52 -3.61 0 0 32.52c0,6.23 1.51,9.13 1.51,9.13 2.18,6.89 6.59,17.52 9.33,21.81 -12.78,-6.91 -19.27,-15.56 -19.27,-18.76l0 -44.69 -3.62 0 0 45.32 0.7 3.1c-1.54,2.33 -3.56,5.09 -4.94,6.03 -1.38,-0.94 -3.33,-3.7 -4.88,-6.03l0.69 -3.1 0 -45.32 -3.61 0 0 44.69c0,3.21 -6.49,11.86 -19.27,18.76 2.73,-4.28 7.13,-14.92 9.32,-21.81 0,0 1.52,-2.9 1.52,-9.13l0 -32.52 -3.61 0 0 32.52c0,8.58 -10.28,17.84 -24.16,25.23 3.14,-2.83 4.65,-6.59 6.53,-9.83 5.28,-9.1 11.79,-20.66 11.79,-53.56 0,-12.35 -1.83,-20.75 -5.01,-26.63 -0.96,-1.94 -2.27,-7.1 5.13,-7.1 3.83,0 12.62,6.78 12.62,6.78 0,0 -0.36,-5.41 -4.82,-8.49 -0.74,-0.51 -1.96,-2.12 -1.96,-3.62 0,-1.12 1.92,-3.88 3.42,-4.56 1.03,-0.47 -15.08,-3.27 -15.08,-10.59 0,-1.52 0.95,-2.54 4.31,-2.54 4.39,0 11.53,5.27 17.88,5.27 4.69,0 6.54,-1.14 11.35,-1.14 5.87,0 18.12,11.12 22.31,10.71 -4.68,-2.94 -12.25,-14.07 -23.7,-14.07 -3.98,0 -7.58,0.88 -11.29,0.88 -4.76,0 -9.44,-4.37 -14.58,-4.37 -3.45,0 -7.29,0.19 -7.86,-0.69 -1,-1.55 -0.1,-2.46 0.83,-3.74 1.74,-2.42 6.65,-3.13 11.47,-3.3 1.45,-0.05 2.9,-0.08 4.25,-0.07l0 0 0 0.01zm-0.32 -4c-4.43,0 -10.94,0.12 -14.77,2.67 -3.5,2.32 -3.21,5.33 -4.44,6.4 -2.89,2.5 -7.83,2.41 -10.21,2.41 -15.4,0 -15.97,16.48 -15.97,16.48 0,0 3.94,-5.96 10.9,-5.96 11.58,0 20.35,6.31 20.35,8.68 0,0.96 -1.19,1.14 -1.27,1.14 -7.56,0 -18.98,-4.36 -25.04,-4.56l0 2.41 0.26 0.19 -0.26 -0.07 0 0.44c13.54,4.71 27.26,11.38 27.26,40.76 0,18.51 -2.22,37.38 -11.47,52.23 -3.28,5.27 -7.95,9.76 -13.57,13.76 -2.5,-0.76 -14.26,-4.41 -22.51,-9 -14.51,-8.09 -22.05,-16.14 -39.3,-16.93l0 -13.12c0,-7.01 2.54,-13.33 2.54,-20.03 -7.27,-1.95 -27.46,-26.63 -46.08,-37.59 -27.4,17.75 -48.62,46.88 -48.62,60.28 0,0 0.82,287.91 0,388.2 0,5.78 -3.49,13.94 -3.49,13.94 10.01,-4.24 28.34,-29.32 32.2,-38.86l0 4.57c15.11,-6.89 26.17,-25 31.13,-34.36 0.08,1.36 0.32,4.76 0.32,4.76 13.5,-11.83 30.68,-81.77 30.68,-81.77l-0.89 -14.71c0,0 -11.88,57.1 -25.42,68.84l0 -245.89 10.71 9.95 16.23 -15.15 0 -11.54 -14.39 13.44 0 -34.8c2.17,-3.27 3.61,-5.73 4.69,-7.67 2.33,4.06 9.86,16.51 18.7,24.16 1.46,-5.91 11.03,-11.54 11.03,-11.54 0,0 3.43,9.3 8.69,11.61 1.85,-3.26 12.87,-10.46 12.87,-10.46 0,0 -9.43,1.44 -13.25,5.01 -3.28,-0.73 -4.12,-13.69 -4.12,-13.69 0,0 -13.88,6.76 -16.29,11.61 -2.65,-0.72 -6.77,-11.13 -8.37,-15.41 2.42,-0.26 5.83,-0.57 10.33,-0.57 3.96,0 9.02,1.87 14.33,4.37 5.82,2.75 11.92,6.22 17.37,8.69 6.97,3.16 17.53,3.8 20.6,3.93 -3.53,2.48 -7.4,4.74 -11.6,6.85 0,0 16.6,-0.15 28.27,-5.96 4.16,-2.67 8.48,-5.34 12.17,-8.49 -1.6,4.45 -4.1,9.71 -7.99,14.2 17.13,-1.45 25.66,-11.23 28.08,-14.52 1.13,2.94 3.16,7.67 6.34,11.73 3.18,-4.06 5.27,-8.79 6.4,-11.73 2.42,3.28 10.95,13.07 28.08,14.52 -3.89,-4.49 -6.38,-9.75 -7.98,-14.2 3.69,3.15 8.01,5.82 12.17,8.49 11.66,5.81 28.28,5.96 28.28,5.96 -4.21,-2.1 -8.14,-4.37 -11.66,-6.85 2.96,-0.11 13.63,-0.74 20.67,-3.93 5.44,-2.47 11.54,-5.94 17.37,-8.69 5.3,-2.5 10.37,-4.37 14.33,-4.37 4.5,0 7.91,0.31 10.33,0.57 -1.6,4.28 -5.72,14.69 -8.37,15.41 -2.41,-4.85 -16.29,-11.61 -16.29,-11.61 0,0 -0.84,12.96 -4.12,13.69 -3.82,-3.57 -13.25,-5.01 -13.25,-5.01 0,0 11.02,7.2 12.87,10.46 5.25,-2.3 8.62,-11.61 8.62,-11.61 0,0 9.64,5.63 11.1,11.54 8.84,-7.65 16.36,-20.09 18.7,-24.16 1.12,2.01 2.63,4.55 4.69,7.67l0 34.8 -14.39 -13.44 0 11.54 16.23 15.15 10.71 -9.95 0 245.89c-13.54,-11.74 -25.42,-68.84 -25.42,-68.84l-0.89 14.71c0,0 17.18,69.94 30.68,81.77 0,0 0.23,-3.4 0.32,-4.76 4.96,9.37 16.02,27.47 31.12,34.36l0 -4.57c3.86,9.54 22.2,34.62 32.2,38.86 0,0 -3.48,-8.16 -3.48,-13.94 -0.83,-100.29 0,-388.2 0,-388.2 0,-13.4 -21.22,-42.53 -48.62,-60.28 -18.62,10.96 -38.8,35.64 -46.08,37.59 0,6.7 2.54,13.02 2.54,20.03l0 13.06c-17.21,0.81 -24.79,8.91 -39.3,16.99 -8.3,4.63 -20.18,8.28 -22.56,9 -5.62,-3.99 -10.23,-8.49 -13.5,-13.76 -7.89,-12.66 -11.22,-28.2 -11.22,-43.99 0,-6.67 7.47,-14.19 7.47,-19.59 0,-8.16 -0.75,-13.06 -0.75,-13.06 2.65,0.36 7.28,5.07 7.28,5.07 0,0 -0.16,-13.54 -4.44,-15.91 0,0 1.73,-1.78 7.99,-1.96 -1.76,-4.46 -10.46,-9.9 -10.46,-9.9 0.43,-0.77 1.24,-1.45 2.28,-2.02 2.19,-1.21 5.26,-2.01 7.61,-2.48 -2.5,-0.52 -5.39,-1.31 -8.56,-2.34 -7.23,-2.36 -15.75,-5.81 -23.7,-9.63 -14.53,-6.97 -25.59,-7.42 -31.7,-7.42l0 0z"/>
     <path class="fil6" d="M895.8 738.75l0 14.96 12.18 -8.76c0,0 -1.65,-2.91 -5.26,-4.75 -3.62,-1.84 -6.92,-1.46 -6.92,-1.46l0 0.01zm7.23 -5.71c-0.88,0.03 -1.61,0.31 -1.9,0.89 -0.59,1.16 0.63,2.99 2.73,4.06 2.09,1.06 4.29,0.96 4.88,-0.19 0.59,-1.16 -0.63,-2.99 -2.73,-4.06 -1.05,-0.53 -2.1,-0.72 -2.98,-0.69zm24.53 -48.62c-1.73,0.05 -3.27,0.86 -3.99,2.28 -1.16,2.26 0.16,5.29 2.98,6.72 2.81,1.44 6.07,0.75 7.23,-1.52 1.16,-2.27 -0.23,-5.29 -3.04,-6.72 -1.05,-0.54 -2.13,-0.79 -3.17,-0.76zm37.21 -69.85c-1.5,0.19 -2.22,1.71 -2.22,1.71 0,0 -15.41,30.33 -20.85,41.01 -1.74,3.41 -9.05,5.54 -11.92,11.15 -2.88,5.66 -0.85,10.95 2.92,12.88 3.76,1.91 9.29,0.52 12.17,-5.13 2.86,-5.63 0.28,-12.82 2.02,-16.23 5.44,-10.68 20.86,-41.01 20.86,-41.01 0,0 1.52,-2.67 -1.21,-4.06 -0.68,-0.35 -1.27,-0.39 -1.77,-0.32zm2.09 -7.8c-1.03,0.09 -1.83,0.52 -2.22,1.27 -0.76,1.48 0.54,3.67 2.92,4.89 2.38,1.2 4.95,0.98 5.71,-0.51 0.76,-1.48 -0.54,-3.67 -2.92,-4.89 -1.19,-0.6 -2.46,-0.85 -3.49,-0.76zm4.82 -9.07c-1.71,-0.08 -3.19,0.51 -3.81,1.71 -0.98,1.92 0.55,4.68 3.42,6.15 2.88,1.47 6,1.1 6.98,-0.83 0.98,-1.92 -0.55,-4.68 -3.43,-6.16 -1.08,-0.54 -2.14,-0.83 -3.17,-0.88l0 0zm3.55 -7.29c-1.03,0.09 -1.84,0.53 -2.22,1.27 -0.76,1.49 0.54,3.67 2.92,4.88 2.37,1.21 4.95,0.99 5.7,-0.51 0.75,-1.48 -0.6,-3.67 -2.98,-4.88 -1.19,-0.6 -2.39,-0.85 -3.42,-0.76zm26.31 -50.02c-1.28,0.14 -2.21,0.96 -2.73,1.96 -0.77,1.52 -0.36,3.54 -6.47,15.54 -2.68,5.26 -3.76,7.37 -6.66,13.05 -2.94,5.79 -7.23,14.14 -7.23,14.14 0,0 -1.45,2.67 1.27,4.06 2.73,1.38 3.93,-1.39 3.93,-1.39 0,0 4.28,-8.36 7.23,-14.14 2.9,-5.68 3.98,-7.86 6.66,-13.13 6.11,-11.99 7.97,-12.81 8.74,-14.32 0.83,-1.62 0.63,-3.81 -2.09,-5.2 -1.02,-0.52 -1.9,-0.65 -2.66,-0.57zm22.94 -33.21c0,0 2.79,7.05 2.85,8.11 0.07,1.22 -10.11,8.49 -13.63,15.4 -2.98,5.87 -4.24,9.13 -4.24,9.13l4.05 0.63c0,0 -0.28,-4.17 0.7,-6.09 1.05,-2.07 1.34,-4.62 6.08,-8.37 5.04,-3.97 11.85,-7.44 11.79,-8.49 -0.05,-0.97 -7.61,-10.33 -7.61,-10.33zm-2.48 -1.01c0,0 -7.72,1.47 -8.81,2.53 -1.06,1.02 -0.59,11.47 -4.69,19.52 -3.4,6.67 -5.07,9.12 -5.07,9.12l2.09 1.09 2.09 1.01c0,0 0.97,-2.71 4.38,-9.38 4.1,-8.05 12.85,-13.88 13.05,-15.34 0.22,-1.49 -3.04,-8.55 -3.04,-8.55zm-12.81 -1.71c-1.24,0.01 -2.14,0.06 -2.34,0.19 -0.88,0.57 0.32,8.1 0.06,14.51 -0.24,6.05 -2.17,7.75 -3.23,9.83 -0.98,1.92 -4.5,4.18 -4.5,4.18l2.92 2.91c0,0 1.9,-2.96 4.88,-8.81 3.52,-6.91 3.41,-19.43 4.44,-20.09 0.89,-0.58 8.24,-2.41 8.24,-2.41 0,0 -6.74,-0.37 -10.46,-0.32l-0 0 0 0.01zm15.53 -9.7c-1.49,0.1 -2.81,0.9 -3.49,2.22 -1.07,2.11 -0.03,4.81 2.34,6.02 2.38,1.21 5.13,0.46 6.22,-1.65 1.07,-2.11 0.02,-4.81 -2.35,-6.02 -0.89,-0.45 -1.83,-0.63 -2.73,-0.57zm7.99 -9.7l-8.24 5.83 4.18 2.15 4.19 2.1 -0.13 -10.08 -0 0z"/>
     <path class="fil5" d="M597.35 651.98c0,0 6.88,14.21 12.1,16.16 -2.7,-0.73 -11.48,2.48 -11.48,2.48 0,0 15.48,13.83 28.6,14.74 11.13,0.77 16.54,-4.79 16.54,-4.79l-2.23 -11.8c0,0 -6.81,-8.22 -17.71,-12.01 -11.01,-3.83 -25.82,-4.77 -25.82,-4.77l0 -0.01z"/>
     <path class="fil5" d="M649.2 626.54c0,0 -9.5,8.13 -12.1,17.54 -2.59,9.42 1.7,20.12 1.7,20.12l7.98 14.88c0,0 11.06,-5.88 15.76,-14.68 4.7,-8.8 2.98,-20.67 2.98,-20.67 0,0 -8.75,3.25 -9.87,4.7 1.85,-9.76 -6.44,-21.89 -6.44,-21.89l0 0z"/>
     <path class="fil5" d="M618.68 622.73c0,0 -10.8,3.65 -21.29,3.02 -9.99,-0.6 -18.3,-8.99 -18.3,-8.99 0,0 8.28,-5.6 12.37,-4.86 -4.5,-1.65 -11.02,-12.91 -11.02,-12.91 0,0 9.26,-2.79 17.48,0.3 8.22,3.1 15.38,12.1 15.38,12.1l5.38 11.34z"/>
     <path class="fil5" d="M622.39 569.98c0,0 5.4,11.19 4.12,15.07 1.68,-2.59 8.02,-6.62 8.02,-6.62 0,0 3.83,18.11 0.17,29.29 -3.67,11.18 -14.83,15.44 -14.83,15.44l-12.31 -23.95c0,0 -1.83,-8.87 2,-15.89 3.84,-7.02 12.83,-13.35 12.83,-13.35z"/>
     <path class="fil5" d="M552.12 540.38c0,0 11.68,-1.22 22.35,3.2 8.93,3.71 11.66,10.45 11.66,10.45l4.4 11.78c0,0 -12.71,4.77 -22.74,1.13 -10.04,-3.65 -17.42,-15.71 -17.42,-15.71 0,0 7.02,-2.66 9.69,-1.66 -3.89,-1.72 -7.94,-9.18 -7.94,-9.18l-0 0z"/>
     <path class="fil5" d="M588.84 518.5c0,0 5.12,6.58 5.28,14.15 1.37,-4.02 7.76,-8.47 7.76,-8.47 0,0 6.58,15.91 5.13,27.21 -1.44,11.31 -10.91,17.99 -10.91,17.99l-11.8 -22.4c0,0 -3.85,-9.18 -2.72,-16.3 1.13,-7.12 7.25,-12.18 7.25,-12.18z"/>
     <path class="fil5" d="M548.41 475.66c0,0 -2.11,12.2 1.48,19.23 3.22,6.27 5.27,7.65 5.27,7.65 -6.13,-4.05 -15.41,-4.39 -15.41,-4.39 0,0 3.3,13.27 11.19,19.33 7.89,6.05 20.05,4.64 20.05,4.64 0,0 8,-10.65 7.44,-22.12 -0.55,-11.47 -9.66,-23.77 -9.66,-23.77 0,0 -3.6,7.45 -3.92,13.02 -2.32,-5.74 -16.45,-13.58 -16.45,-13.58l0 0z"/>
     <path class="fil9" d="M552 483.07c0,0 -0.32,8.91 2.64,13.97 2.95,5.06 9.54,7.08 9.54,7.08 0,0 0.32,-8.91 -2.63,-13.97 -2.96,-5.06 -9.54,-7.08 -9.54,-7.08z"/>
     <path class="fil9" d="M545.83 503.24c0,0 7.74,0.45 12.22,3.88 4.47,3.43 6.21,10.57 6.21,10.57 0,0 -5.13,0.52 -9.6,-2.9 -4.47,-3.43 -8.82,-11.55 -8.82,-11.55z"/>
     <path class="fil9" d="M570.14 485.24c0,0 -2.58,5.9 -2.28,12.27 0.29,6.37 4.01,13.54 4.01,13.54 0,0 3.36,-7.65 3.06,-14.01 -0.29,-6.38 -3.9,-10 -4.79,-11.8z"/>
     <path class="fil9" d="M557.1 542.65c0,0 3.81,5.31 9.66,8.2 5.85,2.89 14.58,3 14.58,3 0,0 -4.35,-5.65 -10.21,-8.54 -5.85,-2.89 -14.02,-2.66 -14.02,-2.66z"/>
     <path class="fil9" d="M558.98 554.98c0,0 2.79,5.48 7.9,7.83 5.11,2.34 15.57,2.15 15.57,2.15 0,0 -4.01,-5.12 -9.12,-7.47 -5.11,-2.34 -14.35,-2.51 -14.35,-2.51z"/>
     <path class="fil9" d="M588.41 525.78c0,0 -3.09,5.11 -2.78,10.73 0.3,5.63 3.99,11.78 3.99,11.78 0,0 2.6,-7.05 2.29,-12.68 -0.3,-5.63 -3.5,-9.83 -3.5,-9.83z"/>
     <path class="fil9" d="M599.8 533c0,0 -5.29,7.1 -6.05,14.39 -0.76,7.29 3.01,14.78 3.01,14.78 0,0 6.39,-6.4 7.15,-13.69 0.76,-7.3 -4.11,-15.47 -4.11,-15.47l0 -0.01z"/>
     <path class="fil9" d="M585.22 600.36c0,0 0.64,2.63 2.85,5.41 2.21,2.78 5.98,5.73 5.98,5.73 0,0 3.66,-1.17 8.19,-0.19 4.54,0.99 10.58,5.03 10.58,5.03 0,0 -6.49,-9.69 -13.25,-13.47 -6.74,-3.76 -14.35,-2.51 -14.35,-2.51l-0 0z"/>
     <path class="fil9" d="M584.55 617.03c0,0 8.41,-3.6 15.34,-2.66 6.92,0.92 13.17,6.4 13.17,6.4 0,0 -9.37,3.24 -16.29,2.31 -6.93,-0.93 -12.22,-6.05 -12.22,-6.05z"/>
     <path class="fil9" d="M620.11 577.92c0,0 -7.44,7.88 -8.07,14.72 -0.62,6.84 6.04,13.22 6.04,13.22 0,0 -0.33,-4.39 0.82,-7.28 1.14,-2.89 3.58,-5.96 3.58,-5.96 0,0 1.04,-3.52 0.63,-6.35 -0.56,-3.94 -3,-8.34 -3,-8.34z"/>
     <path class="fil9" d="M630.77 587.05c0,0 -7.01,7.1 -8.86,14.69 -1.86,7.6 1.44,15.7 1.44,15.7 0,0 6.38,-5.03 8.23,-12.63 1.86,-7.59 -0.82,-17.76 -0.82,-17.76z"/>
     <path class="fil9" d="M648.33 632.84c0,0 3.17,6.63 3.98,12.17 0.8,5.55 0.06,7.47 0.06,7.47 0,0 -3.28,3.23 -4.76,5.13 -1.89,2.43 -2.17,6.9 -2.17,6.9 0,0 -6.59,-9.8 -5.57,-16.97 1.02,-7.17 8.46,-14.7 8.46,-14.7z"/>
     <path class="fil9" d="M662.23 648.18c0,0 -8.44,5.58 -11.79,11.3 -3.35,5.71 -1.62,11.57 -1.62,11.57 0,0 6.02,-0.53 9.37,-6.25 3.35,-5.71 4.04,-16.62 4.04,-16.62z"/>
     <path class="fil9" d="M606.75 671.73c0,0 12.17,-0.34 19.61,1.5 7.44,1.82 10.14,5.82 10.14,5.82 0,0 -8.36,3.91 -15.8,2.08 -7.43,-1.83 -13.95,-9.4 -13.95,-9.4l0 0z"/>
     <path class="fil9" d="M604.69 657.29c0,0 5.49,8.51 12.59,11.6 9.78,4.26 21.11,2.2 21.11,2.2 0,0 -6.15,-7.54 -14.62,-10.87 -8.46,-3.33 -19.07,-2.92 -19.07,-2.92l0.01 0 -0.01 0z"/>
     <path class="fil5" d="M643.75 680.05l0.33 4.37c7.27,0.07 8.36,-0.65 10.22,1.64 1.24,1.53 4.2,2.86 7.17,1.51 2.97,-1.36 4.3,-4.93 2.94,-7.9 -1.35,-2.96 -4.12,-3.61 -6.78,-3.09 -1.63,0.33 -2.71,1.62 -4.09,2.34 -2.64,1.36 -9.79,1.12 -9.79,1.12z"/>
     <path class="fil5" d="M643.12 676.71l3.54 2.59c-3.8,6.21 -4.98,6.74 -4.02,9.55 0.63,1.86 0.2,5.07 -2.53,6.88 -2.72,1.8 -6.45,1.04 -8.25,-1.69 -1.8,-2.73 -0.89,-5.4 0.96,-7.38 1.14,-1.22 2.81,-1.44 4.16,-2.24 2.55,-1.51 6.14,-7.7 6.14,-7.7z"/>
     <path class="fil5" d="M618.47 624.7l0.33 4.38c7.28,0.07 8.36,-0.66 10.22,1.64 1.24,1.53 4.2,2.85 7.17,1.5 2.97,-1.36 4.3,-4.93 2.94,-7.89 -1.36,-2.98 -4.12,-3.61 -6.78,-3.09 -1.63,0.32 -2.71,1.63 -4.09,2.34 -2.64,1.37 -9.8,1.13 -9.8,1.13z"/>
     <path class="fil5" d="M619.95 626.25l3.09 3.11c-4.72,5.54 -5.97,5.89 -5.46,8.8 0.34,1.94 -0.59,5.05 -3.56,6.41 -2.97,1.35 -6.54,0.02 -7.89,-2.94 -1.36,-2.97 -0.04,-5.48 2.1,-7.15 1.32,-1.02 3,-0.98 4.45,-1.56 2.76,-1.1 7.27,-6.67 7.27,-6.67z"/>
     <path class="fil5" d="M593.99 572.88l0.33 4.38c7.27,0.06 8.36,-0.66 10.23,1.63 1.23,1.53 4.19,2.85 7.16,1.5 2.97,-1.35 4.3,-4.91 2.95,-7.89 -1.36,-2.97 -4.12,-3.62 -6.78,-3.09 -1.63,0.32 -2.71,1.63 -4.09,2.34 -2.64,1.37 -9.79,1.12 -9.79,1.12l0 0.01z"/>
     <path class="fil5" d="M596 571.97l3.1 3.11c-4.72,5.54 -5.98,5.89 -5.46,8.8 0.34,1.94 -0.59,5.04 -3.56,6.4 -2.97,1.35 -6.53,0.02 -7.89,-2.94 -1.35,-2.97 -0.03,-5.48 2.11,-7.15 1.3,-1.02 3,-0.97 4.45,-1.56 2.75,-1.1 7.26,-6.66 7.26,-6.66z"/>
     <path class="fil5" d="M567.9 518.18l0.33 4.37c7.28,0.07 8.36,-0.65 10.23,1.64 1.24,1.53 4.2,2.87 7.17,1.5 2.97,-1.35 4.3,-4.92 2.94,-7.89 -1.35,-2.98 -4.11,-3.62 -6.78,-3.09 -1.63,0.32 -2.71,1.62 -4.1,2.33 -2.63,1.37 -9.79,1.13 -9.79,1.13l0 0z"/>
     <path class="fil5" d="M569.92 517.26l3.09 3.11c-4.71,5.54 -5.97,5.89 -5.46,8.8 0.34,1.94 -0.59,5.05 -3.56,6.4 -2.97,1.35 -6.54,0.02 -7.89,-2.94 -1.36,-2.97 -0.03,-5.48 2.11,-7.15 1.31,-1.02 3,-0.99 4.45,-1.56 2.76,-1.1 7.26,-6.66 7.26,-6.66z"/>
     <path class="fil6" d="M613.86 611.73c-2.61,1.08 -6.48,-10.27 -9.31,-16.5 -2.92,-6.38 -8.83,-16.21 -7.16,-16.98 1.85,-0.84 4.28,4.32 7.26,10.86 2.98,6.53 11.65,21.6 9.21,22.61l0 0.01 0.01 0 -0.01 0z"/>
     <path class="fil6" d="M587.08 551.93c-2.61,1.08 -5.46,-6.35 -8.3,-12.57 -2.91,-6.38 -5.75,-10.89 -4.07,-11.66 1.84,-0.84 4.57,4.75 6.95,9.97 2.31,5.06 7.86,13.24 5.41,14.26l0 0z"/>
     <path class="fil6" d="M649.04 687.5c-2.05,0.55 -10.98,-18.15 -18.21,-33.98 -7.22,-15.82 -12.6,-28.62 -10.92,-29.39 1.85,-0.84 7.69,14.11 14.92,29.93 7.22,15.83 15.74,33.03 14.21,33.44l-0 0z"/>
     <path class="fil1" d="M724.08 265.76c0,0 3,-5.67 10.57,-5.67 3.17,0 13.61,-0.22 13.61,-0.22 1.39,3.62 7.74,9.67 7.74,15.95 0,0 -6.44,-11.61 -24.42,-11.61 -4.52,0 -7.5,1.55 -7.5,1.55l0 0z"/>
     <path class="fil5" d="M747.24 267.35c0,0 -4.42,-1.42 -4.42,-2.9 0,-1.89 2.14,-1.89 3.43,-0.42 0.88,1.02 0.99,3.32 0.99,3.32l0 0z"/>
     <path class="fil7" d="M753.31 278.04c0,0 -3.84,4.03 -4.67,6.18 -3.79,-1.44 -10.4,-8.25 -10.4,-8.25 0,0 5.6,3.27 15.06,2.07l0 0z"/>
     <path class="fil5" d="M772.59 267.46c0,2.76 -2.83,5.01 -6.33,5.01 -3.5,0.01 -6.33,-2.23 -6.33,-5l0 -0c0,-2.77 2.83,-5.01 6.33,-5.01 3.5,0 6.33,2.24 6.33,5.01l0 0z"/>
     <path class="fil6" d="M770.67 267.46c0,2.43 -1.97,4.41 -4.41,4.41 -2.43,0 -4.41,-1.97 -4.41,-4.41 0,-2.43 1.98,-4.41 4.41,-4.41 2.43,0 4.41,1.97 4.41,4.41z"/>
     <path class="fil5" d="M768.14 267.46c0.02,1.03 -0.79,1.89 -1.82,1.92 -1.03,0.02 -1.89,-0.79 -1.92,-1.82l0 -0.1c-0.02,-1.04 0.79,-1.89 1.82,-1.92 1.03,-0.03 1.89,0.8 1.92,1.82l0 0.1z"/>
     <path class="fil6" d="M665.29 395.49l235.18 0c0,0 -3.17,3.81 -3.17,10.08l0 195.63c0,4.27 -4.43,14.27 -29.99,27 -42.23,21.04 -74.7,30.87 -84.42,42.85 -9.73,-11.98 -42.2,-21.81 -84.44,-42.85 -25.56,-12.73 -29.99,-22.73 -29.99,-27l0 -195.63c0,-6.27 -3.17,-10.08 -3.17,-10.08l-0 0zm-13.82 -6.21c0,0 10.77,8.08 10.77,16.29l0 195.63c0,5.15 1.6,8.5 4.12,11.79 2.53,3.53 7.91,8.41 13.5,12.04 17.26,11.21 46.11,23.03 67.95,32.96 18.19,8.28 25.6,11.62 35.06,23.33 9.45,-11.71 16.92,-15.05 35.11,-23.33 21.83,-9.93 50.69,-21.75 67.96,-32.96 5.58,-3.64 10.97,-8.51 13.5,-12.04 2.53,-3.28 4.05,-6.64 4.05,-11.79l0 -195.63c0,-8.21 10.78,-16.29 10.78,-16.29l-262.81 0z"/>
    </g>
   </g>
  </g>
  <path class="fil10" d="M1575.13 1028.69c0,40.52 -32.81,73.32 -73.29,73.32l-1428.54 0c-40.49,0 -73.29,-32.81 -73.29,-73.32l0 -955.4c0,-40.46 32.81,-73.29 73.29,-73.29l1428.54 0c40.49,0 73.29,32.83 73.29,73.29l0 955.4z"/>
 </g>
</svg>