<svg width="272" height="164" viewBox="0 0 272 164" fill="none" xmlns="http://www.w3.org/2000/svg">
<g clip-path="url(#clip0)">
<path fill-rule="evenodd" clip-rule="evenodd" d="M136 1.60547C160.356 1.60547 180.1 21.37 180.1 45.7503C180.1 70.1306 160.356 89.8951 136 89.8951C111.645 89.8951 91.9004 70.1306 91.9004 45.7503C91.9004 21.37 111.645 1.60547 136 1.60547V1.60547Z" stroke="#2E4914" stroke-width="6.86029" stroke-miterlimit="22.9256" stroke-linecap="round" stroke-linejoin="round"/>
<path fill-rule="evenodd" clip-rule="evenodd" d="M136 9.90039C155.779 9.90039 171.814 25.9515 171.814 45.7505C171.814 65.5495 155.779 81.6005 136 81.6005C116.221 81.6005 100.187 65.5495 100.187 45.7505C100.187 25.9514 116.221 9.90039 136 9.90039Z" fill="#2E4914"/>
<path d="M128.369 80.7849C128.369 80.7849 131.644 80.6245 131.927 77.5943C132.211 74.5641 132.59 64.4308 131.171 63.0101C129.751 61.5897 126.251 59.6007 126.062 59.1273C125.873 58.6541 124.075 53.6347 124.075 53.6347H124.832C124.832 53.6347 127.465 58.3693 128.135 58.8435C128.805 59.317 132.211 61.1166 132.873 60.9271C133.536 60.7378 131.171 56.1917 131.171 56.1917V50.8882H131.833C131.833 50.8882 131.833 55.8126 132.306 56.2865C132.779 56.7599 134.671 60.7148 135.617 60.2052C136.563 59.6958 142.901 52.309 142.901 52.309L143.659 52.9718C143.659 52.9718 137.793 59.7678 137.982 60.2052C138.172 60.6424 145.456 60.8317 145.456 60.8317L151.132 56.5705L151.511 57.2334C151.511 57.2334 146.307 61.9684 145.645 62.1577C144.983 62.3472 138.645 62.7266 138.455 63.1994C138.266 63.6732 138.412 76.3469 138.597 77.4402C138.943 79.4863 142.499 81.0114 142.499 81.0114C141.671 81.1532 139.099 81.6349 136 81.6004C132.901 81.5658 130.95 81.3081 128.369 80.7848V80.7849Z" fill="#F2F5DB"/>
<path d="M111.638 53.9187C111.638 53.9187 113.385 58.749 118.683 57.6124C123.91 56.4914 124.988 53.3809 124.988 53.3809C124.988 53.3809 127.63 56.1273 132.405 54.9071C137.18 53.6868 138.4 50.3303 138.4 50.3303C138.4 50.3303 138.057 54.4104 142.141 56.2866C146.223 58.1617 148.967 57.0431 148.967 57.0431C148.967 57.0431 148.459 60.5794 153.844 61.7606C159.229 62.9424 163.518 57.246 162.604 52.2627C161.689 47.2789 157.705 45.3461 157.705 45.3461C157.705 45.3461 161.728 41.9447 159.391 36.7293C157.054 31.5135 151.914 32.2253 151.914 32.2253C151.914 32.2253 154.065 27.4969 150.491 23.682C146.775 19.7161 142.465 21.0761 141.143 21.3811C141.143 21.3811 139.146 15.3356 131.736 16.8673C125.21 18.2163 124.48 24.1306 125.699 26.8769C125.699 26.8769 118.562 26.3697 116.453 31.8185C113.763 38.7664 118.993 42.6 118.993 42.6C118.993 42.6 108.276 44.0699 111.638 53.9186L111.638 53.9187Z" fill="#F2F5DB" stroke="#2E4914" stroke-width="0.484123" stroke-miterlimit="10"/>
<path d="M147.996 57.3225C147.996 57.3225 146.762 60.7335 143.021 59.9311C139.329 59.1391 138.568 56.9428 138.568 56.9428C138.568 56.9428 136.702 58.8822 133.33 58.0205C129.958 57.1588 129.096 54.7878 129.096 54.7878C129.096 54.7878 129.338 57.6699 126.455 58.9946C123.571 60.3188 121.634 59.5287 121.634 59.5287C121.634 59.5287 121.993 62.0262 118.19 62.8603C114.386 63.6951 111.358 59.6721 112.003 56.1534C112.649 52.6336 115.463 51.2687 115.463 51.2687C115.463 51.2687 112.622 48.8665 114.272 45.1834C115.923 41.4998 119.553 42.0027 119.553 42.0027C119.553 42.0027 118.033 38.6629 120.558 35.9691C123.181 33.1684 126.226 34.1287 127.159 34.344C127.159 34.344 128.57 30.0745 133.803 31.156C138.411 32.1088 138.927 36.2859 138.066 38.2258C138.066 38.2258 143.106 37.8674 144.595 41.7153C146.495 46.6221 142.802 49.3294 142.802 49.3294C142.802 49.3294 150.37 50.3672 147.996 57.3225L147.996 57.3225Z" fill="#F2F5DB" stroke="#2E4914" stroke-width="2.0994" stroke-miterlimit="10"/>
<path d="M0 117.589C0 113.372 0.860247 110.264 2.58045 108.262C4.30062 106.265 6.67554 105.267 9.69858 105.267C11.0945 105.267 12.3477 105.485 13.4694 105.922C14.5853 106.365 15.5762 107.057 16.4424 107.999C17.3153 108.941 17.9822 110.221 18.4556 111.836C18.9293 113.453 19.1727 115.368 19.1849 117.583C19.1849 118.731 19.1103 119.792 18.9668 120.771C18.8173 121.751 18.624 122.612 18.3811 123.342C18.1381 124.072 17.8324 124.733 17.4774 125.326C17.1157 125.912 16.7418 126.411 16.3489 126.811C15.9627 127.216 15.5265 127.566 15.0401 127.865C14.5601 128.165 14.099 128.396 13.6627 128.57C13.2201 128.739 12.7465 128.876 12.229 128.976C11.7055 129.082 11.2444 129.15 10.8393 129.182C10.4279 129.213 9.99757 129.225 9.54907 129.225C8.9006 129.238 8.30857 129.225 7.77251 129.188C7.23647 129.15 6.62583 129.045 5.94624 128.857C5.26069 128.676 4.656 128.427 4.12628 128.108C3.59652 127.797 3.06046 127.341 2.52442 126.749C1.98836 126.162 1.53947 125.463 1.19043 124.658C0.835396 123.854 0.548647 122.849 0.330506 121.645C0.112415 120.434 0 119.087 0 117.589H0ZM7.7788 117.333C7.74136 119.136 7.81 120.547 7.98433 121.57C8.15903 122.593 8.38347 123.261 8.64499 123.567C8.91321 123.872 9.24969 124.022 9.66107 124.022C11.001 124.022 11.668 121.794 11.668 117.333C11.668 116.173 11.6183 115.187 11.5122 114.37C11.4124 113.552 11.3004 112.953 11.1695 112.573C11.0448 112.186 10.8764 111.893 10.6646 111.693C10.4527 111.493 10.2969 111.388 10.2034 111.375C10.1036 111.362 9.9664 111.362 9.7857 111.375C9.74826 111.375 9.72338 111.375 9.69856 111.375C9.54905 111.375 9.40546 111.412 9.25598 111.493C9.10016 111.568 8.93174 111.737 8.74477 111.992C8.5578 112.248 8.40198 112.579 8.26471 112.991C8.13413 113.396 8.02174 113.977 7.92196 114.726C7.82845 115.474 7.77875 116.341 7.77875 117.334L7.7788 117.333ZM20.6436 135.147C20.6436 134.005 20.6621 131.665 20.7122 128.14C20.7619 124.609 20.7868 121.351 20.7868 118.369C20.7868 115.381 20.7371 112.966 20.6436 111.113C21.3914 110.794 22.1022 110.607 22.7815 110.551C23.4671 110.495 24.0903 110.576 24.6575 110.789C25.231 111.007 25.7048 111.393 26.0913 111.949C26.4838 112.51 26.7393 113.228 26.864 114.108C27.0948 113.365 27.4249 112.723 27.8675 112.18C28.31 111.637 28.7775 111.244 29.2701 110.994C29.7624 110.745 30.205 110.564 30.5915 110.451C30.9776 110.346 31.3145 110.289 31.6072 110.289C32.2308 110.277 32.8351 110.389 33.4149 110.626C33.9948 110.863 34.5556 111.263 35.1102 111.812C35.6589 112.367 36.12 113.066 36.5003 113.908C36.8805 114.75 37.1732 115.817 37.3791 117.115C37.5846 118.413 37.6532 119.866 37.5786 121.476C37.5286 122.525 37.3854 123.498 37.1361 124.402C36.8868 125.301 36.5752 126.075 36.1886 126.711C35.8021 127.354 35.3532 127.896 34.8483 128.339C34.3434 128.782 33.8137 129.107 33.2654 129.319C32.7168 129.525 32.1496 129.619 31.5638 129.6C30.984 129.581 30.4231 129.45 29.8933 129.207C29.3636 128.963 28.8587 128.589 28.385 128.084C27.9049 127.578 27.4998 126.973 27.1634 126.262L27.1819 127.304C27.1882 128.003 27.2131 128.758 27.2505 129.581C27.288 130.405 27.3441 131.253 27.4249 132.12C27.5061 132.994 27.643 133.718 27.8241 134.298C28.0047 134.878 28.2229 135.159 28.4848 135.147C28.441 135.608 28.31 136.051 28.0919 136.463C27.8801 136.881 27.6182 137.231 27.3002 137.518C26.9823 137.798 26.6273 138.054 26.2345 138.266C25.8357 138.478 25.4306 138.616 25.0129 138.684C24.5892 138.753 24.1715 138.778 23.7538 138.765C23.3302 138.753 22.9373 138.659 22.5634 138.485C22.1957 138.31 21.8652 138.079 21.5785 137.798C21.298 137.518 21.0677 137.149 20.8992 136.694C20.7245 136.238 20.6436 135.721 20.6436 135.147ZM27.6683 122.481C27.8363 123.604 28.2292 124.265 28.8338 124.471C29.2823 124.621 29.6563 124.477 29.9619 124.053C30.13 123.822 30.2361 123.548 30.2735 123.229C30.3233 122.755 30.3607 122.269 30.3919 121.776C30.423 121.283 30.442 120.734 30.4479 120.122C30.4542 119.511 30.4294 118.956 30.3793 118.438C30.3296 117.926 30.2546 117.452 30.1552 117.015C30.0491 116.579 29.8933 116.241 29.6874 116.011C29.4819 115.78 29.2326 115.68 28.9396 115.717C28.5281 115.767 28.2165 115.998 27.9984 116.423C27.7803 116.84 27.6682 117.277 27.6682 117.726V122.481H27.6683ZM38.6567 120.204C38.6567 118.837 38.8374 117.577 39.1927 116.429C39.5544 115.274 40.0218 114.314 40.6013 113.54C41.1811 112.766 41.8481 112.111 42.6023 111.575C43.3564 111.038 44.1229 110.645 44.9023 110.402C45.6813 110.158 46.4541 110.046 47.2208 110.059C48.3178 110.071 49.3149 110.208 50.2249 110.47C51.129 110.732 51.8768 111.063 52.4626 111.462C53.0488 111.868 53.5536 112.33 53.9773 112.86C54.4013 113.39 54.7251 113.889 54.9373 114.363C55.1491 114.831 55.305 115.299 55.4047 115.78C55.5854 116.56 55.6478 117.252 55.5854 117.87C55.5231 118.488 55.4047 119.037 55.23 119.523C55.0494 120.01 54.7875 120.434 54.4447 120.784C54.0956 121.139 53.7217 121.439 53.3292 121.688C52.9363 121.938 52.4938 122.144 52.0078 122.306C51.5215 122.462 51.0355 122.581 50.5618 122.662C50.0881 122.737 49.6017 122.787 49.1031 122.805C48.6046 122.824 48.1494 122.824 47.7443 122.799C47.3329 122.774 46.9467 122.73 46.5787 122.668C46.5787 123.292 46.7783 123.779 47.1771 124.141C47.5699 124.502 48.0685 124.702 48.6732 124.746C49.2775 124.789 49.9011 124.746 50.5555 124.627C51.2036 124.502 51.8145 124.29 52.3881 123.997C52.9612 123.698 53.3789 123.36 53.6471 122.999C54.2578 123.011 54.6818 123.261 54.9184 123.747C55.1555 124.234 55.1866 124.802 55.0183 125.457C54.8498 126.106 54.526 126.674 54.0522 127.16C53.2357 127.99 52.1948 128.62 50.9357 129.038C49.6767 129.462 48.3987 129.612 47.1084 129.488C46.3918 129.413 45.6999 129.294 45.0392 129.132C44.3785 128.97 43.6369 128.67 42.8205 128.227C42.004 127.791 41.3058 127.241 40.726 126.599C40.1528 125.95 39.6602 125.076 39.2614 123.972C38.8563 122.874 38.6567 121.614 38.6567 120.204L38.6567 120.204ZM46.1799 117.745C46.1302 118.307 46.1113 118.843 46.1362 119.355C46.1613 119.866 46.2237 120.216 46.3172 120.397C46.342 120.447 46.4229 120.428 46.5665 120.353C46.7034 120.272 46.8718 120.141 47.0587 119.966C47.2457 119.792 47.4078 119.605 47.545 119.411C48.1371 118.581 48.4984 117.745 48.6231 116.903C48.754 115.905 48.3864 115.412 47.5262 115.424C47.4638 115.424 47.3952 115.43 47.327 115.443C47.0213 115.505 46.7657 115.761 46.5665 116.223C46.3669 116.678 46.2359 117.183 46.1799 117.745V117.745ZM56.8756 126.099C56.7573 125.513 56.7199 124.952 56.7636 124.415C56.807 123.885 56.9005 123.354 57.0504 122.83C57.231 122.818 57.4866 122.755 57.8167 122.656C58.141 122.549 58.5461 122.387 59.0198 122.162C59.4935 121.938 59.9424 121.595 60.3538 121.146C60.7652 120.696 61.0579 120.185 61.2326 119.611C61.2074 119.523 61.164 119.411 61.1017 119.261C61.0394 119.118 60.8898 118.85 60.6465 118.469C60.4035 118.082 60.1357 117.739 59.8426 117.433C59.5495 117.127 59.1445 116.834 58.621 116.541C58.0972 116.248 57.5363 116.061 56.9379 115.973C56.9005 115.717 56.9005 115.418 56.9379 115.075C56.9754 114.738 57.0129 114.388 57.0504 114.027C57.0874 113.665 57.1872 113.309 57.362 112.96C57.53 112.604 57.7422 112.28 57.9915 111.987C58.2408 111.693 58.5898 111.45 59.0383 111.25C59.4872 111.044 60.011 110.919 60.6094 110.876C62.1548 110.751 63.4016 111.337 64.355 112.635C65.3025 113.933 65.876 115.668 66.0693 117.839C66.4558 116.372 66.842 115.175 67.2286 114.239C67.6151 113.297 68.0202 112.586 68.4628 112.086C68.899 111.593 69.3353 111.263 69.7652 111.082C70.2019 110.907 70.719 110.813 71.33 110.801C71.7536 110.789 72.1899 110.894 72.6325 111.113C73.075 111.331 73.4927 111.643 73.8852 112.043C74.2718 112.448 74.5834 112.985 74.8141 113.658C75.0449 114.339 75.1443 115.081 75.1072 115.898C74.7455 116.036 74.2844 116.273 73.7357 116.61C73.1934 116.953 72.6139 117.408 72.0029 117.976C71.3923 118.544 71.0121 119.087 70.8562 119.611C70.8436 120.521 71.3299 121.333 72.3208 122.031C73.318 122.73 74.2343 123.099 75.0697 123.117C75.0945 123.192 75.1257 123.292 75.1505 123.423C75.1817 123.548 75.2255 123.797 75.2752 124.172C75.319 124.54 75.3438 124.902 75.3375 125.251C75.3312 125.594 75.2752 125.994 75.1632 126.437C75.0508 126.886 74.889 127.273 74.6583 127.616C74.4339 127.959 74.0974 128.277 73.6359 128.57C73.1811 128.857 72.6388 129.069 72.0029 129.188C71.2365 129.275 70.532 129.188 69.8962 128.926C69.2544 128.664 68.7306 128.271 68.3133 127.753C67.9019 127.235 67.5465 126.705 67.2471 126.156C66.9482 125.607 66.7174 125.02 66.5553 124.39C66.3872 123.766 66.2748 123.286 66.2065 122.955C66.1379 122.624 66.0941 122.356 66.0693 122.15C66.0318 122.344 65.9944 122.549 65.9509 122.761C65.9072 122.98 65.82 123.336 65.6828 123.841C65.5518 124.346 65.4023 124.814 65.2402 125.251C65.0721 125.682 64.854 126.156 64.5732 126.674C64.2927 127.192 63.9937 127.635 63.6758 127.99C63.3579 128.352 62.9713 128.651 62.5102 128.889C62.0428 129.126 61.5565 129.238 61.0456 129.225C60.1853 129.213 59.4438 129.063 58.8391 128.77C58.2281 128.477 57.7792 128.103 57.4866 127.653C57.1935 127.204 56.9879 126.686 56.8756 126.099L56.8756 126.099ZM76.4906 120.197C76.4906 118.537 76.7335 117.053 77.2199 115.742C77.7062 114.432 78.3729 113.378 79.202 112.585C80.037 111.793 80.9723 111.194 82.0005 110.782C83.0289 110.377 84.1258 110.171 85.2855 110.171C86.5383 110.171 87.6912 110.364 88.7448 110.745C89.798 111.132 90.7328 111.718 91.5556 112.504C92.3784 113.29 93.0205 114.339 93.4879 115.642C93.9491 116.947 94.1798 118.463 94.1798 120.197C94.1798 121.345 94.0551 122.393 93.8118 123.342C93.5688 124.297 93.2509 125.083 92.8647 125.713C92.4718 126.337 92.0045 126.892 91.4558 127.379C90.9075 127.859 90.3652 128.227 89.8291 128.489C89.293 128.751 88.7196 128.97 88.1026 129.132C87.4916 129.294 86.9556 129.4 86.5071 129.45C86.0519 129.5 85.6094 129.525 85.1731 129.525C84.7057 129.537 84.2568 129.525 83.8083 129.488C83.3657 129.45 82.8419 129.357 82.2498 129.207C81.6515 129.051 81.0969 128.845 80.5857 128.583C80.0745 128.321 79.5574 127.952 79.0399 127.478C78.5227 126.998 78.0802 126.443 77.7122 125.8C77.3509 125.164 77.0514 124.359 76.827 123.398C76.603 122.437 76.4906 121.37 76.4906 120.197V120.197ZM83.9329 120.235C83.9329 120.834 83.9329 121.32 83.9389 121.695C83.9452 122.075 83.9641 122.493 83.9953 122.949C84.0264 123.411 84.0761 123.772 84.1448 124.047C84.2071 124.321 84.3006 124.59 84.4063 124.845C84.5187 125.101 84.656 125.288 84.824 125.413C84.9987 125.532 85.198 125.594 85.4287 125.594C85.6595 125.594 85.8587 125.538 86.0334 125.432C86.2014 125.32 86.3387 125.139 86.4507 124.883C86.5568 124.627 86.6503 124.359 86.7126 124.084C86.7813 123.81 86.831 123.435 86.8621 122.968C86.8933 122.5 86.9122 122.075 86.9185 121.695C86.9245 121.32 86.9245 120.834 86.9245 120.235C86.9245 120.147 86.9245 120.022 86.9245 119.848C86.9245 118.912 86.9185 118.219 86.8996 117.77C86.881 117.327 86.825 116.815 86.7438 116.241C86.6566 115.674 86.5071 115.274 86.295 115.056C86.0831 114.838 85.7964 114.738 85.4287 114.763C85.2481 114.775 85.0797 114.819 84.9365 114.894C84.7929 114.962 84.6683 115.081 84.5625 115.249C84.4565 115.412 84.3692 115.574 84.3006 115.724C84.2257 115.873 84.1697 116.104 84.1259 116.41C84.0825 116.716 84.045 116.971 84.0139 117.19C83.9827 117.402 83.9641 117.714 83.9516 118.132C83.9389 118.544 83.933 118.875 83.933 119.118C83.933 119.361 83.933 119.735 83.933 120.235H83.9329ZM95.4949 110.701C95.8814 110.701 96.5232 110.657 97.4272 110.57C98.3246 110.489 99.2224 110.414 100.113 110.351C101.011 110.289 102.002 110.246 103.093 110.214C104.184 110.183 105.187 110.252 106.103 110.408C107.026 110.564 107.88 110.807 108.671 111.138C109.463 111.468 110.086 111.968 110.547 112.648C111.015 113.321 111.252 114.145 111.264 115.118C111.277 116.41 110.928 117.439 110.211 118.207C109.5 118.974 108.565 119.386 107.412 119.449C108.222 119.461 108.94 119.567 109.556 119.767C110.167 119.966 110.653 120.228 111.009 120.547C111.358 120.859 111.638 121.239 111.844 121.688C112.056 122.131 112.181 122.574 112.23 123.011C112.28 123.448 112.28 123.928 112.23 124.44C111.888 127.728 108.977 129.375 103.486 129.375C103.267 129.375 102.956 129.375 102.551 129.375C99.9951 129.363 98.3869 129.288 97.7136 129.157C96.8786 128.989 96.3299 128.602 96.0747 128.003C95.8439 127.504 95.7193 126.43 95.6945 124.789C95.6945 124.64 95.6945 124.402 95.6945 124.078C95.6818 123.567 95.6755 123.161 95.6755 122.868C95.6633 121.776 95.6692 120.216 95.6881 118.188C95.7066 116.167 95.7066 114.526 95.6881 113.259C95.6692 111.992 95.6009 111.138 95.4948 110.701L95.4949 110.701ZM102.763 114.264C102.675 114.825 102.638 115.505 102.65 116.316C102.663 117.121 102.7 117.782 102.769 118.294C103.872 118.344 104.583 117.945 104.9 117.09C105.143 116.423 105.087 115.742 104.732 115.05C104.408 114.382 103.959 114.052 103.405 114.064C103.18 114.076 102.968 114.145 102.762 114.264H102.763ZM102.968 121.663C102.881 122.231 102.843 122.905 102.856 123.672C102.869 124.44 102.906 125.083 102.968 125.594C104.171 125.75 104.944 125.426 105.287 124.608C105.555 123.984 105.511 123.323 105.15 122.63C104.788 121.938 104.289 121.576 103.641 121.551C103.423 121.539 103.199 121.576 102.968 121.663H102.968ZM113.433 121.476C113.371 119.866 113.452 118.419 113.683 117.127C113.907 115.836 114.219 114.769 114.618 113.927C115.023 113.085 115.509 112.386 116.076 111.824C116.65 111.263 117.235 110.863 117.84 110.626C118.438 110.389 119.062 110.277 119.71 110.289C119.916 110.289 120.121 110.302 120.321 110.327C120.52 110.351 120.788 110.395 121.112 110.47C121.443 110.545 121.754 110.67 122.041 110.845C122.334 111.019 122.633 111.237 122.926 111.493C123.225 111.749 123.5 112.099 123.743 112.535C123.986 112.978 124.173 113.477 124.303 114.033C124.354 113.122 124.559 112.379 124.914 111.812C125.27 111.25 125.725 110.876 126.28 110.689C126.834 110.507 127.433 110.451 128.074 110.526C128.723 110.601 129.39 110.794 130.075 111.113C130.088 112.342 130.094 113.727 130.094 115.268C130.094 116.809 130.088 118.419 130.082 120.085C130.075 121.757 130.075 122.868 130.075 123.429C130.15 124.053 130.262 124.458 130.412 124.658C130.568 124.852 130.817 124.989 131.172 125.076C131.147 125.625 131.004 126.156 130.748 126.667C130.493 127.179 130.175 127.609 129.789 127.952C129.402 128.302 128.972 128.595 128.505 128.838C128.031 129.088 127.557 129.207 127.071 129.201C126.591 129.194 126.142 129.094 125.737 128.907C125.326 128.714 124.97 128.364 124.677 127.847C124.378 127.329 124.191 126.68 124.104 125.9C123.599 127.092 122.895 128.009 121.998 128.651C121.106 129.288 120.178 129.581 119.205 129.519C118.239 129.456 117.323 129.15 116.444 128.602C115.571 128.052 114.848 127.148 114.281 125.887C113.714 124.627 113.433 123.155 113.433 121.476H113.433ZM120.688 118.475C120.639 119.342 120.626 120.16 120.651 120.933C120.676 121.707 120.726 122.474 120.801 123.229C120.875 123.841 121.137 124.24 121.592 124.434C122.072 124.646 122.508 124.496 122.901 123.997C123.175 123.629 123.356 123.123 123.456 122.481V117.726C123.456 117.277 123.344 116.84 123.126 116.423C122.901 115.998 122.583 115.767 122.166 115.717C121.736 115.668 121.393 115.898 121.144 116.41C120.888 116.922 120.739 117.614 120.688 118.475ZM132.569 125.557C132.993 125.575 133.335 125.407 133.591 125.039C133.846 124.677 133.99 124.072 134.027 123.236C134.064 122.294 134.532 121.532 135.417 120.94C136.308 120.347 137.487 119.966 138.945 119.792C137.349 119.854 136.097 119.467 135.193 118.625C134.283 117.782 133.846 116.597 133.884 115.075C133.909 114.145 134.177 113.353 134.682 112.698C135.187 112.036 135.866 111.537 136.726 111.188C137.586 110.838 138.496 110.589 139.456 110.439C140.422 110.283 141.482 110.208 142.641 110.208C143.632 110.208 144.879 110.264 146.387 110.37C147.902 110.483 148.824 110.539 149.155 110.539C149.167 111.256 149.161 112.336 149.129 113.777C149.098 115.212 149.08 116.503 149.067 117.645C149.055 118.781 149.067 119.954 149.111 121.152C149.155 122.356 149.267 123.323 149.454 124.066C149.647 124.802 149.902 125.239 150.233 125.369C150.133 126.099 149.859 126.767 149.398 127.372C148.936 127.978 148.394 128.421 147.771 128.714C147.147 129.007 146.512 129.176 145.87 129.225C145.228 129.275 144.635 129.119 144.099 128.751C143.557 128.383 143.171 127.847 142.946 127.123C142.828 126.736 142.735 126.255 142.672 125.682C142.604 125.108 142.566 124.665 142.56 124.359C142.554 124.047 142.554 123.51 142.56 122.749C142.566 121.988 142.573 121.601 142.573 121.589C141.968 121.576 141.507 121.707 141.183 121.982C140.858 122.256 140.653 122.618 140.566 123.067C140.484 123.516 140.435 124.015 140.428 124.565C140.422 125.114 140.397 125.663 140.353 126.212C140.31 126.761 140.204 127.26 140.036 127.722C139.874 128.177 139.543 128.545 139.051 128.832C138.559 129.119 137.898 129.263 137.081 129.263C135.854 129.263 134.787 128.926 133.89 128.246C132.999 127.572 132.556 126.674 132.569 125.557H132.569ZM140.484 116.847C140.702 117.626 141.251 118.064 142.136 118.163C142.267 118.176 142.404 118.182 142.535 118.182C142.597 117.67 142.635 117.022 142.648 116.241C142.66 115.461 142.622 114.788 142.535 114.214C141.806 114.045 141.226 114.288 140.79 114.944C140.391 115.543 140.291 116.179 140.484 116.847V116.847ZM158.916 121.476C158.891 119.829 159.003 118.35 159.246 117.04C159.489 115.73 159.819 114.657 160.231 113.827C160.648 113.003 161.141 112.311 161.714 111.755C162.281 111.2 162.861 110.807 163.441 110.582C164.02 110.358 164.619 110.246 165.236 110.246C165.629 110.246 166.04 110.308 166.476 110.426C166.912 110.551 167.367 110.745 167.835 111.013C168.303 111.281 168.72 111.674 169.082 112.199C169.449 112.723 169.698 113.334 169.829 114.027C169.917 112.847 170.247 111.961 170.82 111.381C171.394 110.794 172.142 110.502 173.064 110.502C173.787 110.502 174.641 110.701 175.626 111.106C175.601 111.456 175.589 111.98 175.589 112.679C175.589 113.758 175.645 115.524 175.757 117.964C175.875 120.397 175.931 122.244 175.931 123.504C175.931 126.73 175.657 129.369 175.115 131.415C175.433 131.602 175.695 131.759 175.894 131.902C176.094 132.04 176.324 132.22 176.58 132.445C176.841 132.67 177.035 132.913 177.159 133.181C177.29 133.45 177.353 133.737 177.353 134.055C177.353 134.747 176.966 135.546 176.199 136.451C175.582 135.827 174.76 135.321 173.731 134.94C172.908 136.226 171.874 137.168 170.627 137.779C169.374 138.391 168.059 138.697 166.663 138.697C164.675 138.697 163.048 138.222 161.764 137.28C160.486 136.338 159.85 135.165 159.85 133.761C159.85 132.95 160.069 132.258 160.517 131.69C160.96 131.122 161.565 130.704 162.331 130.43C163.098 130.155 163.877 129.962 164.662 129.849C165.448 129.731 166.308 129.675 167.243 129.675C167.716 129.675 168.359 129.7 169.156 129.749C169.231 129.513 169.3 129.138 169.368 128.626C169.431 128.108 169.493 127.541 169.549 126.929C169.605 126.318 169.636 125.981 169.649 125.937C169.113 127.141 168.39 128.009 167.48 128.539C166.57 129.069 165.597 129.338 164.562 129.338C163.054 129.338 161.745 128.633 160.636 127.216C159.527 125.8 158.953 123.891 158.916 121.476L158.916 121.476ZM164.562 134.323C164.562 134.604 164.662 134.822 164.855 134.978C165.049 135.134 165.261 135.215 165.498 135.215C165.847 135.215 166.246 135.047 166.7 134.704C167.149 134.367 167.523 134.017 167.829 133.655C168.134 133.287 168.303 133.031 168.34 132.869C168.277 132.882 168.072 132.907 167.729 132.938C167.38 132.963 167.049 133.006 166.731 133.056C166.42 133.1 166.083 133.169 165.728 133.262C165.379 133.356 165.093 133.487 164.88 133.674C164.669 133.855 164.562 134.073 164.562 134.323ZM166.171 120.048C166.171 120.409 166.171 120.69 166.171 120.877C166.171 121.064 166.177 121.327 166.189 121.663C166.202 122 166.221 122.256 166.246 122.443C166.27 122.624 166.302 122.843 166.345 123.099C166.389 123.354 166.439 123.554 166.507 123.698C166.576 123.835 166.651 123.972 166.744 124.115C166.838 124.253 166.944 124.359 167.075 124.415C167.199 124.477 167.349 124.509 167.517 124.509C167.847 124.509 168.146 124.34 168.421 124.003C168.695 123.672 168.876 123.161 168.976 122.481V117.72C168.976 117.258 168.857 116.809 168.614 116.372C168.371 115.929 168.028 115.711 167.592 115.711C166.644 115.711 166.171 117.159 166.171 120.048L166.171 120.048ZM178.693 120.197C178.693 118.537 178.936 117.053 179.422 115.742C179.908 114.432 180.575 113.377 181.404 112.585C182.239 111.793 183.174 111.194 184.203 110.782C185.231 110.377 186.328 110.171 187.488 110.171C188.74 110.171 189.893 110.364 190.947 110.745C192 111.132 192.935 111.718 193.758 112.504C194.58 113.29 195.223 114.339 195.69 115.642C196.151 116.947 196.382 118.463 196.382 120.197C196.382 121.345 196.257 122.393 196.014 123.342C195.771 124.297 195.453 125.083 195.067 125.713C194.674 126.337 194.206 126.892 193.658 127.379C193.11 127.859 192.567 128.227 192.031 128.489C191.495 128.751 190.922 128.97 190.305 129.132C189.694 129.294 189.158 129.4 188.709 129.45C188.254 129.5 187.811 129.525 187.375 129.525C186.908 129.537 186.459 129.525 186.01 129.488C185.568 129.45 185.044 129.357 184.452 129.207C183.854 129.051 183.299 128.845 182.788 128.583C182.277 128.321 181.759 127.952 181.242 127.478C180.725 126.998 180.282 126.443 179.914 125.8C179.553 125.164 179.254 124.359 179.029 123.398C178.805 122.437 178.693 121.37 178.693 120.197L178.693 120.197ZM186.135 120.235C186.135 120.834 186.135 121.32 186.141 121.695C186.147 122.075 186.166 122.493 186.197 122.949C186.228 123.411 186.278 123.772 186.347 124.047C186.409 124.321 186.503 124.59 186.608 124.845C186.721 125.101 186.858 125.288 187.026 125.413C187.201 125.532 187.4 125.594 187.631 125.594C187.861 125.594 188.061 125.538 188.235 125.432C188.403 125.32 188.541 125.139 188.653 124.883C188.759 124.627 188.852 124.359 188.915 124.084C188.983 123.81 189.033 123.435 189.064 122.967C189.095 122.5 189.114 122.075 189.12 121.695C189.126 121.32 189.126 120.834 189.126 120.235C189.126 120.147 189.126 120.022 189.126 119.848C189.126 118.912 189.121 118.219 189.102 117.77C189.083 117.327 189.027 116.815 188.946 116.241C188.859 115.674 188.709 115.274 188.497 115.056C188.285 114.838 187.998 114.738 187.631 114.763C187.45 114.775 187.282 114.819 187.138 114.894C186.995 114.962 186.87 115.081 186.764 115.249C186.658 115.412 186.571 115.574 186.503 115.724C186.428 115.873 186.372 116.104 186.328 116.41C186.284 116.716 186.247 116.971 186.216 117.19C186.185 117.402 186.166 117.714 186.154 118.132C186.141 118.544 186.135 118.875 186.135 119.118C186.135 119.361 186.135 119.735 186.135 120.235H186.135ZM198.956 128.458C198.264 127.947 197.784 127.273 197.516 126.443C197.248 125.613 197.286 124.671 197.622 123.61C198.015 123.61 198.358 123.523 198.657 123.342C198.956 123.167 199.193 122.911 199.38 122.581C199.561 122.25 199.71 121.901 199.835 121.532C199.953 121.164 200.047 120.734 200.097 120.247C200.153 119.754 200.19 119.323 200.215 118.943C200.24 118.563 200.265 118.144 200.284 117.683C200.302 117.221 200.321 116.89 200.346 116.678C200.383 115.711 200.57 114.85 200.913 114.089C201.256 113.328 201.692 112.716 202.222 112.248C202.746 111.787 203.381 111.4 204.111 111.094C204.846 110.788 205.588 110.576 206.342 110.458C207.09 110.339 207.888 110.283 208.729 110.283C210.275 110.283 211.709 110.533 213.024 111.038L213.697 122.905C213.709 123.61 213.759 124.141 213.853 124.49C213.946 124.839 214.052 125.064 214.17 125.157C214.295 125.257 214.495 125.344 214.775 125.413C214.688 126.667 214.27 127.609 213.516 128.239C212.756 128.87 211.889 129.188 210.911 129.188C210.306 129.188 209.783 129.069 209.352 128.832C208.929 128.602 208.586 128.296 208.33 127.928C208.081 127.56 207.875 127.06 207.726 126.437C207.57 125.806 207.464 125.182 207.414 124.558C207.364 123.941 207.333 123.18 207.32 122.287C207.32 121.919 207.314 121.227 207.308 120.216C207.302 119.205 207.302 118.475 207.302 118.013C207.302 117.552 207.314 117.009 207.345 116.385C207.37 115.761 207.414 115.268 207.476 114.913C207.003 114.95 206.61 115.125 206.298 115.43C205.981 115.736 205.756 116.092 205.607 116.497C205.463 116.903 205.363 117.408 205.301 118.02C205.239 118.637 205.214 119.167 205.226 119.61C205.239 120.06 205.258 120.584 205.282 121.183C205.307 121.782 205.32 122.175 205.32 122.362C205.32 123.41 205.263 124.315 205.158 125.07C205.045 125.825 204.852 126.53 204.572 127.197C204.291 127.859 203.88 128.364 203.325 128.707C202.771 129.051 202.085 129.225 201.256 129.225C200.42 129.225 199.654 128.97 198.956 128.458L198.956 128.458Z" fill="#464747"/>
<path d="M216.396 111.774C216.502 111.699 216.67 111.599 216.895 111.475C217.119 111.344 217.45 111.194 217.873 111.025C218.297 110.857 218.734 110.726 219.17 110.632C219.606 110.539 220.067 110.533 220.553 110.607C221.039 110.676 221.476 110.851 221.862 111.119C222.242 111.387 222.573 111.836 222.853 112.479C223.134 113.116 223.315 113.92 223.383 114.881C223.383 119.96 223.408 122.749 223.458 123.248C223.533 123.872 223.795 124.271 224.243 124.458C224.723 124.665 225.147 124.509 225.527 123.997C225.795 123.647 225.976 123.142 226.076 122.5L226.038 116.628C226.038 116.541 226.038 116.416 226.038 116.26C226.038 115.811 226.038 115.474 226.038 115.256C226.038 115.031 226.045 114.731 226.063 114.339C226.082 113.945 226.113 113.652 226.157 113.459C226.2 113.265 226.257 113.022 226.331 112.729C226.406 112.435 226.5 112.211 226.618 112.061C226.73 111.905 226.874 111.737 227.048 111.549C227.216 111.356 227.416 111.219 227.646 111.125C227.871 111.038 228.139 110.957 228.444 110.901C228.75 110.838 229.092 110.807 229.466 110.807C229.847 110.807 230.189 110.838 230.495 110.901C230.8 110.957 231.062 111.038 231.287 111.125C231.505 111.219 231.698 111.35 231.872 111.531C232.041 111.705 232.184 111.874 232.296 112.024C232.402 112.174 232.496 112.386 232.571 112.648C232.645 112.91 232.695 113.134 232.733 113.321C232.77 113.515 232.795 113.771 232.807 114.101C232.82 114.432 232.826 114.694 232.826 114.894C232.826 115.1 232.82 115.381 232.814 115.748C232.807 116.111 232.807 116.391 232.807 116.591V123.448C232.807 124.059 232.894 124.465 233.063 124.665C233.231 124.87 233.505 125.014 233.886 125.095C233.861 125.644 233.717 126.174 233.462 126.686C233.206 127.197 232.888 127.628 232.496 127.978C232.103 128.321 231.673 128.62 231.193 128.863C230.713 129.107 230.233 129.225 229.753 129.219C229.267 129.213 228.818 129.113 228.407 128.926C227.989 128.739 227.634 128.383 227.328 127.865C227.029 127.347 226.842 126.698 226.755 125.918C226.475 126.586 226.132 127.173 225.721 127.672C225.315 128.171 224.879 128.564 224.418 128.845C223.95 129.125 223.464 129.325 222.953 129.456C222.442 129.581 221.931 129.593 221.426 129.493C220.921 129.388 220.435 129.219 219.955 128.982C219.481 128.745 219.039 128.389 218.634 127.921C218.222 127.453 217.867 126.917 217.562 126.312C217.256 125.706 217.019 124.995 216.845 124.165C216.664 123.335 216.577 122.449 216.577 121.495V114.994C216.577 114.831 216.577 114.607 216.577 114.314C216.577 114.02 216.577 113.82 216.577 113.715C216.577 113.602 216.577 113.446 216.577 113.247C216.577 113.047 216.57 112.897 216.558 112.81C216.546 112.716 216.533 112.598 216.521 112.46C216.508 112.317 216.496 112.198 216.477 112.092C216.458 111.992 216.433 111.886 216.396 111.774V111.774ZM235.35 111.219C236.977 110.72 238.305 110.47 239.327 110.47C240.368 110.47 241.134 110.676 241.633 111.081C242.126 111.493 242.375 112.174 242.375 113.122C242.375 113.502 242.369 114.014 242.356 114.657C242.344 115.305 242.337 115.873 242.337 116.372C242.337 116.865 242.35 117.333 242.375 117.77C243.397 117.733 244.307 117.589 245.105 117.333C245.08 114.232 244.992 112.198 244.849 111.219C246.457 110.72 247.773 110.47 248.789 110.47C249.817 110.47 250.59 110.676 251.101 111.094C251.618 111.506 251.874 112.186 251.874 113.122V122.556C251.886 123.598 251.967 124.328 252.123 124.745C252.273 125.157 252.535 125.413 252.896 125.507C252.896 126.53 252.429 127.404 251.494 128.134C250.565 128.863 249.461 129.225 248.19 129.225C247.355 129.225 246.657 128.976 246.102 128.483C245.547 127.99 245.242 127.241 245.198 126.231L245.105 122.106C243.939 122.337 243.06 122.449 242.487 122.449C242.487 122.861 242.493 123.429 242.506 124.141C242.512 124.852 242.518 125.363 242.518 125.688C242.518 126.848 242.269 127.728 241.77 128.327C241.265 128.926 240.33 129.225 238.965 129.225C238.448 129.225 238.006 129.188 237.625 129.113C237.245 129.045 236.94 128.92 236.709 128.739C236.472 128.564 236.285 128.383 236.136 128.202C235.992 128.021 235.886 127.765 235.818 127.435C235.749 127.104 235.706 126.811 235.687 126.555C235.668 126.299 235.656 125.956 235.643 125.513C235.618 123.223 235.606 119.891 235.606 115.518C235.606 113.789 235.519 112.354 235.35 111.219V111.219ZM254.261 121.476C254.199 119.866 254.28 118.419 254.51 117.127C254.735 115.836 255.046 114.769 255.445 113.927C255.85 113.084 256.337 112.386 256.904 111.824C257.477 111.263 258.063 110.863 258.668 110.626C259.266 110.389 259.889 110.277 260.538 110.289C260.743 110.289 260.949 110.302 261.148 110.326C261.348 110.351 261.616 110.395 261.94 110.47C262.27 110.545 262.582 110.67 262.869 110.845C263.162 111.019 263.461 111.237 263.754 111.493C264.053 111.749 264.327 112.099 264.57 112.535C264.813 112.978 265.001 113.477 265.131 114.033C265.181 113.122 265.387 112.379 265.742 111.811C266.098 111.25 266.552 110.876 267.107 110.689C267.662 110.507 268.26 110.451 268.902 110.526C269.551 110.601 270.217 110.794 270.903 111.113C270.915 112.342 270.922 113.727 270.922 115.268C270.922 116.809 270.915 118.419 270.909 120.085C270.903 121.757 270.903 122.868 270.903 123.429C270.978 124.053 271.09 124.458 271.24 124.658C271.395 124.852 271.645 124.989 272 125.076C271.975 125.625 271.832 126.155 271.576 126.667C271.321 127.179 271.003 127.609 270.616 127.952C270.23 128.302 269.8 128.595 269.332 128.838C268.859 129.088 268.385 129.207 267.899 129.2C267.419 129.194 266.97 129.094 266.565 128.907C266.154 128.714 265.798 128.364 265.505 127.847C265.206 127.329 265.019 126.68 264.932 125.9C264.427 127.092 263.723 128.009 262.825 128.651C261.934 129.288 261.005 129.581 260.033 129.519C259.067 129.456 258.15 129.15 257.271 128.602C256.399 128.052 255.676 127.148 255.109 125.887C254.542 124.627 254.261 123.155 254.261 121.476H254.261ZM261.516 118.475C261.466 119.342 261.454 120.16 261.479 120.933C261.504 121.707 261.554 122.474 261.629 123.229C261.703 123.841 261.965 124.24 262.42 124.434C262.9 124.646 263.336 124.496 263.729 123.997C264.003 123.629 264.184 123.123 264.284 122.481V117.726C264.284 117.277 264.171 116.84 263.953 116.422C263.729 115.998 263.411 115.767 262.993 115.717C262.563 115.668 262.221 115.898 261.971 116.41C261.716 116.922 261.566 117.614 261.516 118.475Z" fill="#464747"/>
<path d="M26.0138 159.552C24.9988 159.976 23.9375 160.188 22.8264 160.188C21.0376 160.188 19.6621 159.651 18.7035 158.582C17.7445 157.513 17.2649 155.928 17.2649 153.833C17.2649 152.82 17.3973 151.9 17.6618 151.079C17.9263 150.258 18.3066 149.563 18.7959 148.991C19.2852 148.418 19.8806 147.974 20.578 147.667C21.2758 147.356 22.0559 147.2 22.9222 147.2C23.5109 147.2 24.0562 147.25 24.5622 147.352C25.0648 147.452 25.5475 147.607 26.0138 147.816V149.504C25.5542 149.252 25.0778 149.06 24.5885 148.928C24.0959 148.795 23.5605 148.729 22.9785 148.729C22.3835 148.729 21.8445 148.842 21.3648 149.064C20.8822 149.285 20.4722 149.609 20.1384 150.033C19.8012 150.457 19.543 150.973 19.3612 151.585C19.1794 152.194 19.09 152.893 19.09 153.674C19.09 155.316 19.4243 156.554 20.0887 157.388C20.7535 158.222 21.732 158.639 23.0182 158.639C23.5605 158.639 24.0796 158.576 24.5789 158.45C25.0778 158.324 25.5541 158.149 26.0138 157.923V159.552L26.0138 159.552ZM35.0795 160.029L35.0431 158.721C34.5142 159.244 33.9751 159.625 33.4298 159.857C32.8841 160.091 32.3087 160.207 31.7104 160.207C31.155 160.207 30.6787 160.135 30.2855 159.992C29.8919 159.85 29.5647 159.655 29.3098 159.406C29.0554 159.158 28.8669 158.867 28.7478 158.529C28.6287 158.192 28.5694 157.828 28.5694 157.434C28.5694 156.457 28.933 155.693 29.6604 155.14C30.3879 154.587 31.4592 154.31 32.8808 154.31H34.8978V153.455C34.8978 152.876 34.7126 152.416 34.3457 152.069C33.9751 151.721 33.4131 151.549 32.6593 151.549C32.1107 151.549 31.5683 151.612 31.0359 151.734C30.5036 151.86 29.9516 152.036 29.3829 152.264V150.735C29.5944 150.659 29.8325 150.583 30.0937 150.51C30.3548 150.434 30.6327 150.371 30.9202 150.311C31.211 150.255 31.5153 150.209 31.8328 150.172C32.147 150.136 32.4675 150.119 32.7884 150.119C33.3768 150.119 33.9058 150.185 34.3787 150.315C34.848 150.443 35.2483 150.639 35.5721 150.904C35.8997 151.168 36.1475 151.503 36.323 151.903C36.4981 152.304 36.5842 152.777 36.5842 153.32V160.029H35.0795L35.0795 160.029ZM34.8978 155.6H32.7588C32.3388 155.6 31.9749 155.643 31.6707 155.726C31.3698 155.809 31.1187 155.931 30.9269 156.084C30.7318 156.239 30.5897 156.424 30.4936 156.643C30.4012 156.858 30.3549 157.103 30.3549 157.374C30.3549 157.56 30.3846 157.738 30.441 157.911C30.5003 158.082 30.593 158.235 30.7218 158.367C30.8509 158.499 31.0193 158.602 31.2278 158.681C31.4329 158.758 31.6841 158.797 31.9816 158.797C32.3685 158.797 32.8148 158.678 33.3141 158.443C33.8134 158.208 34.3425 157.834 34.8978 157.325V155.6L34.8978 155.6ZM38.2468 150.298H39.9132L42.8695 154.988V150.298H44.4168V154.988L47.3727 150.298H49.0391L45.9047 154.988L49.1184 160.029H47.2766L44.4168 155.087V160.029H42.8695V155.087L40.0093 160.029H38.1679L41.3815 154.988L38.2469 150.298H38.2468ZM58.8555 154.644C58.8555 154.882 58.8522 155.084 58.8455 155.243C58.8389 155.405 58.8288 155.557 58.8159 155.7H51.9916C51.9916 156.696 52.269 157.464 52.8247 157.997C53.3801 158.529 54.1802 158.797 55.2283 158.797C55.5128 158.797 55.7969 158.788 56.0815 158.764C56.3656 158.741 56.6402 158.712 56.9047 158.672C57.1692 158.632 57.4237 158.589 57.6651 158.539C57.91 158.493 58.1315 158.44 58.3396 158.38V159.771C57.8799 159.899 57.361 160.006 56.7823 160.085C56.2073 160.168 55.6052 160.207 54.9871 160.207C54.1506 160.207 53.4332 160.095 52.8344 159.866C52.2327 159.641 51.7401 159.314 51.3565 158.883C50.97 158.453 50.6854 157.927 50.5036 157.302C50.3186 156.679 50.2258 155.971 50.2258 155.183C50.2258 154.498 50.3252 153.85 50.52 153.237C50.7184 152.628 51.0063 152.089 51.3832 151.629C51.7601 151.165 52.2231 150.798 52.7717 150.526C53.3208 150.255 53.9455 150.119 54.6433 150.119C55.321 150.119 55.9194 150.225 56.4451 150.441C56.9674 150.652 57.4074 150.953 57.7642 151.344C58.1248 151.734 58.396 152.211 58.5811 152.77C58.7629 153.327 58.8556 153.952 58.8556 154.644H58.8555ZM57.1098 154.409C57.1295 153.975 57.0864 153.578 56.984 153.22C56.8816 152.863 56.7195 152.552 56.5047 152.294C56.2862 152.036 56.0184 151.834 55.6945 151.688C55.3707 151.542 54.9967 151.47 54.5705 151.47C54.1999 151.47 53.8661 151.539 53.5619 151.682C53.2577 151.824 52.9965 152.026 52.775 152.284C52.5569 152.542 52.3781 152.853 52.2427 153.217C52.1073 153.578 52.0246 153.975 51.9916 154.409H57.1098V154.409ZM69.3662 160.029H67.6802V155.719H63.2363V160.029H61.5499V150.298H63.2363V154.25H67.6802V150.298H69.3662V160.029ZM80.6707 154.644C80.6707 154.882 80.6673 155.084 80.6607 155.243C80.654 155.405 80.644 155.557 80.631 155.7H73.8067C73.8067 156.696 74.0842 157.464 74.6399 157.997C75.1952 158.529 75.9954 158.797 77.0434 158.797C77.3279 158.797 77.6121 158.788 77.8966 158.764C78.1808 158.741 78.4553 158.712 78.7198 158.672C78.9843 158.632 79.2388 158.589 79.4803 158.539C79.7251 158.493 79.9466 158.44 80.1547 158.38V159.771C79.6951 159.899 79.1761 160.006 78.5974 160.085C78.0224 160.168 77.4203 160.207 76.8023 160.207C75.9658 160.207 75.2483 160.095 74.6496 159.866C74.0479 159.641 73.5552 159.314 73.1716 158.883C72.7851 158.453 72.5005 157.927 72.3188 157.302C72.1337 156.679 72.0409 155.971 72.0409 155.183C72.0409 154.498 72.1403 153.85 72.3351 153.237C72.5335 152.628 72.8214 152.089 73.1983 151.629C73.5752 151.165 74.0382 150.798 74.5869 150.526C75.1359 150.255 75.7606 150.119 76.4584 150.119C77.1361 150.119 77.7345 150.225 78.2601 150.441C78.7825 150.652 79.2225 150.953 79.5793 151.344C79.9399 151.734 80.2111 152.211 80.3962 152.77C80.5779 153.327 80.6707 153.952 80.6707 154.644ZM78.9249 154.409C78.9446 153.975 78.9016 153.578 78.7992 153.22C78.6968 152.863 78.5347 152.552 78.3199 152.294C78.1014 152.036 77.8335 151.834 77.5097 151.688C77.1858 151.542 76.8119 151.47 76.3857 151.47C76.0151 151.47 75.6812 151.539 75.377 151.682C75.0728 151.824 74.8116 152.026 74.5902 152.284C74.3721 152.542 74.1933 152.853 74.0579 153.217C73.9225 153.578 73.8397 153.975 73.8067 154.409H78.9249V154.409ZM92.2724 158.579L92.1766 162.511H90.6457V160.029H83.2857V150.298H84.9721V158.579H89.4159V150.298H91.102V158.579H92.2724H92.2724ZM107.68 151.748V160.029H105.974V150.298H113.016V151.748H107.68ZM124.4 154.988C124.4 155.855 124.278 156.61 124.037 157.258C123.795 157.904 123.461 158.44 123.035 158.867C122.608 159.294 122.106 159.615 121.524 159.827C120.942 160.042 120.313 160.148 119.636 160.148C119.325 160.148 119.014 160.131 118.71 160.098C118.402 160.065 118.091 160.009 117.774 159.933V164H116.088V150.298H117.589L117.698 151.926C118.181 151.258 118.696 150.791 119.245 150.523C119.794 150.255 120.39 150.119 121.028 150.119C121.583 150.119 122.072 150.235 122.492 150.47C122.912 150.702 123.263 151.03 123.547 151.453C123.831 151.877 124.046 152.386 124.189 152.985C124.331 153.585 124.4 154.25 124.4 154.988L124.4 154.988ZM122.674 155.061C122.674 154.551 122.638 154.081 122.562 153.654C122.489 153.227 122.37 152.863 122.208 152.559C122.049 152.254 121.841 152.016 121.59 151.847C121.338 151.675 121.038 151.589 120.69 151.589C120.476 151.589 120.26 151.622 120.039 151.692C119.821 151.758 119.593 151.874 119.358 152.029C119.123 152.188 118.872 152.4 118.611 152.661C118.35 152.923 118.072 153.247 117.774 153.634V158.361C118.085 158.49 118.409 158.592 118.753 158.665C119.093 158.741 119.431 158.778 119.758 158.778C120.67 158.778 121.382 158.47 121.9 157.851C122.416 157.232 122.674 156.305 122.674 155.061L122.674 155.061ZM135.209 154.644C135.209 154.882 135.205 155.084 135.199 155.243C135.192 155.405 135.182 155.557 135.169 155.7H128.345C128.345 156.696 128.622 157.464 129.178 157.997C129.733 158.529 130.533 158.797 131.581 158.797C131.866 158.797 132.15 158.788 132.434 158.764C132.719 158.741 132.993 158.712 133.258 158.672C133.522 158.632 133.777 158.589 134.018 158.539C134.263 158.493 134.484 158.44 134.693 158.38V159.771C134.233 159.899 133.714 160.006 133.135 160.085C132.56 160.168 131.958 160.207 131.34 160.207C130.504 160.207 129.786 160.095 129.187 159.866C128.586 159.641 128.093 159.314 127.71 158.884C127.323 158.453 127.038 157.927 126.857 157.302C126.672 156.679 126.579 155.971 126.579 155.183C126.579 154.498 126.678 153.85 126.873 153.237C127.071 152.628 127.359 152.089 127.736 151.629C128.113 151.165 128.576 150.798 129.125 150.526C129.674 150.255 130.298 150.119 130.996 150.119C131.674 150.119 132.272 150.225 132.798 150.441C133.32 150.652 133.76 150.953 134.117 151.344C134.478 151.734 134.749 152.211 134.934 152.77C135.116 153.327 135.209 153.952 135.209 154.644H135.209ZM133.463 154.409C133.482 153.975 133.439 153.578 133.337 153.22C133.235 152.863 133.073 152.552 132.858 152.294C132.639 152.036 132.371 151.834 132.048 151.688C131.724 151.542 131.35 151.47 130.923 151.47C130.553 151.47 130.219 151.539 129.915 151.682C129.611 151.824 129.35 152.026 129.128 152.284C128.91 152.542 128.731 152.853 128.596 153.217C128.46 153.578 128.378 153.975 128.345 154.409H133.463V154.409ZM146.81 158.579L146.714 162.511H145.184V160.029H137.824V150.298H139.51V158.579H143.954V150.298H145.64V158.579H146.81ZM157.553 160.029H155.238L150.715 154.816V160.029H149.029V150.298H150.715V154.746L155.073 150.298H157.301L152.752 154.786L157.553 160.029ZM168.189 155.087C168.189 155.842 168.083 156.537 167.868 157.166C167.657 157.798 167.349 158.338 166.949 158.788C166.549 159.234 166.06 159.585 165.488 159.833C164.912 160.082 164.258 160.207 163.53 160.207C162.833 160.207 162.208 160.098 161.656 159.883C161.104 159.665 160.634 159.347 160.25 158.927C159.867 158.506 159.573 157.987 159.367 157.364C159.166 156.745 159.063 156.03 159.063 155.223C159.063 154.465 159.169 153.773 159.384 153.151C159.596 152.526 159.903 151.989 160.303 151.539C160.703 151.092 161.193 150.742 161.765 150.493C162.34 150.245 162.995 150.119 163.722 150.119C164.42 150.119 165.045 150.229 165.597 150.444C166.149 150.662 166.618 150.976 167.002 151.393C167.386 151.81 167.68 152.33 167.885 152.952C168.087 153.571 168.189 154.283 168.189 155.087V155.087ZM166.463 155.157C166.463 154.558 166.397 154.032 166.265 153.581C166.132 153.131 165.944 152.757 165.7 152.456C165.451 152.155 165.154 151.93 164.803 151.777C164.449 151.625 164.059 151.549 163.626 151.549C163.124 151.549 162.691 151.649 162.333 151.844C161.976 152.042 161.682 152.307 161.454 152.635C161.223 152.966 161.057 153.35 160.948 153.786C160.842 154.223 160.789 154.68 160.789 155.157C160.789 155.759 160.855 156.289 160.988 156.739C161.12 157.192 161.308 157.57 161.553 157.871C161.801 158.172 162.096 158.397 162.446 158.549C162.793 158.702 163.187 158.778 163.626 158.778C164.129 158.778 164.562 158.679 164.919 158.483C165.276 158.285 165.57 158.02 165.799 157.692C166.03 157.361 166.195 156.977 166.305 156.54C166.41 156.103 166.463 155.643 166.463 155.157ZM173.125 151.748V160.029H171.419V150.298H178.462V151.748H173.125ZM190.004 155.087C190.004 155.842 189.898 156.537 189.683 157.166C189.472 157.798 189.164 158.338 188.764 158.788C188.364 159.234 187.875 159.585 187.303 159.833C186.727 160.082 186.073 160.207 185.346 160.207C184.648 160.207 184.023 160.098 183.471 159.883C182.919 159.665 182.449 159.347 182.066 158.927C181.682 158.506 181.388 157.987 181.183 157.364C180.981 156.745 180.878 156.03 180.878 155.223C180.878 154.465 180.985 153.773 181.199 153.151C181.411 152.526 181.718 151.989 182.119 151.539C182.518 151.092 183.008 150.742 183.58 150.493C184.155 150.245 184.81 150.119 185.537 150.119C186.235 150.119 186.86 150.229 187.412 150.444C187.964 150.662 188.434 150.976 188.817 151.393C189.201 151.81 189.495 152.33 189.7 152.952C189.902 153.571 190.004 154.283 190.004 155.087L190.004 155.087ZM188.278 155.157C188.278 154.558 188.212 154.032 188.08 153.581C187.948 153.131 187.759 152.757 187.515 152.456C187.266 152.155 186.969 151.93 186.618 151.777C186.264 151.625 185.875 151.549 185.441 151.549C184.939 151.549 184.506 151.649 184.148 151.844C183.792 152.042 183.497 152.307 183.269 152.635C183.038 152.966 182.872 153.35 182.763 153.786C182.658 154.223 182.604 154.68 182.604 155.157C182.604 155.759 182.671 156.289 182.803 156.739C182.935 157.192 183.124 157.57 183.368 157.871C183.616 158.172 183.911 158.397 184.261 158.549C184.608 158.702 185.002 158.778 185.441 158.778C185.944 158.778 186.377 158.679 186.734 158.483C187.091 158.285 187.386 158.02 187.614 157.692C187.845 157.361 188.01 156.977 188.12 156.54C188.225 156.103 188.278 155.643 188.278 155.157ZM211.819 155.087C211.819 155.842 211.714 156.537 211.498 157.166C211.287 157.798 210.98 158.338 210.58 158.788C210.179 159.234 209.69 159.585 209.118 159.833C208.543 160.082 207.888 160.207 207.161 160.207C206.463 160.207 205.838 160.098 205.286 159.883C204.734 159.665 204.264 159.347 203.881 158.927C203.497 158.506 203.203 157.987 202.998 157.364C202.796 156.745 202.694 156.03 202.694 155.223C202.694 154.465 202.8 153.773 203.014 153.151C203.226 152.526 203.533 151.989 203.934 151.539C204.334 151.092 204.823 150.742 205.395 150.493C205.97 150.245 206.625 150.119 207.353 150.119C208.05 150.119 208.675 150.229 209.227 150.444C209.779 150.662 210.249 150.976 210.632 151.393C211.016 151.81 211.31 152.33 211.515 152.952C211.717 153.571 211.819 154.283 211.819 155.087L211.819 155.087ZM210.093 155.157C210.093 154.558 210.027 154.032 209.895 153.581C209.763 153.131 209.574 152.757 209.33 152.456C209.082 152.155 208.784 151.93 208.434 151.777C208.08 151.625 207.69 151.549 207.256 151.549C206.754 151.549 206.321 151.649 205.964 151.844C205.607 152.042 205.312 152.307 205.084 152.635C204.853 152.966 204.687 153.35 204.578 153.786C204.473 154.223 204.42 154.68 204.42 155.157C204.42 155.759 204.486 156.289 204.618 156.739C204.75 157.192 204.939 157.57 205.184 157.871C205.431 158.172 205.726 158.397 206.076 158.549C206.423 158.702 206.817 158.778 207.256 158.778C207.759 158.778 208.192 158.679 208.549 158.483C208.907 158.285 209.201 158.02 209.429 157.692C209.66 157.361 209.825 156.977 209.935 156.54C210.041 156.103 210.093 155.643 210.093 155.157ZM222.568 154.988C222.568 155.855 222.446 156.61 222.205 157.258C221.963 157.904 221.629 158.44 221.203 158.867C220.776 159.294 220.274 159.615 219.692 159.827C219.11 160.042 218.482 160.148 217.804 160.148C217.493 160.148 217.182 160.131 216.878 160.098C216.57 160.065 216.259 160.009 215.942 159.933V164H214.256V150.298H215.757L215.866 151.926C216.349 151.258 216.865 150.791 217.414 150.523C217.962 150.255 218.558 150.119 219.196 150.119C219.751 150.119 220.24 150.235 220.66 150.47C221.08 150.702 221.431 151.03 221.715 151.453C222 151.877 222.214 152.386 222.357 152.985C222.499 153.585 222.568 154.25 222.568 154.988L222.568 154.988ZM220.842 155.061C220.842 154.551 220.806 154.081 220.73 153.654C220.657 153.227 220.538 152.863 220.376 152.559C220.217 152.254 220.009 152.016 219.758 151.847C219.507 151.675 219.206 151.589 218.859 151.589C218.644 151.589 218.429 151.622 218.207 151.692C217.989 151.758 217.761 151.874 217.526 152.029C217.291 152.188 217.04 152.4 216.779 152.661C216.518 152.923 216.24 153.247 215.942 153.634V158.361C216.253 158.49 216.577 158.592 216.921 158.665C217.261 158.741 217.599 158.778 217.926 158.778C218.838 158.778 219.55 158.47 220.069 157.851C220.584 157.232 220.842 156.305 220.842 155.061L220.842 155.061ZM233.377 154.644C233.377 154.882 233.373 155.084 233.367 155.243C233.36 155.405 233.35 155.557 233.337 155.7H226.513C226.513 156.696 226.79 157.464 227.346 157.997C227.901 158.529 228.701 158.797 229.749 158.797C230.034 158.797 230.318 158.788 230.603 158.764C230.887 158.741 231.161 158.712 231.426 158.672C231.69 158.632 231.945 158.589 232.186 158.539C232.431 158.493 232.653 158.44 232.861 158.38V159.771C232.401 159.899 231.882 160.006 231.303 160.085C230.728 160.168 230.126 160.207 229.508 160.207C228.672 160.207 227.954 160.095 227.356 159.866C226.754 159.641 226.261 159.314 225.878 158.884C225.491 158.453 225.207 157.927 225.025 157.302C224.84 156.679 224.747 155.971 224.747 155.183C224.747 154.498 224.846 153.85 225.041 153.237C225.24 152.628 225.527 152.089 225.904 151.629C226.281 151.165 226.744 150.798 227.293 150.526C227.842 150.255 228.467 150.119 229.164 150.119C229.842 150.119 230.441 150.225 230.966 150.441C231.489 150.652 231.928 150.953 232.285 151.344C232.646 151.734 232.917 152.211 233.102 152.77C233.284 153.327 233.377 153.952 233.377 154.644H233.377ZM231.631 154.409C231.651 153.975 231.608 153.578 231.505 153.22C231.403 152.863 231.241 152.552 231.026 152.294C230.807 152.036 230.539 151.834 230.216 151.688C229.892 151.542 229.518 151.47 229.092 151.47C228.721 151.47 228.387 151.539 228.083 151.682C227.779 151.824 227.518 152.026 227.296 152.284C227.078 152.542 226.899 152.853 226.764 153.217C226.628 153.578 226.546 153.975 226.513 154.409H231.631V154.409ZM244.84 160.029H242.601L239.979 156.322L237.377 160.029H235.198L238.968 155.137L235.377 150.298H237.536L240.085 154.038L242.598 150.298H244.681L241.024 155.17L244.84 160.029H244.84ZM253.231 160.029L253.195 158.721C252.666 159.244 252.127 159.625 251.581 159.857C251.036 160.091 250.46 160.207 249.862 160.207C249.306 160.207 248.83 160.135 248.437 159.992C248.043 159.85 247.716 159.655 247.461 159.406C247.207 159.158 247.018 158.867 246.899 158.529C246.78 158.192 246.721 157.828 246.721 157.434C246.721 156.457 247.084 155.693 247.812 155.14C248.539 154.587 249.611 154.31 251.032 154.31H253.049V153.456C253.049 152.876 252.864 152.416 252.497 152.069C252.127 151.721 251.565 151.549 250.811 151.549C250.262 151.549 249.72 151.612 249.187 151.734C248.655 151.86 248.103 152.036 247.534 152.264V150.735C247.746 150.659 247.984 150.583 248.245 150.51C248.506 150.434 248.784 150.371 249.072 150.311C249.362 150.255 249.667 150.209 249.984 150.172C250.298 150.136 250.619 150.119 250.94 150.119C251.528 150.119 252.057 150.185 252.53 150.315C252.999 150.444 253.4 150.639 253.724 150.904C254.051 151.168 254.299 151.503 254.474 151.903C254.649 152.304 254.736 152.777 254.736 153.32V160.029H253.231V160.029ZM253.049 155.6H250.91C250.49 155.6 250.126 155.643 249.822 155.726C249.521 155.809 249.27 155.931 249.078 156.084C248.883 156.239 248.741 156.424 248.645 156.643C248.553 156.858 248.506 157.103 248.506 157.374C248.506 157.56 248.536 157.738 248.592 157.911C248.652 158.082 248.744 158.235 248.873 158.367C249.002 158.5 249.171 158.602 249.379 158.681C249.584 158.758 249.835 158.797 250.133 158.797C250.52 158.797 250.966 158.679 251.465 158.443C251.965 158.208 252.494 157.834 253.049 157.325V155.6L253.049 155.6Z" fill="#2E4914"/>
</g>
<defs>
<clipPath id="clip0">
<rect width="272" height="164" fill="white"/>
</clipPath>
</defs>
</svg>
