<?xml version="1.0" encoding="UTF-8"?>
<!DOCTYPE svg PUBLIC "-//W3C//DTD SVG 1.1//EN" "http://www.w3.org/Graphics/SVG/1.1/DTD/svg11.dtd">
<!-- Creator: CorelDRAW 2019 (64-Bit) -->
<svg xmlns="http://www.w3.org/2000/svg" xml:space="preserve" width="24.6402mm" height="24.6402mm" version="1.1" style="shape-rendering:geometricPrecision; text-rendering:geometricPrecision; image-rendering:optimizeQuality; fill-rule:evenodd; clip-rule:evenodd"
viewBox="0 0 524.44 524.44"
 xmlns:xlink="http://www.w3.org/1999/xlink"
 xmlns:xodm="http://www.corel.com/coreldraw/odm/2003">
 <defs>
  <style type="text/css">
   <![CDATA[
    .str2 {stroke:#2E4914;stroke-width:5.63;stroke-miterlimit:10}
    .str1 {stroke:#2E4914;stroke-width:1.3;stroke-miterlimit:10}
    .str0 {stroke:#2E4914;stroke-width:18.4;stroke-linecap:round;stroke-linejoin:round;stroke-miterlimit:22.9256}
    .fil0 {fill:none}
    .fil1 {fill:#2E4914}
    .fil2 {fill:#F2F5DB;fill-rule:nonzero}
   ]]>
  </style>
 </defs>
 <g id="Слой_x0020_1">
  <metadata id="CorelCorpID_0Corel-Layer"/>
  <g id="_2344295875088">
   <circle class="fil0 str0" cx="262.22" cy="262.22" r="253.02"/>
   <circle class="fil1" cx="262.22" cy="262.22" r="205.48"/>
   <path class="fil2" d="M218.44 463.02c0,0 18.79,-0.92 20.42,-18.29 1.63,-17.37 3.8,-75.45 -4.34,-83.59 -8.14,-8.14 -28.23,-19.54 -29.31,-22.25 -1.08,-2.71 -11.4,-31.48 -11.4,-31.48l4.34 0c0,0 15.11,27.14 18.95,29.85 3.84,2.71 23.38,13.03 27.18,11.94 3.8,-1.09 -9.77,-27.14 -9.77,-27.14l0 -30.4 3.8 0c0,0 0,28.22 2.71,30.94 2.71,2.71 13.57,25.38 19,22.46 5.43,-2.92 41.79,-45.26 41.79,-45.26l4.34 3.8c0,0 -33.65,38.95 -32.57,41.46 1.09,2.51 42.88,3.59 42.88,3.59l32.57 -24.42 2.17 3.8c0,0 -29.86,27.14 -33.65,28.22 -3.8,1.09 -40.17,3.26 -41.25,5.97 -1.09,2.72 -0.25,75.36 0.81,81.62 1.99,11.73 22.39,20.47 22.39,20.47 -4.75,0.81 -19.51,3.57 -37.29,3.38 -17.78,-0.2 -28.98,-1.68 -43.78,-4.67z"/>
   <path class="fil2 str1" d="M122.44 309.03c0,0 10.02,27.69 40.42,21.17 29.99,-6.43 36.17,-24.25 36.17,-24.25 0,0 15.16,15.74 42.55,8.75 27.4,-6.99 34.39,-26.23 34.39,-26.23 0,0 -1.96,23.38 21.46,34.14 23.42,10.75 39.16,4.34 39.16,4.34 0,0 -2.91,20.27 27.98,27.04 30.9,6.77 55.5,-25.88 50.26,-54.44 -5.25,-28.57 -28.1,-39.64 -28.1,-39.64 0,0 23.08,-19.5 9.67,-49.39 -13.41,-29.9 -42.9,-25.82 -42.9,-25.82 0,0 12.34,-27.1 -8.16,-48.97 -21.32,-22.73 -46.05,-14.94 -53.63,-13.19 0,0 -11.46,-34.65 -53.97,-25.87 -37.44,7.73 -41.63,41.63 -34.64,57.37 0,0 -40.95,-2.91 -53.05,28.32 -15.43,39.82 14.57,61.79 14.57,61.79 0,0 -61.49,8.42 -42.2,64.87z"/>
   <path class="fil2 str2" d="M331.04 328.55c0,0 -7.08,19.55 -28.54,14.95 -21.18,-4.54 -25.54,-17.13 -25.54,-17.13 0,0 -10.71,11.12 -30.05,6.18 -19.35,-4.94 -24.29,-18.53 -24.29,-18.53 0,0 1.39,16.52 -15.16,24.11 -16.54,7.59 -27.66,3.06 -27.66,3.06 0,0 2.06,14.31 -19.76,19.09 -21.82,4.78 -39.2,-18.27 -35.49,-38.44 3.71,-20.17 19.85,-28 19.85,-28 0,0 -16.3,-13.77 -6.83,-34.88 9.47,-21.11 30.3,-18.23 30.3,-18.23 0,0 -8.72,-19.14 5.77,-34.58 15.05,-16.05 32.52,-10.55 37.87,-9.32 0,0 8.09,-24.47 38.12,-18.27 26.44,5.46 29.4,29.4 24.46,40.52 0,0 28.92,-2.06 37.46,20 10.9,28.12 -10.29,43.64 -10.29,43.64 0,0 43.43,5.95 29.8,45.81z"/>
  </g>
 </g>
</svg>
