<svg width="61" height="61" viewBox="0 0 61 61" fill="none" xmlns="http://www.w3.org/2000/svg">
<circle cx="30.4998" cy="30.4998" r="23.1336" fill="#2E4914"/>
<path d="M2.17406 26.7484C1.99142 26.7487 1.81095 26.7089 1.64534 26.6319C1.47973 26.5549 1.333 26.4425 1.21546 26.3027C1.09793 26.1629 1.01244 25.9991 0.965014 25.8227C0.917588 25.6463 0.909373 25.4617 0.940947 25.2818C2.01627 19.2198 4.92756 13.6343 9.28099 9.28087C13.6344 4.92746 19.2199 2.01621 25.282 0.940924C25.6087 0.883632 25.9447 0.958456 26.2162 1.14893C26.4877 1.33941 26.6724 1.62994 26.7297 1.95661C26.787 2.28328 26.7122 2.61933 26.5217 2.89083C26.3312 3.16233 26.0407 3.34704 25.714 3.40434C20.1578 4.38985 15.0384 7.05814 11.0483 11.0483C7.05817 15.0384 4.38987 20.1578 3.40436 25.714C3.35358 26.0035 3.20243 26.2659 2.97744 26.4551C2.75245 26.6443 2.46801 26.7481 2.17406 26.7484Z" fill="#2E4914"/>
<path d="M35.5002 60.078C35.1871 60.0781 34.8854 59.9607 34.6546 59.7491C34.4238 59.5375 34.2809 59.2471 34.2539 58.9351C34.227 58.6232 34.318 58.3125 34.5091 58.0644C34.7001 57.8164 34.9773 57.6491 35.2858 57.5955C40.8419 56.6099 45.9614 53.9417 49.9515 49.9515C53.9417 45.9614 56.61 40.842 57.5956 35.2858C57.6229 35.1231 57.6821 34.9674 57.7698 34.8276C57.8576 34.6879 57.9721 34.5669 58.1068 34.4717C58.2416 34.3764 58.3938 34.3087 58.5548 34.2726C58.7158 34.2364 58.8823 34.2325 59.0448 34.261C59.2074 34.2895 59.3626 34.3499 59.5017 34.4387C59.6408 34.5274 59.7609 34.6429 59.8552 34.7783C59.9494 34.9137 60.0159 35.0665 60.0509 35.2277C60.0858 35.389 60.0885 35.5555 60.0588 35.7178C58.9835 41.7799 56.0723 47.3654 51.7188 51.7189C47.3654 56.0723 41.7799 58.9836 35.7178 60.0589C35.6459 60.0715 35.5731 60.0779 35.5002 60.078Z" fill="#2E4914"/>
<path d="M1.73923 31.7504C2.42984 31.7504 2.9897 31.1906 2.9897 30.5C2.9897 29.8094 2.42984 29.2495 1.73923 29.2495C1.04862 29.2495 0.48877 29.8094 0.48877 30.5C0.48877 31.1906 1.04862 31.7504 1.73923 31.7504Z" fill="#2E4914"/>
<path d="M30.5 2.9897C31.1906 2.9897 31.7504 2.42984 31.7504 1.73923C31.7504 1.04862 31.1906 0.48877 30.5 0.48877C29.8094 0.48877 29.2495 1.04862 29.2495 1.73923C29.2495 2.42984 29.8094 2.9897 30.5 2.9897Z" fill="#2E4914"/>
<path d="M59.2605 31.7504C59.9511 31.7504 60.5109 31.1906 60.5109 30.5C60.5109 29.8094 59.9511 29.2495 59.2605 29.2495C58.5699 29.2495 58.01 29.8094 58.01 30.5C58.01 31.1906 58.5699 31.7504 59.2605 31.7504Z" fill="#2E4914"/>
<path d="M30.5 60.5109C31.1906 60.5109 31.7504 59.9511 31.7504 59.2605C31.7504 58.5699 31.1906 58.01 30.5 58.01C29.8094 58.01 29.2495 58.5699 29.2495 59.2605C29.2495 59.9511 29.8094 60.5109 30.5 60.5109Z" fill="#2E4914"/>
<path d="M36.7522 36.7523C37.0838 36.7523 37.4019 36.6205 37.6364 36.386C37.8709 36.1515 38.0026 35.8335 38.0026 35.5018C38.0026 35.1702 37.8709 34.8521 37.6364 34.6176C37.4019 34.3831 37.0838 34.2514 36.7522 34.2514H27.9989V31.7504H35.5017C37.4916 31.7504 39.3999 30.96 40.807 29.5529C42.214 28.1459 43.0045 26.2375 43.0045 24.2477C43.0045 22.2578 42.214 20.3494 40.807 18.9424C39.3999 17.5353 37.4916 16.7449 35.5017 16.7449H26.7485C26.4168 16.7449 26.0988 16.8766 25.8642 17.1111C25.6297 17.3456 25.498 17.6637 25.498 17.9953V29.2495H24.2475C23.9159 29.2495 23.5978 29.3812 23.3633 29.6158C23.1288 29.8503 22.9971 30.1683 22.9971 30.5C22.9971 30.8316 23.1288 31.1497 23.3633 31.3842C23.5978 31.6187 23.9159 31.7504 24.2475 31.7504H25.498V34.2514H24.2475C23.9159 34.2514 23.5978 34.3831 23.3633 34.6176C23.1288 34.8521 22.9971 35.1702 22.9971 35.5018C22.9971 35.8335 23.1288 36.1515 23.3633 36.386C23.5978 36.6205 23.9159 36.7523 24.2475 36.7523H25.498V45.5055C25.498 45.8372 25.6297 46.1552 25.8642 46.3897C26.0988 46.6242 26.4168 46.756 26.7485 46.756C27.0801 46.756 27.3982 46.6242 27.6327 46.3897C27.8672 46.1552 27.9989 45.8372 27.9989 45.5055V36.7523H36.7522ZM40.5036 24.2477C40.5021 25.5738 39.9746 26.8451 39.0369 27.7828C38.0992 28.7206 36.8278 29.248 35.5017 29.2495H27.9989V19.2458H35.5017C36.8278 19.2473 38.0992 19.7747 39.0369 20.7125C39.9746 21.6502 40.5021 22.9215 40.5036 24.2477Z" fill="#F2F5DB"/>
</svg>
