<svg width="49" height="49" viewBox="0 0 49 49" fill="none" xmlns="http://www.w3.org/2000/svg">
<circle cx="24.3195" cy="24.5002" r="18.5827" fill="#2E4914"/>
<path d="M1.56596 21.4867C1.41925 21.4869 1.27428 21.4549 1.14125 21.3931C1.00822 21.3312 0.890354 21.2409 0.79594 21.1287C0.701526 21.0164 0.632856 20.8848 0.594759 20.7431C0.556663 20.6014 0.550064 20.4531 0.575426 20.3086C1.43921 15.4391 3.77778 10.9524 7.27481 7.45537C10.7718 3.95837 15.2586 1.61983 20.1281 0.756072C20.3905 0.710051 20.6604 0.770156 20.8785 0.923163C21.0966 1.07617 21.245 1.30955 21.291 1.57195C21.337 1.83436 21.2769 2.1043 21.1239 2.32239C20.9709 2.54048 20.7375 2.68886 20.4751 2.73488C16.012 3.52652 11.8996 5.66991 8.69445 8.8751C5.48926 12.0803 3.34588 16.1926 2.55423 20.6558C2.51344 20.8883 2.39202 21.0991 2.2113 21.2511C2.03057 21.403 1.80208 21.4865 1.56596 21.4867Z" fill="#2E4914"/>
<path d="M28.3364 48.2597C28.0849 48.2598 27.8425 48.1655 27.6571 47.9955C27.4718 47.8256 27.3569 47.5922 27.3353 47.3417C27.3136 47.0911 27.3868 46.8415 27.5402 46.6423C27.6937 46.443 27.9163 46.3086 28.1641 46.2655C32.6273 45.4739 36.7396 43.3305 39.9448 40.1253C43.15 36.9201 45.2935 32.8078 46.0851 28.3447C46.1071 28.214 46.1546 28.0889 46.2251 27.9766C46.2956 27.8644 46.3876 27.7672 46.4958 27.6907C46.604 27.6142 46.7263 27.5598 46.8556 27.5308C46.985 27.5017 47.1188 27.4986 47.2493 27.5215C47.3798 27.5443 47.5046 27.5929 47.6163 27.6642C47.728 27.7355 47.8245 27.8282 47.9002 27.937C47.9759 28.0458 48.0294 28.1685 48.0574 28.298C48.0855 28.4275 48.0877 28.5613 48.0638 28.6917C47.2001 33.5612 44.8615 38.048 41.3645 41.545C37.8674 45.042 33.3807 47.3806 28.5112 48.2444C28.4535 48.2545 28.395 48.2596 28.3364 48.2597Z" fill="#2E4914"/>
<path d="M1.21687 25.5048C1.77163 25.5048 2.22134 25.0551 2.22134 24.5003C2.22134 23.9456 1.77163 23.4958 1.21687 23.4958C0.662119 23.4958 0.212402 23.9456 0.212402 24.5003C0.212402 25.0551 0.662119 25.5048 1.21687 25.5048Z" fill="#2E4914"/>
<path d="M24.3197 2.40176C24.8744 2.40176 25.3241 1.95205 25.3241 1.39729C25.3241 0.842539 24.8744 0.392822 24.3197 0.392822C23.7649 0.392822 23.3152 0.842539 23.3152 1.39729C23.3152 1.95205 23.7649 2.40176 24.3197 2.40176Z" fill="#2E4914"/>
<path d="M47.4224 25.5048C47.9772 25.5048 48.4269 25.0551 48.4269 24.5003C48.4269 23.9456 47.9772 23.4958 47.4224 23.4958C46.8677 23.4958 46.418 23.9456 46.418 24.5003C46.418 25.0551 46.8677 25.5048 47.4224 25.5048Z" fill="#2E4914"/>
<path d="M24.3197 48.6073C24.8744 48.6073 25.3241 48.1576 25.3241 47.6029C25.3241 47.0481 24.8744 46.5984 24.3197 46.5984C23.7649 46.5984 23.3152 47.0481 23.3152 47.6029C23.3152 48.1576 23.7649 48.6073 24.3197 48.6073Z" fill="#2E4914"/>
<path d="M22.9393 35.7492C23.5251 36.335 24.4749 36.335 25.0607 35.7492L34.6066 26.2032C35.1924 25.6175 35.1924 24.6677 34.6066 24.0819C34.0208 23.4961 33.0711 23.4961 32.4853 24.0819L24 32.5672L15.5147 24.0819C14.9289 23.4961 13.9792 23.4961 13.3934 24.0819C12.8076 24.6677 12.8076 25.6175 13.3934 26.2032L22.9393 35.7492ZM22.5 13L22.5 34.6885L25.5 34.6885L25.5 13L22.5 13Z" fill="#F2F5DB"/>
</svg>
