<svg width="20" height="20" viewBox="0 0 20 20" fill="none" xmlns="http://www.w3.org/2000/svg">
<path d="M9.81681 8.65456C9.98577 8.65456 10.1228 8.51757 10.1228 8.34861C10.1228 8.17965 9.98577 8.04266 9.81681 8.04266C7.95813 8.02526 6.46548 6.50439 6.48288 4.64571C6.50028 2.78703 8.02115 1.29438 9.87983 1.31178C11.7431 1.38911 13.2067 2.93488 13.1822 4.7996V6.81887C13.1822 6.98783 13.0453 7.12482 12.8763 7.12482H12.5704C12.4014 7.12482 12.2644 6.98783 12.2644 6.81887V3.45343C12.2644 3.28447 12.1274 3.14748 11.9585 3.14748C11.8176 3.14866 11.6963 3.24722 11.6663 3.38489C10.7837 2.361 9.23822 2.24642 8.21432 3.12897C7.19043 4.01152 7.07585 5.55702 7.9584 6.58091C8.84095 7.60481 10.3864 7.71939 11.4103 6.83684C11.4965 6.76253 11.5775 6.6823 11.6525 6.59675V6.81887C11.6525 7.32579 12.0634 7.73671 12.5704 7.73671H12.8763C13.3832 7.73671 13.7941 7.32579 13.7941 6.81887V4.7996C13.8172 2.60193 12.0873 0.7849 9.89115 0.699885C7.69452 0.679348 5.89718 2.44341 5.87664 4.64005C5.85611 6.83669 7.62017 8.63406 9.81681 8.65456ZM9.81681 6.81887C8.80297 6.81887 7.98111 5.99701 7.98111 4.98317C7.98111 3.96933 8.80297 3.14748 9.81681 3.14748C10.8306 3.14748 11.6525 3.96933 11.6525 4.98317C11.6515 5.99659 10.8302 6.81787 9.81681 6.81887Z" fill="#F2F5DB"/>
<path d="M19.2974 8.32825C19.2967 8.31574 19.2953 8.30328 19.2931 8.29092C19.2904 8.27777 19.2866 8.26488 19.2818 8.25237C19.2771 8.23811 19.2714 8.22419 19.2647 8.21077C19.2627 8.20411 19.2603 8.19757 19.2576 8.19118C19.2555 8.18721 19.2512 8.18537 19.2487 8.18139C19.2318 8.15906 19.2127 8.13856 19.1915 8.12021C19.1825 8.11179 19.1729 8.10399 19.1628 8.09695C19.1588 8.09451 19.157 8.09022 19.153 8.08808L14.8581 5.50954C14.7132 5.42254 14.5252 5.46942 14.4382 5.61433C14.3512 5.75923 14.398 5.94724 14.5429 6.03424L18.4007 8.34875L13.6413 11.2045L9.97451 9.0044C9.87756 8.94615 9.75633 8.94615 9.65938 9.0044L5.99258 11.2045L1.23324 8.34875L5.09095 6.03424C5.23585 5.94724 5.28274 5.75923 5.19574 5.61433C5.10873 5.46942 4.92073 5.42254 4.77582 5.50954L0.480908 8.08655C0.477237 8.08869 0.475095 8.09267 0.471424 8.09542C0.460677 8.10254 0.450428 8.11041 0.440829 8.11898C0.428782 8.12934 0.417538 8.14059 0.407174 8.15264C0.398837 8.16174 0.391074 8.17134 0.383922 8.18139C0.381474 8.18537 0.377191 8.18721 0.37505 8.19118C0.372334 8.19757 0.370001 8.20411 0.368013 8.21077C0.361282 8.22419 0.355545 8.23811 0.35088 8.25237C0.346061 8.26488 0.342275 8.27777 0.339559 8.29092C0.33738 8.30328 0.335926 8.31574 0.335276 8.32825C0.335276 8.33529 0.331299 8.34141 0.331299 8.34875V18.1391C0.331299 18.646 0.742227 19.057 1.24915 19.057H18.3835C18.8904 19.057 19.3014 18.646 19.3014 18.1391V8.34875C19.3014 8.34141 19.2977 8.33529 19.2974 8.32825ZM0.944421 8.88905L5.39782 11.5612L0.944421 14.2334V8.88905ZM18.6895 18.1391C18.6895 18.3081 18.5525 18.4451 18.3835 18.4451H1.25037C1.08141 18.4451 0.944421 18.3081 0.944421 18.1391V14.9468L9.81695 9.62333L18.6895 14.9468V18.1391ZM18.6895 14.2334L14.2361 11.5612L18.6895 8.88905V14.2334Z" fill="#F2F5DB"/>
<path d="M2.47424 17.2212H2.16829V16.3034C2.16829 16.1344 2.03131 15.9974 1.86235 15.9974C1.69339 15.9974 1.5564 16.1344 1.5564 16.3034V17.5272C1.5564 17.6961 1.69339 17.8331 1.86235 17.8331H2.47424C2.6432 17.8331 2.78019 17.6961 2.78019 17.5272C2.78019 17.3582 2.6432 17.2212 2.47424 17.2212Z" fill="#F2F5DB"/>
<path d="M4.30969 17.2212H3.69779C3.52883 17.2212 3.39185 17.3582 3.39185 17.5271C3.39185 17.6961 3.52883 17.8331 3.69779 17.8331H4.30969C4.47865 17.8331 4.61564 17.6961 4.61564 17.5271C4.61564 17.3582 4.47865 17.2212 4.30969 17.2212Z" fill="#F2F5DB"/>
</svg>
