<svg width="20" height="19" viewBox="0 0 20 19" fill="none" xmlns="http://www.w3.org/2000/svg">
<path d="M14.3984 11.8004C14.0485 11.4352 13.6302 11.2451 13.1852 11.2451C12.744 11.2451 12.3181 11.4352 11.9567 11.7966L10.7777 12.9756C10.675 12.9185 10.5724 12.8653 10.4697 12.8158C10.3366 12.7512 10.211 12.6865 10.1046 12.6181C9.01302 11.9259 8.02417 11.0245 7.07716 9.85689C6.60936 9.26358 6.29369 8.76535 6.0731 8.25952C6.38116 7.97808 6.66641 7.68903 6.94404 7.40378C7.04673 7.3011 7.14942 7.1946 7.25211 7.09192C7.62483 6.7192 7.8226 6.28943 7.8226 5.85205C7.8226 5.41468 7.62483 4.98491 7.25211 4.61219L6.25185 3.61193C6.13775 3.49783 6.01985 3.37993 5.90956 3.26583C5.68897 3.04144 5.46077 2.80564 5.22117 2.58505C4.87127 2.23895 4.45671 2.0564 4.01553 2.0564C3.57816 2.0564 3.15599 2.23895 2.79468 2.58505C2.79088 2.58885 2.79088 2.58885 2.78708 2.59266L1.532 3.84773C1.068 4.31173 0.805577 4.87461 0.748529 5.52878C0.683873 6.33887 0.8322 7.19841 1.21633 8.2367C1.80584 9.83407 2.6958 11.3173 4.01553 12.9071C5.62051 14.8239 7.54876 16.3338 9.75085 17.3988C10.5914 17.7981 11.7133 18.2659 12.9684 18.3496C13.0445 18.3534 13.1243 18.3572 13.1966 18.3572C14.0333 18.3572 14.7369 18.0567 15.2846 17.4596C15.2884 17.4558 15.296 17.4482 15.2998 17.4444C15.4938 17.2124 15.7106 16.9994 15.9426 16.7788C16.0985 16.6267 16.262 16.4708 16.418 16.3034C17.152 15.539 17.1482 14.5653 16.4104 13.8275L14.3984 11.8004ZM15.7676 15.6645C15.7638 15.6645 15.7638 15.6645 15.7676 15.6645C15.6231 15.8166 15.4748 15.9611 15.3188 16.1133C15.083 16.3415 14.8358 16.5773 14.6152 16.8435C14.2387 17.2504 13.7899 17.4406 13.208 17.4406C13.151 17.4406 13.0939 17.4406 13.0369 17.4368C11.9415 17.3645 10.9223 16.9386 10.1578 16.5735C8.07361 15.5656 6.24805 14.1318 4.72674 12.3214C3.47166 10.8115 2.63114 9.41191 2.07587 7.91342C1.73357 6.99303 1.60426 6.27802 1.66131 5.60104C1.69934 5.16366 1.87049 4.79855 2.18236 4.48668L3.43363 3.23541C3.61999 3.05665 3.82157 2.96538 4.01933 2.96538C4.2133 2.96538 4.40727 3.05665 4.58222 3.2316C4.58602 3.23541 4.58982 3.23921 4.59363 3.24301C4.81802 3.45219 5.031 3.66898 5.2554 3.90098C5.36949 4.01508 5.48739 4.13678 5.6053 4.25468L6.60555 5.25494C7.0049 5.65428 7.0049 6.04602 6.60555 6.44536C6.49906 6.55185 6.39637 6.65834 6.28988 6.76103C5.97802 7.0767 5.68516 7.37336 5.36569 7.6586C5.35808 7.66241 5.35428 7.67001 5.34667 7.67762C5.05002 7.97427 5.09566 8.25572 5.16792 8.4687C5.17172 8.48011 5.17553 8.48771 5.17933 8.49912C5.43795 9.12666 5.80307 9.71997 6.35834 10.4236L6.36215 10.4274C7.37381 11.671 8.43492 12.6409 9.61013 13.3863C9.75846 13.4814 9.91059 13.5575 10.0589 13.6297C10.192 13.6944 10.3175 13.759 10.424 13.8275C10.4354 13.8351 10.4507 13.8427 10.4659 13.8503C10.5838 13.9074 10.6979 13.9378 10.812 13.9378C11.101 13.9378 11.2836 13.7552 11.3444 13.6944L12.5995 12.4393C12.7859 12.2529 12.9874 12.1541 13.1814 12.1541C13.421 12.1541 13.6188 12.3062 13.7405 12.4317C13.7443 12.4355 13.7443 12.4355 13.7481 12.4393L15.7714 14.4626C16.2544 14.9495 16.0338 15.383 15.7676 15.6645Z" fill="#F2F5DB"/>
<path d="M11.2037 4.0683C11.3254 4.0683 11.4433 4.01886 11.527 3.93519C11.6107 3.85151 11.6601 3.73361 11.6601 3.61191C11.6601 3.4902 11.6107 3.3723 11.527 3.28863C11.4433 3.20496 11.3254 3.15552 11.2037 3.15552C11.082 3.15552 10.9641 3.20496 10.8804 3.28863C10.7968 3.3723 10.7473 3.4902 10.7473 3.61191C10.7473 3.73361 10.7968 3.85151 10.8804 3.93519C10.9641 4.01886 11.082 4.0683 11.2037 4.0683Z" fill="#F2F5DB"/>
<path d="M12.7137 4.57418C12.8773 4.57418 13.037 4.4829 13.1207 4.32696C13.2348 4.10257 13.1511 3.82874 12.9267 3.71084C12.7023 3.59293 12.4285 3.68041 12.3106 3.9048C12.1927 4.12919 12.2801 4.40303 12.5045 4.52093C12.573 4.55896 12.6415 4.57418 12.7137 4.57418Z" fill="#F2F5DB"/>
<path d="M14.3224 5.38426C14.5011 5.2055 14.5011 4.91646 14.3224 4.7377C14.1436 4.55895 13.8546 4.55895 13.6758 4.7377C13.4971 4.91646 13.4971 5.2055 13.6758 5.38426C13.7633 5.47173 13.8812 5.51737 13.9991 5.51737C14.117 5.51737 14.2349 5.47173 14.3224 5.38426Z" fill="#F2F5DB"/>
<path d="M14.733 5.9434C14.5087 6.0613 14.4212 6.33513 14.5391 6.55953C14.619 6.71546 14.7787 6.80674 14.946 6.80674C15.0183 6.80674 15.0906 6.79153 15.1552 6.7573C15.3796 6.63939 15.4671 6.36556 15.3492 6.14117C15.2351 5.91297 14.9574 5.8255 14.733 5.9434Z" fill="#F2F5DB"/>
<path d="M14.9956 7.8602C14.9956 7.9819 15.045 8.09981 15.1287 8.18348C15.2124 8.26715 15.3303 8.31659 15.452 8.31659C15.5737 8.31659 15.6916 8.26715 15.7753 8.18348C15.8589 8.09981 15.9084 7.9819 15.9084 7.8602C15.9084 7.7385 15.8589 7.62059 15.7753 7.53692C15.6916 7.45325 15.5737 7.40381 15.452 7.40381C15.3303 7.40381 15.2124 7.45325 15.1287 7.53692C15.045 7.62059 14.9956 7.7385 14.9956 7.8602Z" fill="#F2F5DB"/>
<path d="M10.7169 7.05388C11.0402 7.10713 11.333 7.26306 11.5688 7.49506C11.8046 7.73086 11.9568 8.02372 12.01 8.34699C12.048 8.57138 12.242 8.72732 12.4588 8.72732C12.4854 8.72732 12.5082 8.72352 12.5349 8.71971C12.7821 8.67788 12.9494 8.44207 12.9076 8.19486C12.8201 7.68522 12.5805 7.22123 12.2116 6.85231C11.8427 6.48339 11.3787 6.24379 10.869 6.15631C10.6218 6.11448 10.386 6.28182 10.3442 6.52903C10.2985 6.77625 10.4659 7.01205 10.7169 7.05388Z" fill="#F2F5DB"/>
<path d="M19.0537 7.63576C18.7304 5.73032 17.829 3.99223 16.4484 2.61165C15.0679 1.23106 13.3298 0.329688 11.4243 0.00641109C11.1771 -0.0354248 10.9413 0.131919 10.8995 0.379131C10.8576 0.626343 11.025 0.862145 11.2722 0.903981C12.9913 1.19683 14.5582 2.00693 15.8057 3.2544C17.0494 4.49807 17.8633 6.06501 18.1561 7.78789C18.1941 8.01228 18.3881 8.16821 18.6049 8.16821C18.6315 8.16821 18.6543 8.16441 18.681 8.16061C18.9282 8.12258 19.0955 7.88677 19.0537 7.63576Z" fill="#F2F5DB"/>
</svg>
