<svg width="165" height="165" viewBox="0 0 165 165" fill="none" xmlns="http://www.w3.org/2000/svg">
<path d="M122.559 105.839C119.421 102.564 115.669 100.859 111.678 100.859C107.721 100.859 103.9 102.564 100.66 105.805L90.0848 116.379C89.1637 115.868 88.2427 115.39 87.3217 114.947C86.1278 114.367 85.0021 113.787 84.0469 113.173C74.2568 106.965 65.3876 98.88 56.8938 88.4076C52.698 83.0862 49.8667 78.6175 47.8882 74.0806C50.6513 71.5563 53.2097 68.9638 55.6998 66.4054C56.6209 65.4843 57.5419 64.5292 58.4629 63.6082C61.8059 60.2652 63.5797 56.4105 63.5797 52.4877C63.5797 48.5648 61.8059 44.7101 58.4629 41.3671L49.4914 32.3957C48.4681 31.3723 47.4106 30.3148 46.4214 29.2915C44.4429 27.2789 42.3961 25.1639 40.2471 23.1854C37.1088 20.0812 33.3906 18.4438 29.4336 18.4438C25.5107 18.4438 21.7242 20.0812 18.4836 23.1854C18.4495 23.2195 18.4495 23.2195 18.4154 23.2536L7.1584 34.5106C2.99674 38.6723 0.643005 43.7209 0.131325 49.5881C-0.44858 56.854 0.881789 64.5633 4.32711 73.8759C9.61447 88.203 17.5967 101.507 29.4336 115.765C43.8288 132.958 61.1236 146.5 80.8745 156.052C88.4133 159.634 98.4763 163.829 109.733 164.58C110.416 164.614 111.132 164.648 111.78 164.648C119.285 164.648 125.595 161.953 130.508 156.598C130.542 156.563 130.61 156.495 130.644 156.461C132.384 154.38 134.328 152.47 136.409 150.492C137.807 149.127 139.274 147.728 140.673 146.228C147.257 139.371 147.222 130.638 140.605 124.021L122.559 105.839ZM134.84 140.497C134.806 140.497 134.806 140.497 134.84 140.497C133.543 141.861 132.213 143.157 130.815 144.522C128.7 146.569 126.482 148.684 124.504 151.071C121.127 154.721 117.101 156.427 111.882 156.427C111.371 156.427 110.859 156.427 110.347 156.393C100.523 155.745 91.381 151.924 84.5245 148.649C65.8311 139.61 49.4573 126.75 35.8125 110.512C24.5555 96.9697 17.0168 84.4165 12.0364 70.9764C8.96634 62.7213 7.80653 56.3082 8.31821 50.2363C8.65933 46.3134 10.1944 43.0386 12.9916 40.2414L24.2144 29.0186C25.8859 27.4153 27.6938 26.5966 29.4677 26.5966C31.2074 26.5966 32.9471 27.4153 34.5163 28.9845C34.5504 29.0186 34.5845 29.0527 34.6186 29.0868C36.6312 30.963 38.5415 32.9074 40.5541 34.9882C41.5774 36.0115 42.6349 37.1031 43.6924 38.1606L52.6639 47.1321C56.2456 50.7138 56.2456 54.2274 52.6639 57.8091C51.7087 58.7643 50.7877 59.7194 49.8326 60.6404C47.0354 63.4717 44.4087 66.1325 41.5433 68.6909C41.4751 68.725 41.441 68.7932 41.3728 68.8614C38.712 71.5222 39.1214 74.0465 39.7695 75.9567C39.8036 76.0591 39.8377 76.1273 39.8718 76.2296C42.1915 81.8581 45.4662 87.1796 50.4466 93.4903L50.4807 93.5244C59.5545 104.679 69.0718 113.378 79.6124 120.064C80.9427 120.916 82.3072 121.599 83.6376 122.247C84.8315 122.827 85.9572 123.407 86.9123 124.021C87.0147 124.089 87.1511 124.157 87.2876 124.225C88.345 124.737 89.3684 125.01 90.3918 125.01C92.9843 125.01 94.6217 123.372 95.1675 122.827L106.424 111.57C108.096 109.898 109.904 109.011 111.644 109.011C113.793 109.011 115.566 110.376 116.658 111.501C116.692 111.536 116.692 111.536 116.726 111.57L134.874 129.717C139.206 134.084 137.228 137.972 134.84 140.497Z" fill="black"/>
<path d="M93.905 36.4882C94.9966 36.4882 96.054 36.0447 96.8045 35.2942C97.555 34.5438 97.9984 33.4863 97.9984 32.3947C97.9984 31.3031 97.555 30.2457 96.8045 29.4952C96.054 28.7447 94.9966 28.3013 93.905 28.3013C92.8134 28.3013 91.7559 28.7447 91.0054 29.4952C90.255 30.2457 89.8115 31.3031 89.8115 32.3947C89.8115 33.4863 90.255 34.5438 91.0054 35.2942C91.7559 36.0447 92.8134 36.4882 93.905 36.4882Z" fill="#2E4914"/>
<path d="M107.448 41.0264C108.915 41.0264 110.348 40.2077 111.098 38.8091C112.122 36.7965 111.371 34.3405 109.359 33.283C107.346 32.2255 104.89 33.0101 103.833 35.0227C102.775 37.0353 103.56 39.4914 105.572 40.5489C106.186 40.89 106.8 41.0264 107.448 41.0264Z" fill="#2E4914"/>
<path d="M121.877 48.2928C123.48 46.6895 123.48 44.097 121.877 42.4937C120.274 40.8904 117.681 40.8904 116.078 42.4937C114.475 44.097 114.475 46.6895 116.078 48.2928C116.863 49.0773 117.92 49.4867 118.978 49.4867C120.035 49.4867 121.093 49.0773 121.877 48.2928Z" fill="#2E4914"/>
<path d="M125.562 53.3072C123.549 54.3647 122.765 56.8207 123.822 58.8333C124.538 60.2319 125.971 61.0506 127.472 61.0506C128.12 61.0506 128.768 60.9142 129.348 60.6072C131.361 59.5497 132.145 57.0936 131.088 55.081C130.065 53.0343 127.574 52.2497 125.562 53.3072Z" fill="#2E4914"/>
<path d="M127.916 70.4987C127.916 71.5903 128.359 72.6478 129.109 73.3982C129.86 74.1487 130.917 74.5922 132.009 74.5922C133.101 74.5922 134.158 74.1487 134.908 73.3982C135.659 72.6478 136.102 71.5903 136.102 70.4987C136.102 69.4071 135.659 68.3497 134.908 67.5992C134.158 66.8487 133.101 66.4053 132.009 66.4053C130.917 66.4053 129.86 66.8487 129.109 67.5992C128.359 68.3497 127.916 69.4071 127.916 70.4987Z" fill="#2E4914"/>
<path d="M89.5387 63.2664C92.4382 63.744 95.0648 65.1425 97.1798 67.2234C99.2947 69.3383 100.659 71.965 101.137 74.8645C101.478 76.8771 103.218 78.2757 105.162 78.2757C105.401 78.2757 105.605 78.2416 105.844 78.2075C108.062 77.8322 109.562 75.7173 109.187 73.5C108.403 68.929 106.254 64.7673 102.945 61.4585C99.6358 58.1496 95.4742 56.0005 90.9032 55.2159C88.6859 54.8407 86.5709 56.3416 86.1957 58.5589C85.7864 60.7762 87.2873 62.8912 89.5387 63.2664Z" fill="#2E4914"/>
<path d="M164.313 68.4862C161.413 51.3961 153.329 35.8069 140.946 23.4242C128.563 11.0416 112.974 2.95703 95.8841 0.057502C93.6668 -0.31773 91.5519 1.1832 91.1766 3.40048C90.8014 5.61776 92.3023 7.73271 94.5196 8.10794C109.938 10.7346 123.992 18.0004 135.181 29.1892C146.336 40.3438 153.636 54.398 156.262 69.8507C156.604 71.8633 158.343 73.2619 160.288 73.2619C160.526 73.2619 160.731 73.2278 160.97 73.1937C163.187 72.8526 164.688 70.7376 164.313 68.4862Z" fill="#2E4914"/>
</svg>
