<svg width="181" height="181" viewBox="0 0 181 181" fill="none" xmlns="http://www.w3.org/2000/svg">
<path d="M146.355 52.5854C148.308 52.5854 149.891 51.0028 149.891 49.0503V10.6055C149.891 4.75761 145.133 0 139.285 0H10.6055C4.75761 0 0 4.75761 0 10.6055V170.395C0 176.242 4.75761 181 10.6055 181H139.285C145.133 181 149.891 176.242 149.891 170.395V144.35C149.891 142.398 148.308 140.815 146.355 140.815C144.403 140.815 142.82 142.398 142.82 144.35V170.395C142.82 172.344 141.234 173.93 139.285 173.93H10.6055C8.65618 173.93 7.07031 172.344 7.07031 170.395V10.6055C7.07031 8.65618 8.65618 7.07031 10.6055 7.07031H139.285C141.234 7.07031 142.82 8.65618 142.82 10.6055V49.0503C142.82 51.0028 144.403 52.5854 146.355 52.5854Z" fill="black"/>
<path d="M74.9453 19.0898C57.0118 19.0898 42.4219 33.6798 42.4219 51.6133C42.4219 60.9168 46.3494 69.3191 52.6321 75.2525C52.7498 75.3784 52.875 75.4975 53.0118 75.606C58.7992 80.9013 66.5012 84.1364 74.945 84.1364C83.3887 84.1364 91.0907 80.901 96.8781 75.606C97.0149 75.4975 97.1401 75.378 97.2578 75.2525C103.541 69.3191 107.469 60.9168 107.469 51.6133C107.469 33.6798 92.8788 19.0898 74.9453 19.0898ZM74.9453 77.0664C69.1728 77.0664 63.8453 75.132 59.5706 71.881C62.6776 66.3715 68.4756 62.9258 74.9453 62.9258C81.415 62.9258 87.213 66.3715 90.3201 71.881C86.045 75.132 80.7179 77.0664 74.9453 77.0664ZM69.2891 50.1992V47.9014C69.2891 44.7827 71.8266 42.2451 74.9453 42.2451C78.064 42.2451 80.6016 44.7827 80.6016 47.9014V50.1992C80.6016 53.3179 78.064 55.8555 74.9453 55.8555C71.8266 55.8555 69.2891 53.3179 69.2891 50.1992ZM95.428 66.7024C92.8208 62.8356 89.2075 59.8283 85.0124 57.9716C86.6774 55.8198 87.6719 53.1242 87.6719 50.1992V47.9014C87.6719 40.8837 81.963 35.1748 74.9453 35.1748C67.9277 35.1748 62.2188 40.8837 62.2188 47.9014V50.1992C62.2188 53.1242 63.2132 55.8198 64.8782 57.9716C60.6831 59.8283 57.0698 62.8356 54.4626 66.7024C51.3414 62.4768 49.4922 57.2579 49.4922 51.6133C49.4922 37.5784 60.9104 26.1602 74.9453 26.1602C88.9802 26.1602 100.398 37.5784 100.398 51.6133C100.398 57.2579 98.5492 62.4768 95.428 66.7024Z" fill="#2E4914"/>
<path d="M94.0352 154.84H74.9453C72.9932 154.84 71.4102 156.423 71.4102 158.375C71.4102 160.327 72.9932 161.91 74.9453 161.91H94.0352C95.9873 161.91 97.5703 160.327 97.5703 158.375C97.5703 156.423 95.9873 154.84 94.0352 154.84Z" fill="#2E4914"/>
<path d="M94.0352 135.043H43.8359C41.8838 135.043 40.3008 136.626 40.3008 138.578C40.3008 140.531 41.8838 142.113 43.8359 142.113H94.0352C95.9873 142.113 97.5703 140.531 97.5703 138.578C97.5703 136.626 95.9873 135.043 94.0352 135.043Z" fill="#2E4914"/>
<path d="M94.0352 115.246H43.8359C41.8838 115.246 40.3008 116.829 40.3008 118.781C40.3008 120.734 41.8838 122.316 43.8359 122.316H94.0352C95.9873 122.316 97.5703 120.734 97.5703 118.781C97.5703 116.829 95.9873 115.246 94.0352 115.246Z" fill="#2E4914"/>
<path d="M31.2362 96.485C30.579 95.8275 29.6669 95.4492 28.7336 95.4492C27.8035 95.4492 26.8915 95.8275 26.2343 96.485C25.5767 97.1426 25.1985 98.0546 25.1985 98.9844C25.1985 99.9141 25.5764 100.826 26.2343 101.484C26.8954 102.141 27.8035 102.52 28.7336 102.52C29.6669 102.52 30.5755 102.141 31.2362 101.484C31.8937 100.826 32.2723 99.9141 32.2723 98.9844C32.2723 98.0546 31.8941 97.1426 31.2362 96.485Z" fill="#2E4914"/>
<path d="M31.2362 116.282C30.5755 115.624 29.6669 115.246 28.7336 115.246C27.8035 115.246 26.8954 115.624 26.2343 116.282C25.5767 116.939 25.1985 117.852 25.1985 118.781C25.1985 119.711 25.5764 120.623 26.2343 121.281C26.8954 121.938 27.8035 122.316 28.7336 122.316C29.6669 122.316 30.5755 121.938 31.2362 121.281C31.8937 120.623 32.2723 119.711 32.2723 118.781C32.2723 117.852 31.8941 116.939 31.2362 116.282Z" fill="#2E4914"/>
<path d="M31.2362 136.079C30.5755 135.421 29.6669 135.043 28.7336 135.043C27.8035 135.043 26.8954 135.421 26.2343 136.079C25.5767 136.736 25.1985 137.648 25.1985 138.578C25.1985 139.508 25.5764 140.42 26.2343 141.077C26.8915 141.735 27.8035 142.113 28.7336 142.113C29.6669 142.113 30.579 141.735 31.2362 141.077C31.8937 140.42 32.2723 139.508 32.2723 138.578C32.2723 137.648 31.8941 136.736 31.2362 136.079Z" fill="#2E4914"/>
<path d="M94.0352 95.4492H43.8359C41.8838 95.4492 40.3008 97.0319 40.3008 98.9844C40.3008 100.937 41.8838 102.52 43.8359 102.52H94.0352C95.9873 102.52 97.5703 100.937 97.5703 98.9844C97.5703 97.0319 95.9873 95.4492 94.0352 95.4492Z" fill="#2E4914"/>
<path d="M173.574 46.0702C170.14 44.0874 166.139 43.5606 162.307 44.5869C158.477 45.6135 155.275 48.0704 153.292 51.5048L108.805 128.558C108.561 128.981 108.407 129.449 108.353 129.934L105.222 157.983C105.066 159.379 105.751 160.734 106.967 161.437C107.516 161.754 108.126 161.911 108.735 161.911C109.474 161.911 110.211 161.679 110.831 161.222L133.557 144.485C133.95 144.196 134.278 143.829 134.522 143.406L179.009 66.3528C183.102 59.2627 180.664 50.164 173.574 46.0702ZM113.145 150.737L114.78 136.09L125.012 141.997L113.145 150.737ZM130.167 136.809L116.696 129.032L152.396 67.1985L165.866 74.9758L130.167 136.809ZM172.886 62.8173L169.401 68.8529L155.93 61.0756L159.415 55.04C160.454 53.2409 162.131 51.9541 164.137 51.4165C166.145 50.8784 168.24 51.1549 170.039 52.1935C171.838 53.2321 173.125 54.9092 173.662 56.9157C174.2 58.9223 173.924 61.0183 172.886 62.8173Z" fill="#2E4914"/>
</svg>
