<svg width="69" height="69" viewBox="0 0 69 69" fill="none" xmlns="http://www.w3.org/2000/svg">
<path fill-rule="evenodd" clip-rule="evenodd" d="M34.5767 2C52.568 2 67.1535 16.5852 67.1535 34.5767C67.1535 52.5682 52.568 67.1535 34.5767 67.1535C16.5852 67.1535 2 52.5682 2 34.5767C2 16.5852 16.5852 2 34.5767 2Z" stroke="#F2F5DB" stroke-width="2.36931" stroke-miterlimit="22.9256" stroke-linejoin="round"/>
<path fill-rule="evenodd" clip-rule="evenodd" d="M34.5767 8.12097C49.1874 8.12097 61.0323 19.9659 61.0323 34.5766C61.0323 49.1873 49.1874 61.0322 34.5767 61.0322C19.966 61.0322 8.12109 49.1873 8.12109 34.5766C8.12109 19.9659 19.966 8.12097 34.5767 8.12097V8.12097Z" fill="#F2F5DB"/>
<path d="M28.9395 60.4306C28.9395 60.4306 31.3584 60.3122 31.568 58.0761C31.7777 55.84 32.0572 48.3621 31.009 47.3136C29.9606 46.2655 27.3748 44.7977 27.235 44.4483C27.0955 44.0992 25.7676 40.3951 25.7676 40.3951H26.3266C26.3266 40.3951 28.2719 43.889 28.7668 44.239C29.2618 44.5884 31.7777 45.9164 32.2668 45.7765C32.756 45.6368 31.009 42.282 31.009 42.282V38.3683H31.4982C31.4982 38.3683 31.4981 42.0023 31.8476 42.352C32.1969 42.7013 33.5948 45.6198 34.2936 45.2438C34.9926 44.8678 39.6745 39.4168 39.6745 39.4168L40.2338 39.9059C40.2338 39.9059 35.9008 44.921 36.0405 45.2438C36.1806 45.5664 41.5616 45.7061 41.5616 45.7061L45.7548 42.5616L46.0346 43.0507C46.0346 43.0507 42.1905 46.5449 41.7016 46.6847C41.2124 46.8245 36.53 47.1045 36.3902 47.4533C36.2505 47.803 36.3579 57.1556 36.4949 57.9624C36.7506 59.4723 39.3775 60.5978 39.3775 60.5978C38.7656 60.7024 36.866 61.0579 34.5766 61.0324C32.2874 61.0069 30.8457 60.8167 28.9395 60.4306V60.4306Z" fill="#2E4914"/>
<path d="M16.5801 40.6044C16.5801 40.6044 17.8704 44.169 21.784 43.3302C25.6453 42.503 26.4416 40.2076 26.4416 40.2076C26.4416 40.2076 28.3933 42.2343 31.9207 41.3338C35.4485 40.4334 36.3491 37.9564 36.3491 37.9564C36.3491 37.9564 36.0963 40.9673 39.1126 42.3518C42.1285 43.7356 44.155 42.9102 44.155 42.9102C44.155 42.9102 43.7797 45.5198 47.7578 46.3914C51.7361 47.2635 54.9039 43.0599 54.2286 39.3824C53.553 35.7047 50.6102 34.2783 50.6102 34.2783C50.6102 34.2783 53.5817 31.7683 51.8553 27.9196C50.1288 24.0706 46.332 24.5958 46.332 24.5958C46.332 24.5958 47.9213 21.1065 45.281 18.2913C42.5363 15.3646 39.3519 16.3682 38.3758 16.5933C38.3758 16.5933 36.9003 12.132 31.4266 13.2624C26.6061 14.2578 26.0665 18.6223 26.9671 20.649C26.9671 20.649 21.6949 20.2746 20.1368 24.2956C18.1499 29.4228 22.0133 32.2518 22.0133 32.2518C22.0133 32.2518 14.0967 33.3365 16.5802 40.6044L16.5801 40.6044Z" fill="#2E4914" stroke="#2E4914" stroke-width="0.167199" stroke-miterlimit="10"/>
<path d="M43.438 43.1163C43.438 43.1163 42.5267 45.6334 39.7629 45.0413C37.036 44.4568 36.4738 42.836 36.4738 42.836C36.4738 42.836 35.0954 44.2672 32.6042 43.6314C30.1131 42.9954 29.477 41.2458 29.477 41.2458C29.477 41.2458 29.6556 43.3726 27.5253 44.3502C25.3953 45.3274 23.9644 44.7443 23.9644 44.7443C23.9644 44.7443 24.2293 46.5874 21.42 47.2029C18.6106 47.819 16.3734 44.8502 16.8503 42.2535C17.3274 39.6561 19.4057 38.6488 19.4057 38.6488C19.4057 38.6488 17.3071 36.8762 18.5263 34.1582C19.7456 31.4399 22.4269 31.811 22.4269 31.811C22.4269 31.811 21.3046 29.3464 23.1692 27.3585C25.1074 25.2917 27.3565 26.0004 28.0458 26.1592C28.0458 26.1592 29.0878 23.0086 32.9533 23.8067C36.3576 24.5098 36.7386 27.5922 36.1026 29.0238C36.1026 29.0238 39.8258 28.7593 40.9261 31.5989C42.3292 35.2199 39.6009 37.2178 39.6009 37.2178C39.6009 37.2178 45.1919 37.9836 43.438 43.1163L43.438 43.1163Z" fill="#2E4914" stroke="#F2F5DB" stroke-width="0.725061" stroke-miterlimit="10"/>
</svg>
